<svg width="280" height="58" viewBox="0 0 280 58" fill="none" xmlns="http://www.w3.org/2000/svg">
<rect x="1" y="1" width="278" height="57" rx="15" fill="#92E28F" fill-opacity="0.81"/>
<circle cx="30" cy="30" r="20" fill="#F4F4F4"/>
<path d="M47.4658 39.744C45.728 42.859 43.1887 45.4526 40.1111 47.2559C37.0336 49.0592 33.5297 50.0066 29.9628 50C26.3958 49.9933 22.8955 49.0329 19.8247 47.2181C16.7539 45.4034 14.2243 42.8004 12.498 39.6789L30 30L47.4658 39.744Z" fill="#111111"/>
<circle cx="30" cy="25" r="9" fill="#111111"/>
<path d="M49.464 19.832C49.5227 19.9227 49.608 19.992 49.72 20.04C49.8267 20.0933 49.952 20.12 50.096 20.12C50.2187 20.12 50.3387 20.064 50.456 19.952C50.5787 19.8453 50.64 19.6613 50.64 19.4V13.4H51.28V19.48C51.28 19.6987 51.2507 19.888 51.192 20.048C51.1387 20.208 51.0587 20.3413 50.952 20.448C50.8453 20.5547 50.7147 20.632 50.56 20.68C50.4107 20.7333 50.2427 20.76 50.056 20.76C49.9173 20.76 49.784 20.736 49.656 20.688C49.5227 20.6453 49.4107 20.592 49.32 20.528C49.224 20.4693 49.1547 20.4133 49.112 20.36L49.464 19.832ZM53.2099 17.864C53.2099 18.0027 53.2419 18.1227 53.3059 18.224C53.3752 18.3253 53.4685 18.4027 53.5859 18.456C53.7085 18.504 53.8472 18.528 54.0019 18.528C54.1992 18.528 54.3752 18.488 54.5299 18.408C54.6899 18.328 54.8152 18.216 54.9059 18.072C55.0019 17.9227 55.0499 17.752 55.0499 17.56L55.1779 18.04C55.1779 18.2747 55.1059 18.4693 54.9619 18.624C54.8232 18.7787 54.6499 18.8933 54.4419 18.968C54.2392 19.0427 54.0365 19.08 53.8339 19.08C53.6099 19.08 53.3992 19.0347 53.2019 18.944C53.0099 18.848 52.8552 18.712 52.7379 18.536C52.6205 18.36 52.5619 18.1467 52.5619 17.896C52.5619 17.5387 52.6872 17.2533 52.9379 17.04C53.1939 16.8213 53.5485 16.712 54.0019 16.712C54.2685 16.712 54.4899 16.744 54.6659 16.808C54.8472 16.8667 54.9912 16.936 55.0979 17.016C55.2045 17.0907 55.2765 17.152 55.3139 17.2V17.576C55.1272 17.448 54.9352 17.3573 54.7379 17.304C54.5405 17.2453 54.3299 17.216 54.1059 17.216C53.8979 17.216 53.7272 17.2427 53.5939 17.296C53.4659 17.3493 53.3699 17.424 53.3059 17.52C53.2419 17.616 53.2099 17.7307 53.2099 17.864ZM53.1139 16.168L52.8019 15.696C52.9405 15.5947 53.1299 15.4933 53.3699 15.392C53.6152 15.2907 53.9085 15.24 54.2499 15.24C54.5379 15.24 54.7885 15.2853 55.0019 15.376C55.2205 15.4613 55.3885 15.5867 55.5059 15.752C55.6285 15.9173 55.6899 16.12 55.6899 16.36V19H55.0499V16.448C55.0499 16.32 55.0285 16.216 54.9859 16.136C54.9432 16.0507 54.8819 15.984 54.8019 15.936C54.7272 15.888 54.6392 15.8533 54.5379 15.832C54.4365 15.8107 54.3299 15.8 54.2179 15.8C54.0365 15.8 53.8712 15.8213 53.7219 15.864C53.5779 15.9067 53.4552 15.9573 53.3539 16.016C53.2525 16.0747 53.1725 16.1253 53.1139 16.168ZM57.4614 17.16C57.4614 17.416 57.5148 17.6427 57.6214 17.84C57.7334 18.0373 57.8828 18.1947 58.0694 18.312C58.2614 18.424 58.4774 18.48 58.7174 18.48C58.9148 18.48 59.0988 18.4507 59.2694 18.392C59.4454 18.328 59.5974 18.2453 59.7254 18.144C59.8534 18.0373 59.9441 17.9253 59.9974 17.808V18.608C59.8694 18.7573 59.6854 18.8747 59.4454 18.96C59.2108 19.04 58.9681 19.08 58.7174 19.08C58.3601 19.08 58.0374 18.9973 57.7494 18.832C57.4614 18.6667 57.2321 18.44 57.0614 18.152C56.8961 17.8587 56.8134 17.528 56.8134 17.16C56.8134 16.7867 56.8961 16.456 57.0614 16.168C57.2321 15.88 57.4614 15.6533 57.7494 15.488C58.0374 15.3227 58.3601 15.24 58.7174 15.24C58.9681 15.24 59.2108 15.2827 59.4454 15.368C59.6854 15.448 59.8694 15.5627 59.9974 15.712V16.512C59.9441 16.3893 59.8534 16.2773 59.7254 16.176C59.5974 16.0747 59.4454 15.9947 59.2694 15.936C59.0988 15.872 58.9148 15.84 58.7174 15.84C58.4774 15.84 58.2614 15.896 58.0694 16.008C57.8828 16.12 57.7334 16.2773 57.6214 16.48C57.5148 16.6773 57.4614 16.904 57.4614 17.16ZM64.1537 20.76V15.32H64.7937V20.76H64.1537ZM61.0737 17.16C61.0737 16.76 61.1564 16.4187 61.3217 16.136C61.4871 15.848 61.7084 15.6267 61.9857 15.472C62.2631 15.3173 62.5671 15.24 62.8977 15.24C63.2071 15.24 63.4764 15.3173 63.7057 15.472C63.9351 15.6267 64.1137 15.848 64.2418 16.136C64.3751 16.4187 64.4418 16.76 64.4418 17.16C64.4418 17.5547 64.3751 17.896 64.2418 18.184C64.1137 18.472 63.9351 18.6933 63.7057 18.848C63.4764 19.0027 63.2071 19.08 62.8977 19.08C62.5671 19.08 62.2631 19.0027 61.9857 18.848C61.7084 18.6933 61.4871 18.472 61.3217 18.184C61.1564 17.896 61.0737 17.5547 61.0737 17.16ZM61.7217 17.16C61.7217 17.4427 61.7777 17.6827 61.8897 17.88C62.0071 18.0773 62.1617 18.2267 62.3537 18.328C62.5457 18.4293 62.7537 18.48 62.9777 18.48C63.1644 18.48 63.3484 18.4293 63.5297 18.328C63.7111 18.2267 63.8604 18.0773 63.9778 17.88C64.0951 17.6827 64.1537 17.4427 64.1537 17.16C64.1537 16.8773 64.0951 16.6373 63.9778 16.44C63.8604 16.2427 63.7111 16.0933 63.5297 15.992C63.3484 15.8907 63.1644 15.84 62.9777 15.84C62.7537 15.84 62.5457 15.8907 62.3537 15.992C62.1617 16.0933 62.0071 16.2427 61.8897 16.44C61.7777 16.6373 61.7217 16.8773 61.7217 17.16ZM66.9963 17.56C66.9963 17.8533 67.0629 18.08 67.1963 18.24C67.3296 18.4 67.5243 18.48 67.7803 18.48C67.9669 18.48 68.1296 18.4427 68.2683 18.368C68.4123 18.288 68.5216 18.1787 68.5963 18.04C68.6763 17.9013 68.7163 17.7413 68.7163 17.56V15.32H69.3563V19H68.7163V18.424C68.5936 18.6427 68.4416 18.808 68.2603 18.92C68.0789 19.0267 67.8656 19.08 67.6203 19.08C67.2363 19.08 66.9296 18.9493 66.7003 18.688C66.4709 18.4267 66.3563 18.0773 66.3563 17.64V15.32H66.9963V17.56ZM72.3834 19.08C72.042 19.08 71.738 19 71.4714 18.84C71.21 18.6747 71.0047 18.448 70.8554 18.16C70.7114 17.872 70.6394 17.5387 70.6394 17.16C70.6394 16.776 70.714 16.44 70.8634 16.152C71.018 15.864 71.2314 15.64 71.5034 15.48C71.7807 15.32 72.1007 15.24 72.4634 15.24C72.826 15.24 73.1354 15.3173 73.3914 15.472C73.6527 15.6213 73.8527 15.8373 73.9914 16.12C74.13 16.4027 74.1994 16.7387 74.1994 17.128C74.1994 17.1653 74.1967 17.2053 74.1914 17.248C74.1914 17.2853 74.1914 17.3093 74.1914 17.32H71.0474V16.776H73.6874L73.4314 17.144C73.4474 17.1173 73.4634 17.0773 73.4794 17.024C73.4954 16.9653 73.5034 16.9173 73.5034 16.88C73.5034 16.6613 73.458 16.472 73.3674 16.312C73.282 16.152 73.162 16.0267 73.0074 15.936C72.8527 15.8453 72.6714 15.8 72.4634 15.8C72.218 15.8 72.0074 15.8533 71.8314 15.96C71.6607 16.0613 71.5274 16.2107 71.4314 16.408C71.3407 16.6 71.2927 16.8373 71.2874 17.12C71.2874 17.408 71.3327 17.6533 71.4234 17.856C71.514 18.0587 71.6474 18.2133 71.8234 18.32C71.9994 18.4267 72.2127 18.48 72.4634 18.48C72.714 18.48 72.9354 18.4267 73.1274 18.32C73.3194 18.208 73.482 18.04 73.6154 17.816L74.1354 18.144C73.9434 18.4533 73.7007 18.688 73.4074 18.848C73.1194 19.0027 72.778 19.08 72.3834 19.08ZM75.4766 12.76H76.1166V19H75.4766V12.76ZM77.7203 13.8C77.7203 13.6773 77.763 13.5733 77.8483 13.488C77.939 13.4027 78.043 13.36 78.1603 13.36C78.283 13.36 78.387 13.4027 78.4723 13.488C78.5576 13.5733 78.6003 13.6773 78.6003 13.8C78.6003 13.9173 78.5576 14.0213 78.4723 14.112C78.387 14.1973 78.283 14.24 78.1603 14.24C78.043 14.24 77.939 14.1973 77.8483 14.112C77.763 14.0213 77.7203 13.9173 77.7203 13.8ZM77.8403 15.32H78.4803V19H77.8403V15.32ZM82.5584 16.76C82.5584 16.456 82.4918 16.2267 82.3584 16.072C82.2251 15.9173 82.0304 15.84 81.7744 15.84C81.5878 15.84 81.4224 15.88 81.2784 15.96C81.1398 16.0347 81.0304 16.1413 80.9504 16.28C80.8758 16.4187 80.8384 16.5787 80.8384 16.76V19H80.1984V15.32H80.8384V15.896C80.9611 15.672 81.1131 15.5067 81.2944 15.4C81.4811 15.2933 81.6944 15.24 81.9344 15.24C82.3238 15.24 82.6304 15.3707 82.8544 15.632C83.0838 15.888 83.1984 16.2373 83.1984 16.68V19H82.5584V16.76ZM86.2256 19.08C85.8842 19.08 85.5802 19 85.3136 18.84C85.0522 18.6747 84.8469 18.448 84.6976 18.16C84.5536 17.872 84.4816 17.5387 84.4816 17.16C84.4816 16.776 84.5562 16.44 84.7056 16.152C84.8602 15.864 85.0736 15.64 85.3456 15.48C85.6229 15.32 85.9429 15.24 86.3056 15.24C86.6682 15.24 86.9776 15.3173 87.2336 15.472C87.4949 15.6213 87.6949 15.8373 87.8336 16.12C87.9722 16.4027 88.0416 16.7387 88.0416 17.128C88.0416 17.1653 88.0389 17.2053 88.0336 17.248C88.0336 17.2853 88.0336 17.3093 88.0336 17.32H84.8896V16.776H87.5296L87.2736 17.144C87.2896 17.1173 87.3056 17.0773 87.3216 17.024C87.3376 16.9653 87.3456 16.9173 87.3456 16.88C87.3456 16.6613 87.3002 16.472 87.2096 16.312C87.1242 16.152 87.0042 16.0267 86.8496 15.936C86.6949 15.8453 86.5136 15.8 86.3056 15.8C86.0602 15.8 85.8496 15.8533 85.6736 15.96C85.5029 16.0613 85.3696 16.2107 85.2736 16.408C85.1829 16.6 85.1349 16.8373 85.1296 17.12C85.1296 17.408 85.1749 17.6533 85.2656 17.856C85.3562 18.0587 85.4896 18.2133 85.6656 18.32C85.8416 18.4267 86.0549 18.48 86.3056 18.48C86.5562 18.48 86.7776 18.4267 86.9696 18.32C87.1616 18.208 87.3242 18.04 87.4576 17.816L87.9776 18.144C87.7856 18.4533 87.5429 18.688 87.2496 18.848C86.9616 19.0027 86.6202 19.08 86.2256 19.08ZM94.1572 17.736L95.9972 13.4H96.7572L94.1572 19.28L91.5572 13.4H92.3172L94.1572 17.736ZM98.5818 19.08C98.2405 19.08 97.9365 19 97.6698 18.84C97.4085 18.6747 97.2031 18.448 97.0538 18.16C96.9098 17.872 96.8378 17.5387 96.8378 17.16C96.8378 16.776 96.9125 16.44 97.0618 16.152C97.2165 15.864 97.4298 15.64 97.7018 15.48C97.9791 15.32 98.2991 15.24 98.6618 15.24C99.0245 15.24 99.3338 15.3173 99.5898 15.472C99.8511 15.6213 100.051 15.8373 100.19 16.12C100.328 16.4027 100.398 16.7387 100.398 17.128C100.398 17.1653 100.395 17.2053 100.39 17.248C100.39 17.2853 100.39 17.3093 100.39 17.32H97.2458V16.776H99.8858L99.6298 17.144C99.6458 17.1173 99.6618 17.0773 99.6778 17.024C99.6938 16.9653 99.7018 16.9173 99.7018 16.88C99.7018 16.6613 99.6565 16.472 99.5658 16.312C99.4805 16.152 99.3605 16.0267 99.2058 15.936C99.0511 15.8453 98.8698 15.8 98.6618 15.8C98.4165 15.8 98.2058 15.8533 98.0298 15.96C97.8591 16.0613 97.7258 16.2107 97.6298 16.408C97.5391 16.6 97.4911 16.8373 97.4858 17.12C97.4858 17.408 97.5311 17.6533 97.6218 17.856C97.7125 18.0587 97.8458 18.2133 98.0218 18.32C98.1978 18.4267 98.4111 18.48 98.6618 18.48C98.9125 18.48 99.1338 18.4267 99.3258 18.32C99.5178 18.208 99.6805 18.04 99.8138 17.816L100.334 18.144C100.142 18.4533 99.8991 18.688 99.6058 18.848C99.3178 19.0027 98.9765 19.08 98.5818 19.08ZM102.315 15.32V19H101.675V15.32H102.315ZM103.427 16.024C103.342 15.96 103.264 15.9147 103.195 15.888C103.126 15.856 103.038 15.84 102.931 15.84C102.771 15.84 102.646 15.88 102.555 15.96C102.464 16.04 102.4 16.1493 102.363 16.288C102.331 16.4267 102.315 16.584 102.315 16.76H102.027C102.027 16.4667 102.078 16.208 102.179 15.984C102.286 15.7547 102.422 15.5733 102.587 15.44C102.752 15.3067 102.92 15.24 103.091 15.24C103.224 15.24 103.347 15.2587 103.459 15.296C103.576 15.328 103.683 15.3947 103.779 15.496L103.427 16.024ZM104.257 15.32H106.097V15.92H104.257V15.32ZM104.857 14.04H105.497V19H104.857V14.04Z" fill="#111111"/>
<path d="M131.016 7.04V6.4H133.52V7.04H131.016ZM131.016 9.28V8.64H133.44V9.28H131.016ZM130.64 6.4H131.32V12H130.64V6.4ZM135.046 10.864C135.046 11.0027 135.078 11.1227 135.142 11.224C135.211 11.3253 135.304 11.4027 135.422 11.456C135.544 11.504 135.683 11.528 135.838 11.528C136.035 11.528 136.211 11.488 136.366 11.408C136.526 11.328 136.651 11.216 136.742 11.072C136.838 10.9227 136.886 10.752 136.886 10.56L137.014 11.04C137.014 11.2747 136.942 11.4693 136.798 11.624C136.659 11.7787 136.486 11.8933 136.278 11.968C136.075 12.0427 135.872 12.08 135.67 12.08C135.446 12.08 135.235 12.0347 135.038 11.944C134.846 11.848 134.691 11.712 134.574 11.536C134.456 11.36 134.398 11.1467 134.398 10.896C134.398 10.5387 134.523 10.2533 134.774 10.04C135.03 9.82133 135.384 9.712 135.838 9.712C136.104 9.712 136.326 9.744 136.502 9.808C136.683 9.86667 136.827 9.936 136.934 10.016C137.04 10.0907 137.112 10.152 137.15 10.2V10.576C136.963 10.448 136.771 10.3573 136.574 10.304C136.376 10.2453 136.166 10.216 135.942 10.216C135.734 10.216 135.563 10.2427 135.43 10.296C135.302 10.3493 135.206 10.424 135.142 10.52C135.078 10.616 135.046 10.7307 135.046 10.864ZM134.95 9.168L134.638 8.696C134.776 8.59467 134.966 8.49333 135.206 8.392C135.451 8.29067 135.744 8.24 136.086 8.24C136.374 8.24 136.624 8.28533 136.838 8.376C137.056 8.46133 137.224 8.58667 137.342 8.752C137.464 8.91733 137.526 9.12 137.526 9.36V12H136.886V9.448C136.886 9.32 136.864 9.216 136.822 9.136C136.779 9.05067 136.718 8.984 136.638 8.936C136.563 8.888 136.475 8.85333 136.374 8.832C136.272 8.81067 136.166 8.8 136.054 8.8C135.872 8.8 135.707 8.82133 135.558 8.864C135.414 8.90667 135.291 8.95733 135.19 9.016C135.088 9.07467 135.008 9.12533 134.95 9.168ZM139.009 6.8C139.009 6.67733 139.052 6.57333 139.137 6.488C139.228 6.40267 139.332 6.36 139.449 6.36C139.572 6.36 139.676 6.40267 139.761 6.488C139.847 6.57333 139.889 6.67733 139.889 6.8C139.889 6.91733 139.847 7.02133 139.761 7.112C139.676 7.19733 139.572 7.24 139.449 7.24C139.332 7.24 139.228 7.19733 139.137 7.112C139.052 7.02133 139.009 6.91733 139.009 6.8ZM139.129 8.32H139.769V12H139.129V8.32ZM142.127 8.32V12H141.487V8.32H142.127ZM143.239 9.024C143.154 8.96 143.077 8.91467 143.007 8.888C142.938 8.856 142.85 8.84 142.743 8.84C142.583 8.84 142.458 8.88 142.367 8.96C142.277 9.04 142.213 9.14933 142.175 9.288C142.143 9.42667 142.127 9.584 142.127 9.76H141.839C141.839 9.46667 141.89 9.208 141.991 8.984C142.098 8.75467 142.234 8.57333 142.399 8.44C142.565 8.30667 142.733 8.24 142.903 8.24C143.037 8.24 143.159 8.25867 143.271 8.296C143.389 8.328 143.496 8.39467 143.592 8.496L143.239 9.024ZM145.937 12.08C145.595 12.08 145.291 12 145.025 11.84C144.763 11.6747 144.558 11.448 144.409 11.16C144.265 10.872 144.193 10.5387 144.193 10.16C144.193 9.776 144.267 9.44 144.417 9.152C144.571 8.864 144.785 8.64 145.057 8.48C145.334 8.32 145.654 8.24 146.017 8.24C146.379 8.24 146.689 8.31733 146.945 8.472C147.206 8.62133 147.406 8.83733 147.545 9.12C147.683 9.40267 147.753 9.73867 147.753 10.128C147.753 10.1653 147.75 10.2053 147.745 10.248C147.745 10.2853 147.745 10.3093 147.745 10.32H144.601V9.776H147.241L146.985 10.144C147.001 10.1173 147.017 10.0773 147.033 10.024C147.049 9.96533 147.057 9.91733 147.057 9.88C147.057 9.66133 147.011 9.472 146.921 9.312C146.835 9.152 146.715 9.02667 146.561 8.936C146.406 8.84533 146.225 8.8 146.017 8.8C145.771 8.8 145.561 8.85333 145.385 8.96C145.214 9.06133 145.081 9.21067 144.985 9.408C144.894 9.6 144.846 9.83733 144.841 10.12C144.841 10.408 144.886 10.6533 144.977 10.856C145.067 11.0587 145.201 11.2133 145.377 11.32C145.553 11.4267 145.766 11.48 146.017 11.48C146.267 11.48 146.489 11.4267 146.681 11.32C146.873 11.208 147.035 11.04 147.169 10.816L147.689 11.144C147.497 11.4533 147.254 11.688 146.961 11.848C146.673 12.0027 146.331 12.08 145.937 12.08ZM152.116 10.864C152.116 11.0027 152.148 11.1227 152.212 11.224C152.281 11.3253 152.375 11.4027 152.492 11.456C152.615 11.504 152.753 11.528 152.908 11.528C153.105 11.528 153.281 11.488 153.436 11.408C153.596 11.328 153.721 11.216 153.812 11.072C153.908 10.9227 153.956 10.752 153.956 10.56L154.084 11.04C154.084 11.2747 154.012 11.4693 153.868 11.624C153.729 11.7787 153.556 11.8933 153.348 11.968C153.145 12.0427 152.943 12.08 152.74 12.08C152.516 12.08 152.305 12.0347 152.108 11.944C151.916 11.848 151.761 11.712 151.644 11.536C151.527 11.36 151.468 11.1467 151.468 10.896C151.468 10.5387 151.593 10.2533 151.844 10.04C152.1 9.82133 152.455 9.712 152.908 9.712C153.175 9.712 153.396 9.744 153.572 9.808C153.753 9.86667 153.897 9.936 154.004 10.016C154.111 10.0907 154.183 10.152 154.22 10.2V10.576C154.033 10.448 153.841 10.3573 153.644 10.304C153.447 10.2453 153.236 10.216 153.012 10.216C152.804 10.216 152.633 10.2427 152.5 10.296C152.372 10.3493 152.276 10.424 152.212 10.52C152.148 10.616 152.116 10.7307 152.116 10.864ZM152.02 9.168L151.708 8.696C151.847 8.59467 152.036 8.49333 152.276 8.392C152.521 8.29067 152.815 8.24 153.156 8.24C153.444 8.24 153.695 8.28533 153.908 8.376C154.127 8.46133 154.295 8.58667 154.412 8.752C154.535 8.91733 154.596 9.12 154.596 9.36V12H153.956V9.448C153.956 9.32 153.935 9.216 153.892 9.136C153.849 9.05067 153.788 8.984 153.708 8.936C153.633 8.888 153.545 8.85333 153.444 8.832C153.343 8.81067 153.236 8.8 153.124 8.8C152.943 8.8 152.777 8.82133 152.628 8.864C152.484 8.90667 152.361 8.95733 152.26 9.016C152.159 9.07467 152.079 9.12533 152.02 9.168ZM156.68 13.76H156.04V8.32H156.68V13.76ZM159.76 10.16C159.76 10.5547 159.677 10.896 159.512 11.184C159.346 11.472 159.125 11.6933 158.848 11.848C158.576 12.0027 158.272 12.08 157.936 12.08C157.632 12.08 157.362 12.0027 157.128 11.848C156.898 11.6933 156.717 11.472 156.584 11.184C156.456 10.896 156.392 10.5547 156.392 10.16C156.392 9.76 156.456 9.41867 156.584 9.136C156.717 8.848 156.898 8.62667 157.128 8.472C157.362 8.31733 157.632 8.24 157.936 8.24C158.272 8.24 158.576 8.31733 158.848 8.472C159.125 8.62667 159.346 8.848 159.512 9.136C159.677 9.41867 159.76 9.76 159.76 10.16ZM159.112 10.16C159.112 9.87733 159.053 9.63733 158.936 9.44C158.824 9.24267 158.672 9.09333 158.48 8.992C158.293 8.89067 158.085 8.84 157.856 8.84C157.669 8.84 157.485 8.89067 157.304 8.992C157.122 9.09333 156.973 9.24267 156.856 9.44C156.738 9.63733 156.68 9.87733 156.68 10.16C156.68 10.4427 156.738 10.6827 156.856 10.88C156.973 11.0773 157.122 11.2267 157.304 11.328C157.485 11.4293 157.669 11.48 157.856 11.48C158.085 11.48 158.293 11.4293 158.48 11.328C158.672 11.2267 158.824 11.0773 158.936 10.88C159.053 10.6827 159.112 10.4427 159.112 10.16ZM161.642 13.76H161.002V8.32H161.642V13.76ZM164.722 10.16C164.722 10.5547 164.64 10.896 164.474 11.184C164.309 11.472 164.088 11.6933 163.81 11.848C163.538 12.0027 163.234 12.08 162.898 12.08C162.594 12.08 162.325 12.0027 162.09 11.848C161.861 11.6933 161.68 11.472 161.546 11.184C161.418 10.896 161.354 10.5547 161.354 10.16C161.354 9.76 161.418 9.41867 161.546 9.136C161.68 8.848 161.861 8.62667 162.09 8.472C162.325 8.31733 162.594 8.24 162.898 8.24C163.234 8.24 163.538 8.31733 163.81 8.472C164.088 8.62667 164.309 8.848 164.474 9.136C164.64 9.41867 164.722 9.76 164.722 10.16ZM164.074 10.16C164.074 9.87733 164.016 9.63733 163.898 9.44C163.786 9.24267 163.634 9.09333 163.442 8.992C163.256 8.89067 163.048 8.84 162.818 8.84C162.632 8.84 162.448 8.89067 162.266 8.992C162.085 9.09333 161.936 9.24267 161.818 9.44C161.701 9.63733 161.642 9.87733 161.642 10.16C161.642 10.4427 161.701 10.6827 161.818 10.88C161.936 11.0773 162.085 11.2267 162.266 11.328C162.448 11.4293 162.632 11.48 162.818 11.48C163.048 11.48 163.256 11.4293 163.442 11.328C163.634 11.2267 163.786 11.0773 163.898 10.88C164.016 10.6827 164.074 10.4427 164.074 10.16ZM167.429 12.08C167.087 12.08 166.783 12 166.517 11.84C166.255 11.6747 166.05 11.448 165.901 11.16C165.757 10.872 165.685 10.5387 165.685 10.16C165.685 9.776 165.759 9.44 165.909 9.152C166.063 8.864 166.277 8.64 166.549 8.48C166.826 8.32 167.146 8.24 167.509 8.24C167.871 8.24 168.181 8.31733 168.437 8.472C168.698 8.62133 168.898 8.83733 169.037 9.12C169.175 9.40267 169.245 9.73867 169.245 10.128C169.245 10.1653 169.242 10.2053 169.237 10.248C169.237 10.2853 169.237 10.3093 169.237 10.32H166.093V9.776H168.733L168.477 10.144C168.493 10.1173 168.509 10.0773 168.525 10.024C168.541 9.96533 168.549 9.91733 168.549 9.88C168.549 9.66133 168.503 9.472 168.413 9.312C168.327 9.152 168.207 9.02667 168.053 8.936C167.898 8.84533 167.717 8.8 167.509 8.8C167.263 8.8 167.053 8.85333 166.877 8.96C166.706 9.06133 166.573 9.21067 166.477 9.408C166.386 9.6 166.338 9.83733 166.333 10.12C166.333 10.408 166.378 10.6533 166.469 10.856C166.559 11.0587 166.693 11.2133 166.869 11.32C167.045 11.4267 167.258 11.48 167.509 11.48C167.759 11.48 167.981 11.4267 168.173 11.32C168.365 11.208 168.527 11.04 168.661 10.816L169.181 11.144C168.989 11.4533 168.746 11.688 168.453 11.848C168.165 12.0027 167.823 12.08 167.429 12.08ZM170.522 5.76H171.162V12H170.522V5.76ZM175.852 10.92C175.852 11.048 175.881 11.1573 175.94 11.248C175.999 11.3333 176.084 11.4 176.196 11.448C176.313 11.4907 176.457 11.512 176.628 11.512C176.841 11.512 177.031 11.48 177.196 11.416C177.361 11.352 177.489 11.2507 177.58 11.112C177.676 10.9733 177.724 10.7893 177.724 10.56L177.852 10.96C177.852 11.1947 177.788 11.3973 177.66 11.568C177.537 11.7333 177.372 11.8613 177.164 11.952C176.956 12.0373 176.724 12.08 176.468 12.08C176.217 12.08 175.996 12.0373 175.804 11.952C175.612 11.8613 175.463 11.736 175.356 11.576C175.255 11.416 175.204 11.224 175.204 11C175.204 10.712 175.273 10.4747 175.412 10.288C175.551 10.096 175.737 9.952 175.972 9.856C176.212 9.76 176.479 9.712 176.772 9.712C177.007 9.712 177.207 9.744 177.372 9.808C177.543 9.86667 177.679 9.936 177.78 10.016C177.881 10.0907 177.951 10.152 177.988 10.2V10.576C177.807 10.448 177.623 10.3547 177.436 10.296C177.249 10.232 177.039 10.2 176.804 10.2C176.591 10.2 176.412 10.2293 176.268 10.288C176.129 10.3467 176.025 10.4293 175.956 10.536C175.887 10.6427 175.852 10.7707 175.852 10.92ZM175.852 9.184L175.54 8.696C175.679 8.59467 175.865 8.49333 176.1 8.392C176.335 8.29067 176.617 8.24 176.948 8.24C177.231 8.24 177.476 8.28533 177.684 8.376C177.897 8.46133 178.063 8.58667 178.18 8.752C178.303 8.91733 178.364 9.12 178.364 9.36V12H177.724V9.36C177.724 9.17333 177.644 9.03467 177.484 8.944C177.329 8.848 177.151 8.8 176.948 8.8C176.772 8.8 176.612 8.824 176.468 8.872C176.324 8.91467 176.199 8.968 176.092 9.032C175.991 9.09067 175.911 9.14133 175.852 9.184ZM175.668 6.56L176.268 6.24L177.468 7.52L177.108 7.76L175.668 6.56ZM182.933 10.16C182.933 10.416 182.987 10.6427 183.093 10.84C183.205 11.0373 183.355 11.1947 183.541 11.312C183.733 11.424 183.949 11.48 184.189 11.48C184.387 11.48 184.571 11.4507 184.741 11.392C184.917 11.328 185.069 11.2453 185.197 11.144C185.325 11.0373 185.416 10.9253 185.469 10.808V11.608C185.341 11.7573 185.157 11.8747 184.917 11.96C184.683 12.04 184.44 12.08 184.189 12.08C183.832 12.08 183.509 11.9973 183.221 11.832C182.933 11.6667 182.704 11.44 182.533 11.152C182.368 10.8587 182.285 10.528 182.285 10.16C182.285 9.78667 182.368 9.456 182.533 9.168C182.704 8.88 182.933 8.65333 183.221 8.488C183.509 8.32267 183.832 8.24 184.189 8.24C184.44 8.24 184.683 8.28267 184.917 8.368C185.157 8.448 185.341 8.56267 185.469 8.712V9.512C185.416 9.38933 185.325 9.27733 185.197 9.176C185.069 9.07467 184.917 8.99467 184.741 8.936C184.571 8.872 184.387 8.84 184.189 8.84C183.949 8.84 183.733 8.896 183.541 9.008C183.355 9.12 183.205 9.27733 183.093 9.48C182.987 9.67733 182.933 9.904 182.933 10.16ZM188.29 12.08C187.948 12.08 187.644 12 187.378 11.84C187.116 11.6747 186.911 11.448 186.762 11.16C186.618 10.872 186.546 10.5387 186.546 10.16C186.546 9.776 186.62 9.44 186.77 9.152C186.924 8.864 187.138 8.64 187.41 8.48C187.687 8.32 188.007 8.24 188.37 8.24C188.732 8.24 189.042 8.31733 189.298 8.472C189.559 8.62133 189.759 8.83733 189.898 9.12C190.036 9.40267 190.106 9.73867 190.106 10.128C190.106 10.1653 190.103 10.2053 190.098 10.248C190.098 10.2853 190.098 10.3093 190.098 10.32H186.954V9.776H189.594L189.338 10.144C189.354 10.1173 189.37 10.0773 189.386 10.024C189.402 9.96533 189.41 9.91733 189.41 9.88C189.41 9.66133 189.364 9.472 189.274 9.312C189.188 9.152 189.068 9.02667 188.914 8.936C188.759 8.84533 188.578 8.8 188.37 8.8C188.124 8.8 187.914 8.85333 187.738 8.96C187.567 9.06133 187.434 9.21067 187.338 9.408C187.247 9.6 187.199 9.83733 187.194 10.12C187.194 10.408 187.239 10.6533 187.33 10.856C187.42 11.0587 187.554 11.2133 187.73 11.32C187.906 11.4267 188.119 11.48 188.37 11.48C188.62 11.48 188.842 11.4267 189.034 11.32C189.226 11.208 189.388 11.04 189.522 10.816L190.042 11.144C189.85 11.4533 189.607 11.688 189.314 11.848C189.026 12.0027 188.684 12.08 188.29 12.08ZM194.469 10.16C194.469 10.416 194.523 10.6427 194.629 10.84C194.741 11.0373 194.891 11.1947 195.077 11.312C195.269 11.424 195.485 11.48 195.725 11.48C195.923 11.48 196.107 11.4507 196.277 11.392C196.453 11.328 196.605 11.2453 196.733 11.144C196.861 11.0373 196.952 10.9253 197.005 10.808V11.608C196.877 11.7573 196.693 11.8747 196.453 11.96C196.219 12.04 195.976 12.08 195.725 12.08C195.368 12.08 195.045 11.9973 194.757 11.832C194.469 11.6667 194.24 11.44 194.069 11.152C193.904 10.8587 193.821 10.528 193.821 10.16C193.821 9.78667 193.904 9.456 194.069 9.168C194.24 8.88 194.469 8.65333 194.757 8.488C195.045 8.32267 195.368 8.24 195.725 8.24C195.976 8.24 196.219 8.28267 196.453 8.368C196.693 8.448 196.877 8.56267 197.005 8.712V9.512C196.952 9.38933 196.861 9.27733 196.733 9.176C196.605 9.07467 196.453 8.99467 196.277 8.936C196.107 8.872 195.923 8.84 195.725 8.84C195.485 8.84 195.269 8.896 195.077 9.008C194.891 9.12 194.741 9.27733 194.629 9.48C194.523 9.67733 194.469 9.904 194.469 10.16ZM198.69 10.864C198.69 11.0027 198.722 11.1227 198.786 11.224C198.855 11.3253 198.948 11.4027 199.066 11.456C199.188 11.504 199.327 11.528 199.482 11.528C199.679 11.528 199.855 11.488 200.01 11.408C200.17 11.328 200.295 11.216 200.386 11.072C200.482 10.9227 200.53 10.752 200.53 10.56L200.658 11.04C200.658 11.2747 200.586 11.4693 200.442 11.624C200.303 11.7787 200.13 11.8933 199.922 11.968C199.719 12.0427 199.516 12.08 199.314 12.08C199.09 12.08 198.879 12.0347 198.682 11.944C198.49 11.848 198.335 11.712 198.218 11.536C198.1 11.36 198.042 11.1467 198.042 10.896C198.042 10.5387 198.167 10.2533 198.418 10.04C198.674 9.82133 199.028 9.712 199.482 9.712C199.748 9.712 199.97 9.744 200.146 9.808C200.327 9.86667 200.471 9.936 200.578 10.016C200.684 10.0907 200.756 10.152 200.794 10.2V10.576C200.607 10.448 200.415 10.3573 200.218 10.304C200.02 10.2453 199.81 10.216 199.586 10.216C199.378 10.216 199.207 10.2427 199.074 10.296C198.946 10.3493 198.85 10.424 198.786 10.52C198.722 10.616 198.69 10.7307 198.69 10.864ZM198.594 9.168L198.282 8.696C198.42 8.59467 198.61 8.49333 198.85 8.392C199.095 8.29067 199.388 8.24 199.73 8.24C200.018 8.24 200.268 8.28533 200.482 8.376C200.7 8.46133 200.868 8.58667 200.986 8.752C201.108 8.91733 201.17 9.12 201.17 9.36V12H200.53V9.448C200.53 9.32 200.508 9.216 200.466 9.136C200.423 9.05067 200.362 8.984 200.282 8.936C200.207 8.888 200.119 8.85333 200.018 8.832C199.916 8.81067 199.81 8.8 199.698 8.8C199.516 8.8 199.351 8.82133 199.202 8.864C199.058 8.90667 198.935 8.95733 198.834 9.016C198.732 9.07467 198.652 9.12533 198.594 9.168ZM203.253 5.76V12H202.613V5.76H203.253ZM206.333 10.16C206.333 10.5547 206.25 10.896 206.085 11.184C205.92 11.472 205.698 11.6933 205.421 11.848C205.149 12.0027 204.845 12.08 204.509 12.08C204.205 12.08 203.936 12.0027 203.701 11.848C203.472 11.6933 203.29 11.472 203.157 11.184C203.029 10.896 202.965 10.5547 202.965 10.16C202.965 9.76 203.029 9.41867 203.157 9.136C203.29 8.848 203.472 8.62667 203.701 8.472C203.936 8.31733 204.205 8.24 204.509 8.24C204.845 8.24 205.149 8.31733 205.421 8.472C205.698 8.62667 205.92 8.848 206.085 9.136C206.25 9.41867 206.333 9.76 206.333 10.16ZM205.685 10.16C205.685 9.87733 205.626 9.63733 205.509 9.44C205.397 9.24267 205.245 9.09333 205.053 8.992C204.866 8.89067 204.658 8.84 204.429 8.84C204.242 8.84 204.058 8.89067 203.877 8.992C203.696 9.09333 203.546 9.24267 203.429 9.44C203.312 9.63733 203.253 9.87733 203.253 10.16C203.253 10.4427 203.312 10.6827 203.429 10.88C203.546 11.0773 203.696 11.2267 203.877 11.328C204.058 11.4293 204.242 11.48 204.429 11.48C204.658 11.48 204.866 11.4293 205.053 11.328C205.245 11.2267 205.397 11.0773 205.509 10.88C205.626 10.6827 205.685 10.4427 205.685 10.16ZM207.616 6.8C207.616 6.67733 207.658 6.57333 207.744 6.488C207.834 6.40267 207.938 6.36 208.056 6.36C208.178 6.36 208.282 6.40267 208.368 6.488C208.453 6.57333 208.496 6.67733 208.496 6.8C208.496 6.91733 208.453 7.02133 208.368 7.112C208.282 7.19733 208.178 7.24 208.056 7.24C207.938 7.24 207.834 7.19733 207.744 7.112C207.658 7.02133 207.616 6.91733 207.616 6.8ZM207.736 8.32H208.376V12H207.736V8.32ZM212.454 9.76C212.454 9.456 212.387 9.22667 212.254 9.072C212.12 8.91733 211.926 8.84 211.67 8.84C211.483 8.84 211.318 8.88 211.174 8.96C211.035 9.03467 210.926 9.14133 210.846 9.28C210.771 9.41867 210.734 9.57867 210.734 9.76V12H210.094V8.32H210.734V8.896C210.856 8.672 211.008 8.50667 211.19 8.4C211.376 8.29333 211.59 8.24 211.83 8.24C212.219 8.24 212.526 8.37067 212.75 8.632C212.979 8.888 213.094 9.23733 213.094 9.68V12H212.454V9.76ZM216.121 12.08C215.78 12.08 215.476 12 215.209 11.84C214.948 11.6747 214.742 11.448 214.593 11.16C214.449 10.872 214.377 10.5387 214.377 10.16C214.377 9.776 214.452 9.44 214.601 9.152C214.756 8.864 214.969 8.64 215.241 8.48C215.518 8.32 215.838 8.24 216.201 8.24C216.564 8.24 216.873 8.31733 217.129 8.472C217.39 8.62133 217.59 8.83733 217.729 9.12C217.868 9.40267 217.937 9.73867 217.937 10.128C217.937 10.1653 217.934 10.2053 217.929 10.248C217.929 10.2853 217.929 10.3093 217.929 10.32H214.785V9.776H217.425L217.169 10.144C217.185 10.1173 217.201 10.0773 217.217 10.024C217.233 9.96533 217.241 9.91733 217.241 9.88C217.241 9.66133 217.196 9.472 217.105 9.312C217.02 9.152 216.9 9.02667 216.745 8.936C216.59 8.84533 216.409 8.8 216.201 8.8C215.956 8.8 215.745 8.85333 215.569 8.96C215.398 9.06133 215.265 9.21067 215.169 9.408C215.078 9.6 215.03 9.83733 215.025 10.12C215.025 10.408 215.07 10.6533 215.161 10.856C215.252 11.0587 215.385 11.2133 215.561 11.32C215.737 11.4267 215.95 11.48 216.201 11.48C216.452 11.48 216.673 11.4267 216.865 11.32C217.057 11.208 217.22 11.04 217.353 10.816L217.873 11.144C217.681 11.4533 217.438 11.688 217.145 11.848C216.857 12.0027 216.516 12.08 216.121 12.08ZM218.654 8.32H220.494V8.92H218.654V8.32ZM219.254 7.04H219.894V12H219.254V7.04ZM229.374 9.68V12H228.734V9.76C228.734 9.44533 228.676 9.21333 228.558 9.064C228.446 8.91467 228.27 8.84 228.03 8.84C227.854 8.84 227.702 8.87733 227.574 8.952C227.446 9.02133 227.348 9.12533 227.278 9.264C227.209 9.40267 227.174 9.568 227.174 9.76V12H226.534V9.76C226.534 9.44533 226.476 9.21333 226.358 9.064C226.246 8.91467 226.07 8.84 225.83 8.84C225.654 8.84 225.502 8.87733 225.374 8.952C225.246 9.02133 225.148 9.12533 225.078 9.264C225.009 9.40267 224.974 9.568 224.974 9.76V12H224.334V8.32H224.974V8.856C225.086 8.648 225.225 8.49333 225.39 8.392C225.561 8.29067 225.761 8.24 225.99 8.24C226.246 8.24 226.465 8.30133 226.646 8.424C226.833 8.54133 226.969 8.70933 227.054 8.928C227.182 8.69867 227.342 8.528 227.534 8.416C227.726 8.29867 227.945 8.24 228.19 8.24C228.441 8.24 228.654 8.296 228.83 8.408C229.006 8.52 229.14 8.68533 229.23 8.904C229.326 9.11733 229.374 9.376 229.374 9.68ZM231.014 6.4H231.774L230.974 8.24H230.534L231.014 6.4ZM232.829 10.864C232.829 11.0027 232.861 11.1227 232.925 11.224C232.994 11.3253 233.087 11.4027 233.205 11.456C233.327 11.504 233.466 11.528 233.621 11.528C233.818 11.528 233.994 11.488 234.149 11.408C234.309 11.328 234.434 11.216 234.525 11.072C234.621 10.9227 234.669 10.752 234.669 10.56L234.797 11.04C234.797 11.2747 234.725 11.4693 234.581 11.624C234.442 11.7787 234.269 11.8933 234.061 11.968C233.858 12.0427 233.655 12.08 233.453 12.08C233.229 12.08 233.018 12.0347 232.821 11.944C232.629 11.848 232.474 11.712 232.357 11.536C232.239 11.36 232.181 11.1467 232.181 10.896C232.181 10.5387 232.306 10.2533 232.557 10.04C232.813 9.82133 233.167 9.712 233.621 9.712C233.887 9.712 234.109 9.744 234.285 9.808C234.466 9.86667 234.61 9.936 234.717 10.016C234.823 10.0907 234.895 10.152 234.933 10.2V10.576C234.746 10.448 234.554 10.3573 234.357 10.304C234.159 10.2453 233.949 10.216 233.725 10.216C233.517 10.216 233.346 10.2427 233.213 10.296C233.085 10.3493 232.989 10.424 232.925 10.52C232.861 10.616 232.829 10.7307 232.829 10.864ZM232.733 9.168L232.421 8.696C232.559 8.59467 232.749 8.49333 232.989 8.392C233.234 8.29067 233.527 8.24 233.869 8.24C234.157 8.24 234.407 8.28533 234.621 8.376C234.839 8.46133 235.007 8.58667 235.125 8.752C235.247 8.91733 235.309 9.12 235.309 9.36V12H234.669V9.448C234.669 9.32 234.647 9.216 234.605 9.136C234.562 9.05067 234.501 8.984 234.421 8.936C234.346 8.888 234.258 8.85333 234.157 8.832C234.055 8.81067 233.949 8.8 233.837 8.8C233.655 8.8 233.49 8.82133 233.341 8.864C233.197 8.90667 233.074 8.95733 232.973 9.016C232.871 9.07467 232.791 9.12533 232.733 9.168ZM131.2 17.76V24H130.56V17.76H131.2ZM134.28 22.16C134.28 22.5547 134.197 22.896 134.032 23.184C133.867 23.472 133.645 23.6933 133.368 23.848C133.096 24.0027 132.792 24.08 132.456 24.08C132.152 24.08 131.883 24.0027 131.648 23.848C131.419 23.6933 131.237 23.472 131.104 23.184C130.976 22.896 130.912 22.5547 130.912 22.16C130.912 21.76 130.976 21.4187 131.104 21.136C131.237 20.848 131.419 20.6267 131.648 20.472C131.883 20.3173 132.152 20.24 132.456 20.24C132.792 20.24 133.096 20.3173 133.368 20.472C133.645 20.6267 133.867 20.848 134.032 21.136C134.197 21.4187 134.28 21.76 134.28 22.16ZM133.632 22.16C133.632 21.8773 133.573 21.6373 133.456 21.44C133.344 21.2427 133.192 21.0933 133 20.992C132.813 20.8907 132.605 20.84 132.376 20.84C132.189 20.84 132.005 20.8907 131.824 20.992C131.643 21.0933 131.493 21.2427 131.376 21.44C131.259 21.6373 131.2 21.8773 131.2 22.16C131.2 22.4427 131.259 22.6827 131.376 22.88C131.493 23.0773 131.643 23.2267 131.824 23.328C132.005 23.4293 132.189 23.48 132.376 23.48C132.605 23.48 132.813 23.4293 133 23.328C133.192 23.2267 133.344 23.0773 133.456 22.88C133.573 22.6827 133.632 22.4427 133.632 22.16ZM136.987 24.08C136.645 24.08 136.341 24 136.075 23.84C135.813 23.6747 135.608 23.448 135.459 23.16C135.315 22.872 135.243 22.5387 135.243 22.16C135.243 21.776 135.317 21.44 135.467 21.152C135.621 20.864 135.835 20.64 136.107 20.48C136.384 20.32 136.704 20.24 137.067 20.24C137.429 20.24 137.739 20.3173 137.995 20.472C138.256 20.6213 138.456 20.8373 138.595 21.12C138.733 21.4027 138.803 21.7387 138.803 22.128C138.803 22.1653 138.8 22.2053 138.795 22.248C138.795 22.2853 138.795 22.3093 138.795 22.32H135.651V21.776H138.291L138.035 22.144C138.051 22.1173 138.067 22.0773 138.083 22.024C138.099 21.9653 138.107 21.9173 138.107 21.88C138.107 21.6613 138.061 21.472 137.971 21.312C137.885 21.152 137.765 21.0267 137.611 20.936C137.456 20.8453 137.275 20.8 137.067 20.8C136.821 20.8 136.611 20.8533 136.435 20.96C136.264 21.0613 136.131 21.2107 136.035 21.408C135.944 21.6 135.896 21.8373 135.891 22.12C135.891 22.408 135.936 22.6533 136.027 22.856C136.117 23.0587 136.251 23.2133 136.427 23.32C136.603 23.4267 136.816 23.48 137.067 23.48C137.317 23.48 137.539 23.4267 137.731 23.32C137.923 23.208 138.085 23.04 138.219 22.816L138.739 23.144C138.547 23.4533 138.304 23.688 138.011 23.848C137.723 24.0027 137.381 24.08 136.987 24.08ZM140.368 22.864C140.368 23.0027 140.4 23.1227 140.464 23.224C140.533 23.3253 140.626 23.4027 140.744 23.456C140.866 23.504 141.005 23.528 141.16 23.528C141.357 23.528 141.533 23.488 141.688 23.408C141.848 23.328 141.973 23.216 142.064 23.072C142.16 22.9227 142.208 22.752 142.208 22.56L142.336 23.04C142.336 23.2747 142.264 23.4693 142.12 23.624C141.981 23.7787 141.808 23.8933 141.6 23.968C141.397 24.0427 141.194 24.08 140.992 24.08C140.768 24.08 140.557 24.0347 140.36 23.944C140.168 23.848 140.013 23.712 139.896 23.536C139.778 23.36 139.72 23.1467 139.72 22.896C139.72 22.5387 139.845 22.2533 140.096 22.04C140.352 21.8213 140.706 21.712 141.16 21.712C141.426 21.712 141.648 21.744 141.824 21.808C142.005 21.8667 142.149 21.936 142.256 22.016C142.362 22.0907 142.434 22.152 142.472 22.2V22.576C142.285 22.448 142.093 22.3573 141.896 22.304C141.698 22.2453 141.488 22.216 141.264 22.216C141.056 22.216 140.885 22.2427 140.752 22.296C140.624 22.3493 140.528 22.424 140.464 22.52C140.4 22.616 140.368 22.7307 140.368 22.864ZM140.272 21.168L139.96 20.696C140.098 20.5947 140.288 20.4933 140.528 20.392C140.773 20.2907 141.066 20.24 141.408 20.24C141.696 20.24 141.946 20.2853 142.16 20.376C142.378 20.4613 142.546 20.5867 142.664 20.752C142.786 20.9173 142.848 21.12 142.848 21.36V24H142.208V21.448C142.208 21.32 142.186 21.216 142.144 21.136C142.101 21.0507 142.04 20.984 141.96 20.936C141.885 20.888 141.797 20.8533 141.696 20.832C141.594 20.8107 141.488 20.8 141.376 20.8C141.194 20.8 141.029 20.8213 140.88 20.864C140.736 20.9067 140.613 20.9573 140.512 21.016C140.41 21.0747 140.33 21.1253 140.272 21.168ZM144.971 22.56C144.971 22.8533 145.038 23.08 145.171 23.24C145.305 23.4 145.499 23.48 145.755 23.48C145.942 23.48 146.105 23.4427 146.243 23.368C146.387 23.288 146.497 23.1787 146.571 23.04C146.651 22.9013 146.691 22.7413 146.691 22.56V20.32H147.331V24H146.691V23.424C146.569 23.6427 146.417 23.808 146.235 23.92C146.054 24.0267 145.841 24.08 145.595 24.08C145.211 24.08 144.905 23.9493 144.675 23.688C144.446 23.4267 144.331 23.0773 144.331 22.64V20.32H144.971V22.56ZM149.222 22.16C149.222 22.416 149.276 22.6427 149.382 22.84C149.494 23.0373 149.644 23.1947 149.83 23.312C150.022 23.424 150.238 23.48 150.478 23.48C150.676 23.48 150.86 23.4507 151.03 23.392C151.206 23.328 151.358 23.2453 151.486 23.144C151.614 23.0373 151.705 22.9253 151.758 22.808V23.608C151.63 23.7573 151.446 23.8747 151.206 23.96C150.972 24.04 150.729 24.08 150.478 24.08C150.121 24.08 149.798 23.9973 149.51 23.832C149.222 23.6667 148.993 23.44 148.822 23.152C148.657 22.8587 148.574 22.528 148.574 22.16C148.574 21.7867 148.657 21.456 148.822 21.168C148.993 20.88 149.222 20.6533 149.51 20.488C149.798 20.3227 150.121 20.24 150.478 20.24C150.729 20.24 150.972 20.2827 151.206 20.368C151.446 20.448 151.63 20.5627 151.758 20.712V21.512C151.705 21.3893 151.614 21.2773 151.486 21.176C151.358 21.0747 151.206 20.9947 151.03 20.936C150.86 20.872 150.676 20.84 150.478 20.84C150.238 20.84 150.022 20.896 149.83 21.008C149.644 21.12 149.494 21.2773 149.382 21.48C149.276 21.6773 149.222 21.904 149.222 22.16ZM152.835 22.16C152.835 21.7867 152.917 21.456 153.083 21.168C153.253 20.88 153.483 20.6533 153.771 20.488C154.059 20.3227 154.381 20.24 154.739 20.24C155.101 20.24 155.424 20.3227 155.707 20.488C155.995 20.6533 156.221 20.88 156.387 21.168C156.557 21.456 156.643 21.7867 156.643 22.16C156.643 22.528 156.557 22.8587 156.387 23.152C156.221 23.44 155.995 23.6667 155.707 23.832C155.424 23.9973 155.101 24.08 154.739 24.08C154.381 24.08 154.059 23.9973 153.771 23.832C153.483 23.6667 153.253 23.44 153.083 23.152C152.917 22.8587 152.835 22.528 152.835 22.16ZM153.483 22.16C153.483 22.416 153.536 22.6427 153.643 22.84C153.755 23.0373 153.904 23.1947 154.091 23.312C154.283 23.424 154.499 23.48 154.739 23.48C154.979 23.48 155.192 23.424 155.379 23.312C155.571 23.1947 155.72 23.0373 155.827 22.84C155.939 22.6427 155.995 22.416 155.995 22.16C155.995 21.904 155.939 21.6773 155.827 21.48C155.72 21.2773 155.571 21.12 155.379 21.008C155.192 20.896 154.979 20.84 154.739 20.84C154.499 20.84 154.283 20.896 154.091 21.008C153.904 21.12 153.755 21.2773 153.643 21.48C153.536 21.6773 153.483 21.904 153.483 22.16ZM158.562 22.56C158.562 22.8533 158.629 23.08 158.762 23.24C158.895 23.4 159.09 23.48 159.346 23.48C159.533 23.48 159.695 23.4427 159.834 23.368C159.978 23.288 160.087 23.1787 160.162 23.04C160.242 22.9013 160.282 22.7413 160.282 22.56V20.32H160.922V24H160.282V23.424C160.159 23.6427 160.007 23.808 159.826 23.92C159.645 24.0267 159.431 24.08 159.186 24.08C158.802 24.08 158.495 23.9493 158.266 23.688C158.037 23.4267 157.922 23.0773 157.922 22.64V20.32H158.562V22.56ZM163.125 25.76H162.485V20.32H163.125V25.76ZM166.205 22.16C166.205 22.5547 166.122 22.896 165.957 23.184C165.792 23.472 165.57 23.6933 165.293 23.848C165.021 24.0027 164.717 24.08 164.381 24.08C164.077 24.08 163.808 24.0027 163.573 23.848C163.344 23.6933 163.162 23.472 163.029 23.184C162.901 22.896 162.837 22.5547 162.837 22.16C162.837 21.76 162.901 21.4187 163.029 21.136C163.162 20.848 163.344 20.6267 163.573 20.472C163.808 20.3173 164.077 20.24 164.381 20.24C164.717 20.24 165.021 20.3173 165.293 20.472C165.57 20.6267 165.792 20.848 165.957 21.136C166.122 21.4187 166.205 21.76 166.205 22.16ZM165.557 22.16C165.557 21.8773 165.498 21.6373 165.381 21.44C165.269 21.2427 165.117 21.0933 164.925 20.992C164.738 20.8907 164.53 20.84 164.301 20.84C164.114 20.84 163.93 20.8907 163.749 20.992C163.568 21.0933 163.418 21.2427 163.301 21.44C163.184 21.6373 163.125 21.8773 163.125 22.16C163.125 22.4427 163.184 22.6827 163.301 22.88C163.418 23.0773 163.568 23.2267 163.749 23.328C163.93 23.4293 164.114 23.48 164.301 23.48C164.53 23.48 164.738 23.4293 164.925 23.328C165.117 23.2267 165.269 23.0773 165.381 22.88C165.498 22.6827 165.557 22.4427 165.557 22.16ZM170.574 22.864C170.574 23.0027 170.606 23.1227 170.67 23.224C170.739 23.3253 170.833 23.4027 170.95 23.456C171.073 23.504 171.211 23.528 171.366 23.528C171.563 23.528 171.739 23.488 171.894 23.408C172.054 23.328 172.179 23.216 172.27 23.072C172.366 22.9227 172.414 22.752 172.414 22.56L172.542 23.04C172.542 23.2747 172.47 23.4693 172.326 23.624C172.187 23.7787 172.014 23.8933 171.806 23.968C171.603 24.0427 171.401 24.08 171.198 24.08C170.974 24.08 170.763 24.0347 170.566 23.944C170.374 23.848 170.219 23.712 170.102 23.536C169.985 23.36 169.926 23.1467 169.926 22.896C169.926 22.5387 170.051 22.2533 170.302 22.04C170.558 21.8213 170.913 21.712 171.366 21.712C171.633 21.712 171.854 21.744 172.03 21.808C172.211 21.8667 172.355 21.936 172.462 22.016C172.569 22.0907 172.641 22.152 172.678 22.2V22.576C172.491 22.448 172.299 22.3573 172.102 22.304C171.905 22.2453 171.694 22.216 171.47 22.216C171.262 22.216 171.091 22.2427 170.958 22.296C170.83 22.3493 170.734 22.424 170.67 22.52C170.606 22.616 170.574 22.7307 170.574 22.864ZM170.478 21.168L170.166 20.696C170.305 20.5947 170.494 20.4933 170.734 20.392C170.979 20.2907 171.273 20.24 171.614 20.24C171.902 20.24 172.153 20.2853 172.366 20.376C172.585 20.4613 172.753 20.5867 172.87 20.752C172.993 20.9173 173.054 21.12 173.054 21.36V24H172.414V21.448C172.414 21.32 172.393 21.216 172.35 21.136C172.307 21.0507 172.246 20.984 172.166 20.936C172.091 20.888 172.003 20.8533 171.902 20.832C171.801 20.8107 171.694 20.8 171.582 20.8C171.401 20.8 171.235 20.8213 171.086 20.864C170.942 20.9067 170.819 20.9573 170.718 21.016C170.617 21.0747 170.537 21.1253 170.478 21.168ZM174.538 18.8C174.538 18.6773 174.58 18.5733 174.666 18.488C174.756 18.4027 174.86 18.36 174.978 18.36C175.1 18.36 175.204 18.4027 175.29 18.488C175.375 18.5733 175.418 18.6773 175.418 18.8C175.418 18.9173 175.375 19.0213 175.29 19.112C175.204 19.1973 175.1 19.24 174.978 19.24C174.86 19.24 174.756 19.1973 174.666 19.112C174.58 19.0213 174.538 18.9173 174.538 18.8ZM174.658 20.32H175.298V24H174.658V20.32ZM179.776 17.76H180.416V24H179.776V17.76ZM176.696 22.16C176.696 21.76 176.778 21.4187 176.944 21.136C177.109 20.848 177.33 20.6267 177.608 20.472C177.885 20.3173 178.189 20.24 178.52 20.24C178.829 20.24 179.098 20.3173 179.328 20.472C179.557 20.6267 179.736 20.848 179.864 21.136C179.997 21.4187 180.064 21.76 180.064 22.16C180.064 22.5547 179.997 22.896 179.864 23.184C179.736 23.472 179.557 23.6933 179.328 23.848C179.098 24.0027 178.829 24.08 178.52 24.08C178.189 24.08 177.885 24.0027 177.608 23.848C177.33 23.6933 177.109 23.472 176.944 23.184C176.778 22.896 176.696 22.5547 176.696 22.16ZM177.344 22.16C177.344 22.4427 177.4 22.6827 177.512 22.88C177.629 23.0773 177.784 23.2267 177.976 23.328C178.168 23.4293 178.376 23.48 178.6 23.48C178.786 23.48 178.97 23.4293 179.152 23.328C179.333 23.2267 179.482 23.0773 179.6 22.88C179.717 22.6827 179.776 22.4427 179.776 22.16C179.776 21.8773 179.717 21.6373 179.6 21.44C179.482 21.2427 179.333 21.0933 179.152 20.992C178.97 20.8907 178.786 20.84 178.6 20.84C178.376 20.84 178.168 20.8907 177.976 20.992C177.784 21.0933 177.629 21.2427 177.512 21.44C177.4 21.6373 177.344 21.8773 177.344 22.16ZM182.066 22.32V21.776H184.522C184.501 21.584 184.447 21.416 184.362 21.272C184.282 21.1227 184.167 21.008 184.018 20.928C183.874 20.8427 183.695 20.8 183.482 20.8C183.269 20.8 183.074 20.8453 182.898 20.936C182.722 21.0267 182.581 21.1573 182.474 21.328C182.373 21.4933 182.322 21.6907 182.322 21.92L182.306 22.16C182.306 22.4427 182.354 22.6827 182.45 22.88C182.546 23.0773 182.682 23.2267 182.858 23.328C183.034 23.4293 183.242 23.48 183.482 23.48C183.663 23.48 183.823 23.4533 183.962 23.4C184.106 23.3413 184.234 23.264 184.346 23.168C184.458 23.0667 184.554 22.9493 184.634 22.816L185.154 23.144C185.031 23.3307 184.895 23.496 184.746 23.64C184.597 23.7787 184.415 23.888 184.202 23.968C183.989 24.0427 183.722 24.08 183.402 24.08C183.071 24.08 182.773 23.9973 182.506 23.832C182.245 23.6667 182.037 23.44 181.882 23.152C181.733 22.8587 181.658 22.528 181.658 22.16C181.658 22.0907 181.661 22.024 181.666 21.96C181.671 21.896 181.679 21.832 181.69 21.768C181.743 21.464 181.85 21.1973 182.01 20.968C182.17 20.7387 182.375 20.56 182.626 20.432C182.882 20.304 183.167 20.24 183.482 20.24C183.829 20.24 184.133 20.3173 184.394 20.472C184.655 20.6267 184.858 20.8453 185.002 21.128C185.146 21.4053 185.218 21.7387 185.218 22.128C185.218 22.16 185.218 22.192 185.218 22.224C185.218 22.256 185.215 22.288 185.21 22.32H182.066ZM184.762 18.48L183.322 19.68L182.962 19.44L184.162 18.16L184.762 18.48ZM186.655 23.68C186.655 23.5573 186.698 23.4533 186.783 23.368C186.874 23.2827 186.978 23.24 187.095 23.24C187.218 23.24 187.322 23.2827 187.407 23.368C187.493 23.4533 187.535 23.5573 187.535 23.68C187.535 23.7973 187.493 23.9013 187.407 23.992C187.322 24.0773 187.218 24.12 187.095 24.12C186.978 24.12 186.874 24.0773 186.783 23.992C186.698 23.9013 186.655 23.7973 186.655 23.68ZM190.956 24.832C191.015 24.9227 191.1 24.992 191.212 25.04C191.319 25.0933 191.444 25.12 191.588 25.12C191.711 25.12 191.831 25.064 191.948 24.952C192.071 24.8453 192.132 24.6613 192.132 24.4V18.4H192.772V24.48C192.772 24.6987 192.743 24.888 192.684 25.048C192.631 25.208 192.551 25.3413 192.444 25.448C192.338 25.5547 192.207 25.632 192.052 25.68C191.903 25.7333 191.735 25.76 191.548 25.76C191.41 25.76 191.276 25.736 191.148 25.688C191.015 25.6453 190.903 25.592 190.812 25.528C190.716 25.4693 190.647 25.4133 190.604 25.36L190.956 24.832ZM194.694 18.4H195.454L194.654 20.24H194.214L194.694 18.4ZM196.508 22.864C196.508 23.0027 196.54 23.1227 196.604 23.224C196.674 23.3253 196.767 23.4027 196.884 23.456C197.007 23.504 197.146 23.528 197.3 23.528C197.498 23.528 197.674 23.488 197.828 23.408C197.988 23.328 198.114 23.216 198.204 23.072C198.3 22.9227 198.348 22.752 198.348 22.56L198.476 23.04C198.476 23.2747 198.404 23.4693 198.26 23.624C198.122 23.7787 197.948 23.8933 197.74 23.968C197.538 24.0427 197.335 24.08 197.132 24.08C196.908 24.08 196.698 24.0347 196.5 23.944C196.308 23.848 196.154 23.712 196.036 23.536C195.919 23.36 195.86 23.1467 195.86 22.896C195.86 22.5387 195.986 22.2533 196.236 22.04C196.492 21.8213 196.847 21.712 197.3 21.712C197.567 21.712 197.788 21.744 197.964 21.808C198.146 21.8667 198.29 21.936 198.396 22.016C198.503 22.0907 198.575 22.152 198.612 22.2V22.576C198.426 22.448 198.234 22.3573 198.036 22.304C197.839 22.2453 197.628 22.216 197.404 22.216C197.196 22.216 197.026 22.2427 196.892 22.296C196.764 22.3493 196.668 22.424 196.604 22.52C196.54 22.616 196.508 22.7307 196.508 22.864ZM196.412 21.168L196.1 20.696C196.239 20.5947 196.428 20.4933 196.668 20.392C196.914 20.2907 197.207 20.24 197.548 20.24C197.836 20.24 198.087 20.2853 198.3 20.376C198.519 20.4613 198.687 20.5867 198.804 20.752C198.927 20.9173 198.988 21.12 198.988 21.36V24H198.348V21.448C198.348 21.32 198.327 21.216 198.284 21.136C198.242 21.0507 198.18 20.984 198.1 20.936C198.026 20.888 197.938 20.8533 197.836 20.832C197.735 20.8107 197.628 20.8 197.516 20.8C197.335 20.8 197.17 20.8213 197.02 20.864C196.876 20.9067 196.754 20.9573 196.652 21.016C196.551 21.0747 196.471 21.1253 196.412 21.168ZM200.472 18.8C200.472 18.6773 200.515 18.5733 200.6 18.488C200.691 18.4027 200.795 18.36 200.912 18.36C201.035 18.36 201.139 18.4027 201.224 18.488C201.309 18.5733 201.352 18.6773 201.352 18.8C201.352 18.9173 201.309 19.0213 201.224 19.112C201.139 19.1973 201.035 19.24 200.912 19.24C200.795 19.24 200.691 19.1973 200.6 19.112C200.515 19.0213 200.472 18.9173 200.472 18.8ZM200.592 20.32H201.232V24H200.592V20.32ZM206.388 20.32V24H205.748V20.32H206.388ZM207.5 21.024C207.415 20.96 207.338 20.9147 207.268 20.888C207.199 20.856 207.111 20.84 207.004 20.84C206.844 20.84 206.719 20.88 206.628 20.96C206.538 21.04 206.474 21.1493 206.436 21.288C206.404 21.4267 206.388 21.584 206.388 21.76H206.1C206.1 21.4667 206.151 21.208 206.252 20.984C206.359 20.7547 206.495 20.5733 206.66 20.44C206.826 20.3067 206.994 20.24 207.164 20.24C207.298 20.24 207.42 20.2587 207.532 20.296C207.65 20.328 207.756 20.3947 207.852 20.496L207.5 21.024ZM210.197 24.08C209.856 24.08 209.552 24 209.285 23.84C209.024 23.6747 208.819 23.448 208.669 23.16C208.525 22.872 208.453 22.5387 208.453 22.16C208.453 21.776 208.528 21.44 208.677 21.152C208.832 20.864 209.045 20.64 209.317 20.48C209.595 20.32 209.915 20.24 210.277 20.24C210.64 20.24 210.949 20.3173 211.205 20.472C211.467 20.6213 211.667 20.8373 211.805 21.12C211.944 21.4027 212.013 21.7387 212.013 22.128C212.013 22.1653 212.011 22.2053 212.005 22.248C212.005 22.2853 212.005 22.3093 212.005 22.32H208.861V21.776H211.501L211.245 22.144C211.261 22.1173 211.277 22.0773 211.293 22.024C211.309 21.9653 211.317 21.9173 211.317 21.88C211.317 21.6613 211.272 21.472 211.181 21.312C211.096 21.152 210.976 21.0267 210.821 20.936C210.667 20.8453 210.485 20.8 210.277 20.8C210.032 20.8 209.821 20.8533 209.645 20.96C209.475 21.0613 209.341 21.2107 209.245 21.408C209.155 21.6 209.107 21.8373 209.101 22.12C209.101 22.408 209.147 22.6533 209.237 22.856C209.328 23.0587 209.461 23.2133 209.637 23.32C209.813 23.4267 210.027 23.48 210.277 23.48C210.528 23.48 210.749 23.4267 210.941 23.32C211.133 23.208 211.296 23.04 211.429 22.816L211.949 23.144C211.757 23.4533 211.515 23.688 211.221 23.848C210.933 24.0027 210.592 24.08 210.197 24.08ZM212.731 20.32H214.571V20.92H212.731V20.32ZM213.331 19.04H213.971V24H213.331V19.04ZM216.252 20.32V24H215.612V20.32H216.252ZM217.364 21.024C217.279 20.96 217.202 20.9147 217.132 20.888C217.063 20.856 216.975 20.84 216.868 20.84C216.708 20.84 216.583 20.88 216.492 20.96C216.402 21.04 216.338 21.1493 216.3 21.288C216.268 21.4267 216.252 21.584 216.252 21.76H215.964C215.964 21.4667 216.015 21.208 216.116 20.984C216.223 20.7547 216.359 20.5733 216.524 20.44C216.69 20.3067 216.858 20.24 217.028 20.24C217.162 20.24 217.284 20.2587 217.396 20.296C217.514 20.328 217.62 20.3947 217.716 20.496L217.364 21.024ZM218.317 22.16C218.317 21.7867 218.4 21.456 218.565 21.168C218.736 20.88 218.965 20.6533 219.253 20.488C219.541 20.3227 219.864 20.24 220.221 20.24C220.584 20.24 220.907 20.3227 221.189 20.488C221.477 20.6533 221.704 20.88 221.869 21.168C222.04 21.456 222.125 21.7867 222.125 22.16C222.125 22.528 222.04 22.8587 221.869 23.152C221.704 23.44 221.477 23.6667 221.189 23.832C220.907 23.9973 220.584 24.08 220.221 24.08C219.864 24.08 219.541 23.9973 219.253 23.832C218.965 23.6667 218.736 23.44 218.565 23.152C218.4 22.8587 218.317 22.528 218.317 22.16ZM218.965 22.16C218.965 22.416 219.019 22.6427 219.125 22.84C219.237 23.0373 219.387 23.1947 219.573 23.312C219.765 23.424 219.981 23.48 220.221 23.48C220.461 23.48 220.675 23.424 220.861 23.312C221.053 23.1947 221.203 23.0373 221.309 22.84C221.421 22.6427 221.477 22.416 221.477 22.16C221.477 21.904 221.421 21.6773 221.309 21.48C221.203 21.2773 221.053 21.12 220.861 21.008C220.675 20.896 220.461 20.84 220.221 20.84C219.981 20.84 219.765 20.896 219.573 21.008C219.387 21.12 219.237 21.2773 219.125 21.48C219.019 21.6773 218.965 21.904 218.965 22.16ZM224.045 22.56C224.045 22.8533 224.111 23.08 224.245 23.24C224.378 23.4 224.573 23.48 224.829 23.48C225.015 23.48 225.178 23.4427 225.317 23.368C225.461 23.288 225.57 23.1787 225.645 23.04C225.725 22.9013 225.765 22.7413 225.765 22.56V20.32H226.405V24H225.765V23.424C225.642 23.6427 225.49 23.808 225.309 23.92C225.127 24.0267 224.914 24.08 224.669 24.08C224.285 24.08 223.978 23.9493 223.749 23.688C223.519 23.4267 223.405 23.0773 223.405 22.64V20.32H224.045V22.56ZM227.408 20.32H228.128L229.168 22.92L230.208 20.32H230.928L229.168 24.28L227.408 20.32ZM231.902 22.32V21.776H234.358C234.337 21.584 234.283 21.416 234.198 21.272C234.118 21.1227 234.003 21.008 233.854 20.928C233.71 20.8427 233.531 20.8 233.318 20.8C233.105 20.8 232.91 20.8453 232.734 20.936C232.558 21.0267 232.417 21.1573 232.31 21.328C232.209 21.4933 232.158 21.6907 232.158 21.92L232.142 22.16C232.142 22.4427 232.19 22.6827 232.286 22.88C232.382 23.0773 232.518 23.2267 232.694 23.328C232.87 23.4293 233.078 23.48 233.318 23.48C233.499 23.48 233.659 23.4533 233.798 23.4C233.942 23.3413 234.07 23.264 234.182 23.168C234.294 23.0667 234.39 22.9493 234.47 22.816L234.99 23.144C234.867 23.3307 234.731 23.496 234.582 23.64C234.433 23.7787 234.251 23.888 234.038 23.968C233.825 24.0427 233.558 24.08 233.238 24.08C232.907 24.08 232.609 23.9973 232.342 23.832C232.081 23.6667 231.873 23.44 231.718 23.152C231.569 22.8587 231.494 22.528 231.494 22.16C231.494 22.0907 231.497 22.024 231.502 21.96C231.507 21.896 231.515 21.832 231.526 21.768C231.579 21.464 231.686 21.1973 231.846 20.968C232.006 20.7387 232.211 20.56 232.462 20.432C232.718 20.304 233.003 20.24 233.318 20.24C233.665 20.24 233.969 20.3173 234.23 20.472C234.491 20.6267 234.694 20.8453 234.838 21.128C234.982 21.4053 235.054 21.7387 235.054 22.128C235.054 22.16 235.054 22.192 235.054 22.224C235.054 22.256 235.051 22.288 235.046 22.32H231.902ZM234.598 18.48L233.158 19.68L232.798 19.44L233.998 18.16L234.598 18.48ZM239.13 17.76H239.77V24H239.13V17.76ZM241.661 22.864C241.661 23.0027 241.693 23.1227 241.757 23.224C241.827 23.3253 241.92 23.4027 242.037 23.456C242.16 23.504 242.299 23.528 242.453 23.528C242.651 23.528 242.827 23.488 242.981 23.408C243.141 23.328 243.267 23.216 243.357 23.072C243.453 22.9227 243.501 22.752 243.501 22.56L243.629 23.04C243.629 23.2747 243.557 23.4693 243.413 23.624C243.275 23.7787 243.101 23.8933 242.893 23.968C242.691 24.0427 242.488 24.08 242.285 24.08C242.061 24.08 241.851 24.0347 241.653 23.944C241.461 23.848 241.307 23.712 241.189 23.536C241.072 23.36 241.013 23.1467 241.013 22.896C241.013 22.5387 241.139 22.2533 241.389 22.04C241.645 21.8213 242 21.712 242.453 21.712C242.72 21.712 242.941 21.744 243.117 21.808C243.299 21.8667 243.443 21.936 243.549 22.016C243.656 22.0907 243.728 22.152 243.765 22.2V22.576C243.579 22.448 243.387 22.3573 243.189 22.304C242.992 22.2453 242.781 22.216 242.557 22.216C242.349 22.216 242.179 22.2427 242.045 22.296C241.917 22.3493 241.821 22.424 241.757 22.52C241.693 22.616 241.661 22.7307 241.661 22.864ZM241.565 21.168L241.253 20.696C241.392 20.5947 241.581 20.4933 241.821 20.392C242.067 20.2907 242.36 20.24 242.701 20.24C242.989 20.24 243.24 20.2853 243.453 20.376C243.672 20.4613 243.84 20.5867 243.957 20.752C244.08 20.9173 244.141 21.12 244.141 21.36V24H243.501V21.448C243.501 21.32 243.48 21.216 243.437 21.136C243.395 21.0507 243.333 20.984 243.253 20.936C243.179 20.888 243.091 20.8533 242.989 20.832C242.888 20.8107 242.781 20.8 242.669 20.8C242.488 20.8 242.323 20.8213 242.173 20.864C242.029 20.9067 241.907 20.9573 241.805 21.016C241.704 21.0747 241.624 21.1253 241.565 21.168ZM248.575 22.872C248.65 22.984 248.735 23.088 248.831 23.184C248.927 23.28 249.037 23.3573 249.159 23.416C249.287 23.4693 249.426 23.496 249.575 23.496C249.757 23.496 249.898 23.456 249.999 23.376C250.106 23.2907 250.159 23.176 250.159 23.032C250.159 22.904 250.117 22.7973 250.031 22.712C249.951 22.6213 249.847 22.5467 249.719 22.488C249.591 22.424 249.455 22.3653 249.311 22.312C249.151 22.248 248.989 22.1733 248.823 22.088C248.663 21.9973 248.527 21.8827 248.415 21.744C248.309 21.6 248.255 21.4213 248.255 21.208C248.255 20.9893 248.311 20.808 248.423 20.664C248.541 20.52 248.69 20.4133 248.871 20.344C249.058 20.2747 249.25 20.24 249.447 20.24C249.645 20.24 249.829 20.272 249.999 20.336C250.175 20.4 250.33 20.4853 250.463 20.592C250.597 20.6987 250.701 20.8213 250.775 20.96L250.263 21.288C250.162 21.1493 250.034 21.0347 249.879 20.944C249.73 20.8533 249.559 20.808 249.367 20.808C249.234 20.808 249.119 20.8373 249.023 20.896C248.927 20.9547 248.879 21.0453 248.879 21.168C248.879 21.264 248.917 21.3493 248.991 21.424C249.066 21.4987 249.162 21.5653 249.279 21.624C249.397 21.6827 249.519 21.7387 249.647 21.792C249.861 21.8773 250.055 21.9707 250.231 22.072C250.407 22.168 250.546 22.2853 250.647 22.424C250.754 22.5627 250.807 22.7413 250.807 22.96C250.807 23.28 250.69 23.5467 250.455 23.76C250.226 23.9733 249.922 24.08 249.543 24.08C249.298 24.08 249.077 24.0373 248.879 23.952C248.682 23.8613 248.514 23.7467 248.375 23.608C248.242 23.4693 248.141 23.328 248.071 23.184L248.575 22.872ZM252.338 22.864C252.338 23.0027 252.37 23.1227 252.434 23.224C252.503 23.3253 252.597 23.4027 252.714 23.456C252.837 23.504 252.975 23.528 253.13 23.528C253.327 23.528 253.503 23.488 253.658 23.408C253.818 23.328 253.943 23.216 254.034 23.072C254.13 22.9227 254.178 22.752 254.178 22.56L254.306 23.04C254.306 23.2747 254.234 23.4693 254.09 23.624C253.951 23.7787 253.778 23.8933 253.57 23.968C253.367 24.0427 253.165 24.08 252.962 24.08C252.738 24.08 252.527 24.0347 252.33 23.944C252.138 23.848 251.983 23.712 251.866 23.536C251.749 23.36 251.69 23.1467 251.69 22.896C251.69 22.5387 251.815 22.2533 252.066 22.04C252.322 21.8213 252.677 21.712 253.13 21.712C253.397 21.712 253.618 21.744 253.794 21.808C253.975 21.8667 254.119 21.936 254.226 22.016C254.333 22.0907 254.405 22.152 254.442 22.2V22.576C254.255 22.448 254.063 22.3573 253.866 22.304C253.669 22.2453 253.458 22.216 253.234 22.216C253.026 22.216 252.855 22.2427 252.722 22.296C252.594 22.3493 252.498 22.424 252.434 22.52C252.37 22.616 252.338 22.7307 252.338 22.864ZM252.242 21.168L251.93 20.696C252.069 20.5947 252.258 20.4933 252.498 20.392C252.743 20.2907 253.037 20.24 253.378 20.24C253.666 20.24 253.917 20.2853 254.13 20.376C254.349 20.4613 254.517 20.5867 254.634 20.752C254.757 20.9173 254.818 21.12 254.818 21.36V24H254.178V21.448C254.178 21.32 254.157 21.216 254.114 21.136C254.071 21.0507 254.01 20.984 253.93 20.936C253.855 20.888 253.767 20.8533 253.666 20.832C253.565 20.8107 253.458 20.8 253.346 20.8C253.165 20.8 252.999 20.8213 252.85 20.864C252.706 20.9067 252.583 20.9573 252.482 21.016C252.381 21.0747 252.301 21.1253 252.242 21.168ZM258.662 21.76C258.662 21.456 258.595 21.2267 258.462 21.072C258.328 20.9173 258.134 20.84 257.878 20.84C257.691 20.84 257.526 20.88 257.382 20.96C257.243 21.0347 257.134 21.1413 257.054 21.28C256.979 21.4187 256.942 21.5787 256.942 21.76V24H256.302V20.32H256.942V20.896C257.064 20.672 257.216 20.5067 257.398 20.4C257.584 20.2933 257.798 20.24 258.038 20.24C258.427 20.24 258.734 20.3707 258.958 20.632C259.187 20.888 259.302 21.2373 259.302 21.68V24H258.662V21.76ZM260.345 20.32H262.185V20.92H260.345V20.32ZM260.945 19.04H261.585V24H260.945V19.04ZM263.315 22.32V21.776H265.771C265.749 21.584 265.696 21.416 265.611 21.272C265.531 21.1227 265.416 21.008 265.267 20.928C265.123 20.8427 264.944 20.8 264.731 20.8C264.517 20.8 264.323 20.8453 264.147 20.936C263.971 21.0267 263.829 21.1573 263.723 21.328C263.621 21.4933 263.571 21.6907 263.571 21.92L263.555 22.16C263.555 22.4427 263.603 22.6827 263.699 22.88C263.795 23.0773 263.931 23.2267 264.107 23.328C264.283 23.4293 264.491 23.48 264.731 23.48C264.912 23.48 265.072 23.4533 265.211 23.4C265.355 23.3413 265.483 23.264 265.595 23.168C265.707 23.0667 265.803 22.9493 265.883 22.816L266.403 23.144C266.28 23.3307 266.144 23.496 265.995 23.64C265.845 23.7787 265.664 23.888 265.451 23.968C265.237 24.0427 264.971 24.08 264.651 24.08C264.32 24.08 264.021 23.9973 263.755 23.832C263.493 23.6667 263.285 23.44 263.131 23.152C262.981 22.8587 262.907 22.528 262.907 22.16C262.907 22.0907 262.909 22.024 262.915 21.96C262.92 21.896 262.928 21.832 262.939 21.768C262.992 21.464 263.099 21.1973 263.259 20.968C263.419 20.7387 263.624 20.56 263.875 20.432C264.131 20.304 264.416 20.24 264.731 20.24C265.077 20.24 265.381 20.3173 265.643 20.472C265.904 20.6267 266.107 20.8453 266.251 21.128C266.395 21.4053 266.467 21.7387 266.467 22.128C266.467 22.16 266.467 22.192 266.467 22.224C266.467 22.256 266.464 22.288 266.459 22.32H263.315ZM266.011 18.48L264.571 19.68L264.211 19.44L265.411 18.16L266.011 18.48ZM130.352 36.24H131C131 36.416 131.048 36.5787 131.144 36.728C131.24 36.8827 131.376 37.0053 131.552 37.096C131.728 37.192 131.936 37.24 132.176 37.24C132.363 37.24 132.547 37.1947 132.728 37.104C132.909 37.0133 133.059 36.8693 133.176 36.672C133.299 36.48 133.36 36.2293 133.36 35.92V32.32H134V35.92C134 36.3413 133.912 36.6933 133.736 36.976C133.56 37.264 133.333 37.48 133.056 37.624C132.779 37.768 132.485 37.84 132.176 37.84C131.819 37.84 131.501 37.7733 131.224 37.64C130.952 37.5067 130.739 37.3173 130.584 37.072C130.429 36.832 130.352 36.5547 130.352 36.24ZM130.28 34.16C130.28 33.76 130.363 33.4187 130.528 33.136C130.693 32.848 130.915 32.6267 131.192 32.472C131.469 32.3173 131.773 32.24 132.104 32.24C132.413 32.24 132.683 32.3173 132.912 32.472C133.141 32.6267 133.32 32.848 133.448 33.136C133.581 33.4187 133.648 33.76 133.648 34.16C133.648 34.5547 133.581 34.896 133.448 35.184C133.32 35.472 133.141 35.6933 132.912 35.848C132.683 36.0027 132.413 36.08 132.104 36.08C131.773 36.08 131.469 36.0027 131.192 35.848C130.915 35.6933 130.693 35.472 130.528 35.184C130.363 34.896 130.28 34.5547 130.28 34.16ZM130.928 34.16C130.928 34.4427 130.984 34.6827 131.096 34.88C131.213 35.0773 131.368 35.2267 131.56 35.328C131.752 35.4293 131.96 35.48 132.184 35.48C132.371 35.48 132.555 35.4293 132.736 35.328C132.917 35.2267 133.067 35.0773 133.184 34.88C133.301 34.6827 133.36 34.4427 133.36 34.16C133.36 33.9467 133.325 33.76 133.256 33.6C133.187 33.4347 133.093 33.296 132.976 33.184C132.864 33.072 132.739 32.9867 132.6 32.928C132.461 32.8693 132.323 32.84 132.184 32.84C131.96 32.84 131.752 32.8907 131.56 32.992C131.368 33.0933 131.213 33.2427 131.096 33.44C130.984 33.6373 130.928 33.8773 130.928 34.16ZM136.203 32.32V36H135.563V32.32H136.203ZM137.315 33.024C137.229 32.96 137.152 32.9147 137.083 32.888C137.013 32.856 136.925 32.84 136.819 32.84C136.659 32.84 136.533 32.88 136.443 32.96C136.352 33.04 136.288 33.1493 136.251 33.288C136.219 33.4267 136.203 33.584 136.203 33.76H135.915C135.915 33.4667 135.965 33.208 136.067 32.984C136.173 32.7547 136.309 32.5733 136.475 32.44C136.64 32.3067 136.808 32.24 136.979 32.24C137.112 32.24 137.235 32.2587 137.347 32.296C137.464 32.328 137.571 32.3947 137.667 32.496L137.315 33.024ZM138.993 34.92C138.993 35.048 139.022 35.1573 139.081 35.248C139.139 35.3333 139.225 35.4 139.337 35.448C139.454 35.4907 139.598 35.512 139.769 35.512C139.982 35.512 140.171 35.48 140.337 35.416C140.502 35.352 140.63 35.2507 140.721 35.112C140.817 34.9733 140.865 34.7893 140.865 34.56L140.993 34.96C140.993 35.1947 140.929 35.3973 140.801 35.568C140.678 35.7333 140.513 35.8613 140.305 35.952C140.097 36.0373 139.865 36.08 139.609 36.08C139.358 36.08 139.137 36.0373 138.945 35.952C138.753 35.8613 138.603 35.736 138.497 35.576C138.395 35.416 138.345 35.224 138.345 35C138.345 34.712 138.414 34.4747 138.553 34.288C138.691 34.096 138.878 33.952 139.113 33.856C139.353 33.76 139.619 33.712 139.913 33.712C140.147 33.712 140.347 33.744 140.513 33.808C140.683 33.8667 140.819 33.936 140.921 34.016C141.022 34.0907 141.091 34.152 141.129 34.2V34.576C140.947 34.448 140.763 34.3547 140.577 34.296C140.39 34.232 140.179 34.2 139.945 34.2C139.731 34.2 139.553 34.2293 139.409 34.288C139.27 34.3467 139.166 34.4293 139.097 34.536C139.027 34.6427 138.993 34.7707 138.993 34.92ZM138.993 33.184L138.681 32.696C138.819 32.5947 139.006 32.4933 139.241 32.392C139.475 32.2907 139.758 32.24 140.089 32.24C140.371 32.24 140.617 32.2853 140.825 32.376C141.038 32.4613 141.203 32.5867 141.321 32.752C141.443 32.9173 141.505 33.12 141.505 33.36V36H140.865V33.36C140.865 33.1733 140.785 33.0347 140.625 32.944C140.47 32.848 140.291 32.8 140.089 32.8C139.913 32.8 139.753 32.824 139.609 32.872C139.465 32.9147 139.339 32.968 139.233 33.032C139.131 33.0907 139.051 33.1413 138.993 33.184ZM140.089 31L139.209 31.76L138.809 31.44L140.089 30.32L141.369 31.44L140.969 31.76L140.089 31ZM143.275 34.16C143.275 34.416 143.329 34.6427 143.435 34.84C143.547 35.0373 143.697 35.1947 143.883 35.312C144.075 35.424 144.291 35.48 144.531 35.48C144.729 35.48 144.913 35.4507 145.083 35.392C145.259 35.328 145.411 35.2453 145.539 35.144C145.667 35.0373 145.758 34.9253 145.812 34.808V35.608C145.683 35.7573 145.499 35.8747 145.26 35.96C145.025 36.04 144.782 36.08 144.531 36.08C144.174 36.08 143.851 35.9973 143.563 35.832C143.275 35.6667 143.046 35.44 142.875 35.152C142.71 34.8587 142.627 34.528 142.627 34.16C142.627 33.7867 142.71 33.456 142.875 33.168C143.046 32.88 143.275 32.6533 143.563 32.488C143.851 32.3227 144.174 32.24 144.531 32.24C144.782 32.24 145.025 32.2827 145.26 32.368C145.499 32.448 145.683 32.5627 145.812 32.712V33.512C145.758 33.3893 145.667 33.2773 145.539 33.176C145.411 33.0747 145.259 32.9947 145.083 32.936C144.913 32.872 144.729 32.84 144.531 32.84C144.291 32.84 144.075 32.896 143.883 33.008C143.697 33.12 143.547 33.2773 143.435 33.48C143.329 33.6773 143.275 33.904 143.275 34.16ZM148.632 36.08C148.29 36.08 147.986 36 147.72 35.84C147.458 35.6747 147.253 35.448 147.104 35.16C146.96 34.872 146.888 34.5387 146.888 34.16C146.888 33.776 146.962 33.44 147.112 33.152C147.266 32.864 147.48 32.64 147.752 32.48C148.029 32.32 148.349 32.24 148.712 32.24C149.074 32.24 149.384 32.3173 149.64 32.472C149.901 32.6213 150.101 32.8373 150.24 33.12C150.378 33.4027 150.448 33.7387 150.448 34.128C150.448 34.1653 150.445 34.2053 150.44 34.248C150.44 34.2853 150.44 34.3093 150.44 34.32H147.296V33.776H149.936L149.68 34.144C149.696 34.1173 149.712 34.0773 149.728 34.024C149.744 33.9653 149.752 33.9173 149.752 33.88C149.752 33.6613 149.706 33.472 149.616 33.312C149.53 33.152 149.41 33.0267 149.256 32.936C149.101 32.8453 148.92 32.8 148.712 32.8C148.466 32.8 148.256 32.8533 148.08 32.96C147.909 33.0613 147.776 33.2107 147.68 33.408C147.589 33.6 147.541 33.8373 147.536 34.12C147.536 34.408 147.581 34.6533 147.672 34.856C147.762 35.0587 147.896 35.2133 148.072 35.32C148.248 35.4267 148.461 35.48 148.712 35.48C148.962 35.48 149.184 35.4267 149.376 35.32C149.568 35.208 149.73 35.04 149.864 34.816L150.384 35.144C150.192 35.4533 149.949 35.688 149.656 35.848C149.368 36.0027 149.026 36.08 148.632 36.08ZM154.811 34.92C154.811 35.048 154.841 35.1573 154.899 35.248C154.958 35.3333 155.043 35.4 155.155 35.448C155.273 35.4907 155.417 35.512 155.587 35.512C155.801 35.512 155.99 35.48 156.155 35.416C156.321 35.352 156.449 35.2507 156.539 35.112C156.635 34.9733 156.683 34.7893 156.683 34.56L156.811 34.96C156.811 35.1947 156.747 35.3973 156.619 35.568C156.497 35.7333 156.331 35.8613 156.123 35.952C155.915 36.0373 155.683 36.08 155.427 36.08C155.177 36.08 154.955 36.0373 154.763 35.952C154.571 35.8613 154.422 35.736 154.315 35.576C154.214 35.416 154.163 35.224 154.163 35C154.163 34.712 154.233 34.4747 154.371 34.288C154.51 34.096 154.697 33.952 154.931 33.856C155.171 33.76 155.438 33.712 155.731 33.712C155.966 33.712 156.166 33.744 156.331 33.808C156.502 33.8667 156.638 33.936 156.739 34.016C156.841 34.0907 156.91 34.152 156.947 34.2V34.576C156.766 34.448 156.582 34.3547 156.395 34.296C156.209 34.232 155.998 34.2 155.763 34.2C155.55 34.2 155.371 34.2293 155.227 34.288C155.089 34.3467 154.985 34.4293 154.915 34.536C154.846 34.6427 154.811 34.7707 154.811 34.92ZM154.811 33.184L154.499 32.696C154.638 32.5947 154.825 32.4933 155.059 32.392C155.294 32.2907 155.577 32.24 155.907 32.24C156.19 32.24 156.435 32.2853 156.643 32.376C156.857 32.4613 157.022 32.5867 157.139 32.752C157.262 32.9173 157.323 33.12 157.323 33.36V36H156.683V33.36C156.683 33.1733 156.603 33.0347 156.443 32.944C156.289 32.848 156.11 32.8 155.907 32.8C155.731 32.8 155.571 32.824 155.427 32.872C155.283 32.9147 155.158 32.968 155.051 33.032C154.95 33.0907 154.87 33.1413 154.811 33.184ZM154.627 30.56L155.227 30.24L156.427 31.52L156.067 31.76L154.627 30.56ZM161.853 34.304C161.981 34.528 162.114 34.7253 162.253 34.896C162.397 35.0667 162.557 35.2 162.733 35.296C162.909 35.392 163.109 35.44 163.333 35.44C163.631 35.44 163.871 35.3573 164.053 35.192C164.234 35.0267 164.325 34.816 164.325 34.56C164.325 34.3093 164.266 34.1093 164.149 33.96C164.031 33.8107 163.877 33.6907 163.685 33.6C163.498 33.504 163.298 33.4187 163.085 33.344C162.946 33.296 162.791 33.2347 162.621 33.16C162.45 33.08 162.287 32.9813 162.133 32.864C161.978 32.7413 161.85 32.592 161.749 32.416C161.653 32.24 161.605 32.024 161.605 31.768C161.605 31.4907 161.674 31.2427 161.813 31.024C161.951 30.8053 162.143 30.6347 162.389 30.512C162.634 30.384 162.914 30.32 163.229 30.32C163.533 30.32 163.797 30.3787 164.021 30.496C164.25 30.608 164.445 30.7547 164.605 30.936C164.765 31.112 164.89 31.2987 164.981 31.496L164.397 31.832C164.327 31.6933 164.239 31.5573 164.133 31.424C164.026 31.2907 163.895 31.1813 163.741 31.096C163.591 31.0107 163.407 30.968 163.189 30.968C162.885 30.968 162.663 31.0427 162.525 31.192C162.386 31.336 162.317 31.4987 162.317 31.68C162.317 31.8347 162.357 31.9787 162.437 32.112C162.517 32.24 162.65 32.3627 162.837 32.48C163.029 32.592 163.287 32.704 163.613 32.816C163.762 32.8693 163.919 32.9387 164.085 33.024C164.25 33.1093 164.402 33.2187 164.541 33.352C164.685 33.48 164.802 33.6373 164.893 33.824C164.983 34.0053 165.029 34.224 165.029 34.48C165.029 34.7253 164.981 34.9467 164.885 35.144C164.794 35.3413 164.666 35.5093 164.501 35.648C164.341 35.7867 164.157 35.8933 163.949 35.968C163.746 36.0427 163.533 36.08 163.309 36.08C163.005 36.08 162.722 36.016 162.461 35.888C162.205 35.7547 161.978 35.5813 161.781 35.368C161.589 35.1493 161.431 34.9173 161.309 34.672L161.853 34.304ZM166.067 34.16C166.067 33.7867 166.15 33.456 166.315 33.168C166.486 32.88 166.715 32.6533 167.003 32.488C167.291 32.3227 167.614 32.24 167.971 32.24C168.334 32.24 168.657 32.3227 168.939 32.488C169.227 32.6533 169.454 32.88 169.619 33.168C169.79 33.456 169.875 33.7867 169.875 34.16C169.875 34.528 169.79 34.8587 169.619 35.152C169.454 35.44 169.227 35.6667 168.939 35.832C168.657 35.9973 168.334 36.08 167.971 36.08C167.614 36.08 167.291 35.9973 167.003 35.832C166.715 35.6667 166.486 35.44 166.315 35.152C166.15 34.8587 166.067 34.528 166.067 34.16ZM166.715 34.16C166.715 34.416 166.769 34.6427 166.875 34.84C166.987 35.0373 167.137 35.1947 167.323 35.312C167.515 35.424 167.731 35.48 167.971 35.48C168.211 35.48 168.425 35.424 168.611 35.312C168.803 35.1947 168.953 35.0373 169.059 34.84C169.171 34.6427 169.227 34.416 169.227 34.16C169.227 33.904 169.171 33.6773 169.059 33.48C168.953 33.2773 168.803 33.12 168.611 33.008C168.425 32.896 168.211 32.84 167.971 32.84C167.731 32.84 167.515 32.896 167.323 33.008C167.137 33.12 166.987 33.2773 166.875 33.48C166.769 33.6773 166.715 33.904 166.715 34.16ZM171.755 37.76H171.115V32.32H171.755V37.76ZM174.835 34.16C174.835 34.5547 174.752 34.896 174.587 35.184C174.421 35.472 174.2 35.6933 173.923 35.848C173.651 36.0027 173.347 36.08 173.011 36.08C172.707 36.08 172.437 36.0027 172.203 35.848C171.973 35.6933 171.792 35.472 171.659 35.184C171.531 34.896 171.467 34.5547 171.467 34.16C171.467 33.76 171.531 33.4187 171.659 33.136C171.792 32.848 171.973 32.6267 172.203 32.472C172.437 32.3173 172.707 32.24 173.011 32.24C173.347 32.24 173.651 32.3173 173.923 32.472C174.2 32.6267 174.421 32.848 174.587 33.136C174.752 33.4187 174.835 33.76 174.835 34.16ZM174.187 34.16C174.187 33.8773 174.128 33.6373 174.011 33.44C173.899 33.2427 173.747 33.0933 173.555 32.992C173.368 32.8907 173.16 32.84 172.931 32.84C172.744 32.84 172.56 32.8907 172.379 32.992C172.197 33.0933 172.048 33.2427 171.931 33.44C171.813 33.6373 171.755 33.8773 171.755 34.16C171.755 34.4427 171.813 34.6827 171.931 34.88C172.048 35.0773 172.197 35.2267 172.379 35.328C172.56 35.4293 172.744 35.48 172.931 35.48C173.16 35.48 173.368 35.4293 173.555 35.328C173.747 35.2267 173.899 35.0773 174.011 34.88C174.128 34.6827 174.187 34.4427 174.187 34.16ZM176.757 29.76V36H176.117V29.76H176.757ZM178.477 33.76C178.477 33.456 178.411 33.2267 178.277 33.072C178.149 32.9173 177.955 32.84 177.693 32.84C177.507 32.84 177.341 32.88 177.197 32.96C177.059 33.04 176.949 33.1493 176.869 33.288C176.795 33.4267 176.757 33.584 176.757 33.76H176.549C176.549 33.4667 176.605 33.208 176.717 32.984C176.829 32.7547 176.981 32.5733 177.173 32.44C177.371 32.3067 177.597 32.24 177.853 32.24C178.109 32.24 178.331 32.2933 178.517 32.4C178.709 32.5067 178.856 32.6667 178.957 32.88C179.064 33.0933 179.117 33.36 179.117 33.68V36H178.477V33.76ZM180.72 30.8C180.72 30.6773 180.763 30.5733 180.848 30.488C180.939 30.4027 181.043 30.36 181.16 30.36C181.283 30.36 181.387 30.4027 181.472 30.488C181.558 30.5733 181.6 30.6773 181.6 30.8C181.6 30.9173 181.558 31.0213 181.472 31.112C181.387 31.1973 181.283 31.24 181.16 31.24C181.043 31.24 180.939 31.1973 180.848 31.112C180.763 31.0213 180.72 30.9173 180.72 30.8ZM180.84 32.32H181.48V36H180.84V32.32ZM184.622 36.08C184.281 36.08 183.977 36 183.71 35.84C183.449 35.6747 183.244 35.448 183.094 35.16C182.95 34.872 182.878 34.5387 182.878 34.16C182.878 33.776 182.953 33.44 183.102 33.152C183.257 32.864 183.47 32.64 183.742 32.48C184.02 32.32 184.34 32.24 184.702 32.24C185.065 32.24 185.374 32.3173 185.63 32.472C185.892 32.6213 186.092 32.8373 186.23 33.12C186.369 33.4027 186.438 33.7387 186.438 34.128C186.438 34.1653 186.436 34.2053 186.43 34.248C186.43 34.2853 186.43 34.3093 186.43 34.32H183.286V33.776H185.926L185.67 34.144C185.686 34.1173 185.702 34.0773 185.718 34.024C185.734 33.9653 185.742 33.9173 185.742 33.88C185.742 33.6613 185.697 33.472 185.606 33.312C185.521 33.152 185.401 33.0267 185.246 32.936C185.092 32.8453 184.91 32.8 184.702 32.8C184.457 32.8 184.246 32.8533 184.07 32.96C183.9 33.0613 183.766 33.2107 183.67 33.408C183.58 33.6 183.532 33.8373 183.526 34.12C183.526 34.408 183.572 34.6533 183.662 34.856C183.753 35.0587 183.886 35.2133 184.062 35.32C184.238 35.4267 184.452 35.48 184.702 35.48C184.953 35.48 185.174 35.4267 185.366 35.32C185.558 35.208 185.721 35.04 185.854 34.816L186.374 35.144C186.182 35.4533 185.94 35.688 185.646 35.848C185.358 36.0027 185.017 36.08 184.622 36.08ZM190.714 30.4H191.514L191.354 34.4H190.874L190.714 30.4ZM190.674 35.68C190.674 35.5573 190.717 35.4533 190.802 35.368C190.893 35.2827 190.997 35.24 191.114 35.24C191.237 35.24 191.341 35.2827 191.426 35.368C191.511 35.4533 191.554 35.5573 191.554 35.68C191.554 35.7973 191.511 35.9013 191.426 35.992C191.341 36.0773 191.237 36.12 191.114 36.12C190.997 36.12 190.893 36.0773 190.802 35.992C190.717 35.9013 190.674 35.7973 190.674 35.68Z" fill="#111111"/>
<path d="M50.16 49L52.808 46.176C52.9307 46.0427 53.0347 45.912 53.12 45.784C53.2107 45.6507 53.2773 45.5173 53.32 45.384C53.368 45.2453 53.392 45.1013 53.392 44.952C53.392 44.8293 53.368 44.7093 53.32 44.592C53.272 44.4747 53.2 44.368 53.104 44.272C53.0133 44.176 52.9013 44.0987 52.768 44.04C52.6347 43.9813 52.4827 43.952 52.312 43.952C52.072 43.952 51.864 44.008 51.688 44.12C51.5173 44.2267 51.3867 44.384 51.296 44.592C51.2053 44.7947 51.16 45.0373 51.16 45.32H50.48C50.48 44.92 50.552 44.5707 50.696 44.272C50.84 43.968 51.048 43.7333 51.32 43.568C51.5973 43.3973 51.928 43.312 52.312 43.312C52.6213 43.312 52.888 43.3653 53.112 43.472C53.336 43.5733 53.52 43.7067 53.664 43.872C53.808 44.032 53.9147 44.2053 53.984 44.392C54.0533 44.5787 54.088 44.7573 54.088 44.928C54.088 45.216 54.0187 45.5013 53.88 45.784C53.7413 46.0667 53.5627 46.32 53.344 46.544L51.56 48.36H54.112V49H50.16ZM56.9787 46.24V45.8C57.16 45.8 57.32 45.776 57.4587 45.728C57.5974 45.6747 57.7147 45.6053 57.8107 45.52C57.9067 45.4293 57.9787 45.3253 58.0267 45.208C58.08 45.0907 58.1067 44.9653 58.1067 44.832C58.1067 44.656 58.0747 44.5013 58.0107 44.368C57.9467 44.2293 57.8507 44.1227 57.7227 44.048C57.6 43.9733 57.4454 43.936 57.2587 43.936C56.9974 43.936 56.776 44.0187 56.5947 44.184C56.4134 44.344 56.3227 44.5467 56.3227 44.792H55.6747C55.6747 44.4987 55.7414 44.2427 55.8747 44.024C56.0134 43.8053 56.2 43.6347 56.4347 43.512C56.6747 43.384 56.9467 43.32 57.2507 43.32C57.5707 43.32 57.8454 43.3893 58.0747 43.528C58.3094 43.6667 58.488 43.848 58.6107 44.072C58.7387 44.296 58.8027 44.5413 58.8027 44.808C58.8027 45.0693 58.7254 45.3093 58.5707 45.528C58.416 45.7467 58.2027 45.92 57.9307 46.048C57.6587 46.176 57.3414 46.24 56.9787 46.24ZM57.2187 49.08C56.9467 49.08 56.7014 49.04 56.4827 48.96C56.264 48.88 56.0774 48.7707 55.9227 48.632C55.768 48.488 55.648 48.3227 55.5627 48.136C55.4774 47.944 55.4347 47.7387 55.4347 47.52H56.1227C56.1227 47.696 56.168 47.8533 56.2587 47.992C56.3547 48.1307 56.4854 48.24 56.6507 48.32C56.816 48.4 57.0054 48.44 57.2187 48.44C57.432 48.44 57.616 48.4 57.7707 48.32C57.9307 48.2347 58.0534 48.1173 58.1387 47.968C58.224 47.8187 58.2667 47.6427 58.2667 47.44C58.2667 47.2693 58.232 47.12 58.1627 46.992C58.0987 46.8587 58.008 46.7493 57.8907 46.664C57.7734 46.5733 57.6374 46.5067 57.4827 46.464C57.328 46.4213 57.16 46.4 56.9787 46.4V45.96C57.2507 45.96 57.504 45.9893 57.7387 46.048C57.9787 46.1067 58.1894 46.2 58.3707 46.328C58.5574 46.4507 58.7014 46.6107 58.8027 46.808C58.9094 47.0053 58.9627 47.2427 58.9627 47.52C58.9627 47.8347 58.8854 48.1093 58.7307 48.344C58.5814 48.5787 58.376 48.76 58.1147 48.888C57.8534 49.016 57.5547 49.08 57.2187 49.08ZM62.9647 43.4H63.6047L60.3647 50.2H59.7247L62.9647 43.4ZM65.1219 46.2C65.1219 46.5253 65.1539 46.8267 65.2179 47.104C65.2819 47.376 65.3752 47.6133 65.4979 47.816C65.6205 48.0133 65.7672 48.168 65.9379 48.28C66.1139 48.3867 66.3085 48.44 66.5219 48.44C66.7405 48.44 66.9352 48.3867 67.1059 48.28C67.2765 48.168 67.4232 48.0133 67.5459 47.816C67.6685 47.6133 67.7619 47.376 67.8259 47.104C67.8899 46.8267 67.9219 46.5253 67.9219 46.2C67.9219 45.8747 67.8899 45.576 67.8259 45.304C67.7619 45.0267 67.6685 44.7893 67.5459 44.592C67.4232 44.3893 67.2765 44.2347 67.1059 44.128C66.9352 44.016 66.7405 43.96 66.5219 43.96C66.3085 43.96 66.1139 44.016 65.9379 44.128C65.7672 44.2347 65.6205 44.3893 65.4979 44.592C65.3752 44.7893 65.2819 45.0267 65.2179 45.304C65.1539 45.576 65.1219 45.8747 65.1219 46.2ZM64.4419 46.2C64.4419 45.64 64.5299 45.144 64.7059 44.712C64.8819 44.28 65.1245 43.9413 65.4339 43.696C65.7485 43.4453 66.1112 43.32 66.5219 43.32C66.9325 43.32 67.2925 43.4453 67.6019 43.696C67.9165 43.9413 68.1619 44.28 68.3379 44.712C68.5139 45.144 68.6019 45.64 68.6019 46.2C68.6019 46.76 68.5139 47.256 68.3379 47.688C68.1619 48.12 67.9165 48.4613 67.6019 48.712C67.2925 48.9573 66.9325 49.08 66.5219 49.08C66.1112 49.08 65.7485 48.9573 65.4339 48.712C65.1245 48.4613 64.8819 48.12 64.7059 47.688C64.5299 47.256 64.4419 46.76 64.4419 46.2ZM73.5108 47.16C73.5108 47.48 73.4601 47.76 73.3588 48C73.2574 48.24 73.1161 48.44 72.9348 48.6C72.7534 48.76 72.5454 48.88 72.3108 48.96C72.0761 49.04 71.8228 49.08 71.5508 49.08C71.2094 49.08 70.9108 49.0267 70.6548 48.92C70.4041 48.8133 70.1881 48.672 70.0068 48.496C69.8308 48.3147 69.6814 48.1173 69.5588 47.904L70.1348 47.512C70.2201 47.672 70.3321 47.824 70.4708 47.968C70.6148 48.1067 70.7801 48.2213 70.9668 48.312C71.1534 48.3973 71.3481 48.44 71.5508 48.44C71.8174 48.44 72.0441 48.3867 72.2308 48.28C72.4174 48.1733 72.5588 48.024 72.6548 47.832C72.7561 47.64 72.8068 47.416 72.8068 47.16C72.8068 46.904 72.7508 46.68 72.6388 46.488C72.5321 46.296 72.3828 46.1467 72.1908 46.04C72.0041 45.9333 71.7908 45.88 71.5508 45.88C71.3748 45.88 71.2121 45.896 71.0628 45.928C70.9188 45.9547 70.7721 46.0053 70.6228 46.08C70.4788 46.1493 70.3108 46.2507 70.1188 46.384L70.8548 43.4H73.4948V44H71.3828L71.0068 45.48C71.1401 45.4107 71.2761 45.36 71.4148 45.328C71.5588 45.2907 71.7001 45.272 71.8388 45.272C72.1588 45.272 72.4441 45.352 72.6948 45.512C72.9508 45.672 73.1508 45.8933 73.2948 46.176C73.4388 46.4587 73.5108 46.7867 73.5108 47.16ZM77.5944 43.4H78.2344L74.9944 50.2H74.3544L77.5944 43.4ZM78.9116 49L81.5596 46.176C81.6822 46.0427 81.7862 45.912 81.8716 45.784C81.9622 45.6507 82.0289 45.5173 82.0716 45.384C82.1196 45.2453 82.1436 45.1013 82.1436 44.952C82.1436 44.8293 82.1196 44.7093 82.0716 44.592C82.0236 44.4747 81.9516 44.368 81.8556 44.272C81.7649 44.176 81.6529 44.0987 81.5196 44.04C81.3862 43.9813 81.2342 43.952 81.0636 43.952C80.8236 43.952 80.6156 44.008 80.4396 44.12C80.2689 44.2267 80.1382 44.384 80.0476 44.592C79.9569 44.7947 79.9116 45.0373 79.9116 45.32H79.2316C79.2316 44.92 79.3036 44.5707 79.4476 44.272C79.5916 43.968 79.7996 43.7333 80.0716 43.568C80.3489 43.3973 80.6796 43.312 81.0636 43.312C81.3729 43.312 81.6396 43.3653 81.8636 43.472C82.0876 43.5733 82.2716 43.7067 82.4156 43.872C82.5596 44.032 82.6662 44.2053 82.7356 44.392C82.8049 44.5787 82.8396 44.7573 82.8396 44.928C82.8396 45.216 82.7702 45.5013 82.6316 45.784C82.4929 46.0667 82.3142 46.32 82.0956 46.544L80.3116 48.36H82.8636V49H78.9116ZM84.7062 46.2C84.7062 46.5253 84.7382 46.8267 84.8022 47.104C84.8662 47.376 84.9596 47.6133 85.0822 47.816C85.2049 48.0133 85.3516 48.168 85.5222 48.28C85.6982 48.3867 85.8929 48.44 86.1062 48.44C86.3249 48.44 86.5196 48.3867 86.6902 48.28C86.8609 48.168 87.0076 48.0133 87.1302 47.816C87.2529 47.6133 87.3462 47.376 87.4102 47.104C87.4742 46.8267 87.5062 46.5253 87.5062 46.2C87.5062 45.8747 87.4742 45.576 87.4102 45.304C87.3462 45.0267 87.2529 44.7893 87.1302 44.592C87.0076 44.3893 86.8609 44.2347 86.6902 44.128C86.5196 44.016 86.3249 43.96 86.1062 43.96C85.8929 43.96 85.6982 44.016 85.5222 44.128C85.3516 44.2347 85.2049 44.3893 85.0822 44.592C84.9596 44.7893 84.8662 45.0267 84.8022 45.304C84.7382 45.576 84.7062 45.8747 84.7062 46.2ZM84.0262 46.2C84.0262 45.64 84.1142 45.144 84.2902 44.712C84.4662 44.28 84.7089 43.9413 85.0182 43.696C85.3329 43.4453 85.6956 43.32 86.1062 43.32C86.5169 43.32 86.8769 43.4453 87.1862 43.696C87.5009 43.9413 87.7462 44.28 87.9222 44.712C88.0982 45.144 88.1862 45.64 88.1862 46.2C88.1862 46.76 88.0982 47.256 87.9222 47.688C87.7462 48.12 87.5009 48.4613 87.1862 48.712C86.8769 48.9573 86.5169 49.08 86.1062 49.08C85.6956 49.08 85.3329 48.9573 85.0182 48.712C84.7089 48.4613 84.4662 48.12 84.2902 47.688C84.1142 47.256 84.0262 46.76 84.0262 46.2ZM89.0631 49L91.7111 46.176C91.8338 46.0427 91.9378 45.912 92.0231 45.784C92.1138 45.6507 92.1805 45.5173 92.2231 45.384C92.2711 45.2453 92.2951 45.1013 92.2951 44.952C92.2951 44.8293 92.2711 44.7093 92.2231 44.592C92.1751 44.4747 92.1031 44.368 92.0071 44.272C91.9165 44.176 91.8045 44.0987 91.6711 44.04C91.5378 43.9813 91.3858 43.952 91.2151 43.952C90.9751 43.952 90.7671 44.008 90.5911 44.12C90.4205 44.2267 90.2898 44.384 90.1991 44.592C90.1085 44.7947 90.0631 45.0373 90.0631 45.32H89.3831C89.3831 44.92 89.4551 44.5707 89.5991 44.272C89.7431 43.968 89.9511 43.7333 90.2231 43.568C90.5005 43.3973 90.8311 43.312 91.2151 43.312C91.5245 43.312 91.7911 43.3653 92.0151 43.472C92.2391 43.5733 92.4231 43.7067 92.5671 43.872C92.7111 44.032 92.8178 44.2053 92.8871 44.392C92.9565 44.5787 92.9911 44.7573 92.9911 44.928C92.9911 45.216 92.9218 45.5013 92.7831 45.784C92.6445 46.0667 92.4658 46.32 92.2471 46.544L90.4631 48.36H93.0151V49H89.0631ZM94.0178 47.88L97.1218 43.4H97.4018V49H96.7218V47.592V47.504V44.912L95.1378 47.28H97.0018H97.1378H98.2818V47.88H94.0178Z" fill="#111111"/>
<line x1="120.15" y1="5" x2="120.15" y2="55" stroke="#111111" stroke-width="0.3"/>
<path d="M265 45.4854L265.755 47.8103L265.789 47.9139H265.898H268.343L266.365 49.3508L266.277 49.4148L266.31 49.5185L267.066 51.8434L265.088 50.4065L265 50.3425L264.912 50.4065L262.934 51.8434L263.69 49.5185L263.723 49.4148L263.635 49.3508L261.657 47.9139H264.102H264.211L264.245 47.8103L265 45.4854Z" fill="#FFF500" stroke="#111111" stroke-width="0.3"/>
<path d="M255 45.4854L255.755 47.8103L255.789 47.9139H255.898H258.343L256.365 49.3508L256.277 49.4148L256.31 49.5185L257.066 51.8434L255.088 50.4065L255 50.3425L254.912 50.4065L252.934 51.8434L253.69 49.5185L253.723 49.4148L253.635 49.3508L251.657 47.9139H254.102H254.211L254.245 47.8103L255 45.4854Z" fill="#FFF500" stroke="#111111" stroke-width="0.3"/>
<path d="M245 45.4854L245.755 47.8103L245.789 47.9139H245.898H248.343L246.365 49.3508L246.277 49.4148L246.31 49.5185L247.066 51.8434L245.088 50.4065L245 50.3425L244.912 50.4065L242.934 51.8434L243.69 49.5185L243.723 49.4148L243.635 49.3508L241.657 47.9139H244.102H244.211L244.245 47.8103L245 45.4854Z" fill="#FFF500" stroke="#111111" stroke-width="0.3"/>
<path d="M235 45.4854L235.755 47.8103L235.789 47.9139H235.898H238.343L236.365 49.3508L236.277 49.4148L236.31 49.5185L237.066 51.8434L235.088 50.4065L235 50.3425L234.912 50.4065L232.934 51.8434L233.69 49.5185L233.723 49.4148L233.635 49.3508L231.657 47.9139H234.102H234.211L234.245 47.8103L235 45.4854Z" fill="#FFF500" stroke="#111111" stroke-width="0.3"/>
<path d="M225 45.4854L225.755 47.8103L225.789 47.9139H225.898H228.343L226.365 49.3508L226.277 49.4148L226.31 49.5185L227.066 51.8434L225.088 50.4065L225 50.3425L224.912 50.4065L222.934 51.8434L223.69 49.5185L223.723 49.4148L223.635 49.3508L221.657 47.9139H224.102H224.211L224.245 47.8103L225 45.4854Z" fill="#FFF500" stroke="#111111" stroke-width="0.3"/>
</svg>
