<svg width="280" height="58" viewBox="0 0 280 58" fill="none" xmlns="http://www.w3.org/2000/svg">
<rect x="1" y="1" width="278" height="57" rx="15" fill="#92E28F" fill-opacity="0.81"/>
<circle cx="30" cy="30" r="20" fill="#F4F4F4"/>
<path d="M47.4658 39.744C45.728 42.859 43.1887 45.4526 40.1111 47.2559C37.0336 49.0592 33.5297 50.0066 29.9628 50C26.3958 49.9933 22.8955 49.0329 19.8247 47.2181C16.7539 45.4034 14.2243 42.8004 12.498 39.6789L30 30L47.4658 39.744Z" fill="#111111"/>
<circle cx="30" cy="25" r="9" fill="#111111"/>
<path d="M51.176 16.04V15.664H52.08C52.2667 15.664 52.4347 15.632 52.584 15.568C52.7333 15.504 52.8507 15.4107 52.936 15.288C53.0213 15.1653 53.064 15.016 53.064 14.84C53.064 14.5733 52.9707 14.368 52.784 14.224C52.5973 14.0747 52.3627 14 52.08 14H51.32V18.4H52.16C52.4 18.4 52.6107 18.3573 52.792 18.272C52.9787 18.1867 53.1227 18.064 53.224 17.904C53.3307 17.744 53.384 17.5493 53.384 17.32C53.384 17.1493 53.3547 16.9973 53.296 16.864C53.2373 16.7307 53.152 16.6187 53.04 16.528C52.9333 16.4373 52.8053 16.3707 52.656 16.328C52.5067 16.28 52.3413 16.256 52.16 16.256H51.176V15.88H52.16C52.432 15.88 52.6827 15.9093 52.912 15.968C53.1413 16.0267 53.3413 16.1173 53.512 16.24C53.688 16.3573 53.824 16.5093 53.92 16.696C54.016 16.8827 54.064 17.104 54.064 17.36C54.064 17.728 53.9787 18.0347 53.808 18.28C53.6427 18.52 53.416 18.7013 53.128 18.824C52.8453 18.9413 52.5227 19 52.16 19H50.64V13.4H52.08C52.416 13.4 52.7067 13.4507 52.952 13.552C53.2027 13.6533 53.3973 13.808 53.536 14.016C53.6747 14.2187 53.744 14.48 53.744 14.8C53.744 15.0613 53.6747 15.2853 53.536 15.472C53.3973 15.6587 53.2027 15.8 52.952 15.896C52.7067 15.992 52.416 16.04 52.08 16.04H51.176ZM56.8849 19.08C56.5436 19.08 56.2396 19 55.9729 18.84C55.7116 18.6747 55.5063 18.448 55.3569 18.16C55.2129 17.872 55.1409 17.5387 55.1409 17.16C55.1409 16.776 55.2156 16.44 55.3649 16.152C55.5196 15.864 55.7329 15.64 56.0049 15.48C56.2823 15.32 56.6023 15.24 56.9649 15.24C57.3276 15.24 57.6369 15.3173 57.8929 15.472C58.1543 15.6213 58.3543 15.8373 58.4929 16.12C58.6316 16.4027 58.7009 16.7387 58.7009 17.128C58.7009 17.1653 58.6983 17.2053 58.6929 17.248C58.6929 17.2853 58.6929 17.3093 58.6929 17.32H55.5489V16.776H58.1889L57.9329 17.144C57.9489 17.1173 57.9649 17.0773 57.9809 17.024C57.9969 16.9653 58.0049 16.9173 58.0049 16.88C58.0049 16.6613 57.9596 16.472 57.8689 16.312C57.7836 16.152 57.6636 16.0267 57.5089 15.936C57.3543 15.8453 57.1729 15.8 56.9649 15.8C56.7196 15.8 56.5089 15.8533 56.3329 15.96C56.1623 16.0613 56.0289 16.2107 55.9329 16.408C55.8423 16.6 55.7943 16.8373 55.7889 17.12C55.7889 17.408 55.8343 17.6533 55.9249 17.856C56.0156 18.0587 56.1489 18.2133 56.3249 18.32C56.5009 18.4267 56.7143 18.48 56.9649 18.48C57.2156 18.48 57.4369 18.4267 57.6289 18.32C57.8209 18.208 57.9836 18.04 58.1169 17.816L58.6369 18.144C58.4449 18.4533 58.2023 18.688 57.9089 18.848C57.6209 19.0027 57.2796 19.08 56.8849 19.08ZM60.6181 15.32V19H59.9781V15.32H60.6181ZM61.7301 16.024C61.6448 15.96 61.5675 15.9147 61.4981 15.888C61.4288 15.856 61.3408 15.84 61.2341 15.84C61.0741 15.84 60.9488 15.88 60.8581 15.96C60.7675 16.04 60.7035 16.1493 60.6661 16.288C60.6341 16.4267 60.6181 16.584 60.6181 16.76H60.3301C60.3301 16.4667 60.3808 16.208 60.4821 15.984C60.5888 15.7547 60.7248 15.5733 60.8901 15.44C61.0555 15.3067 61.2235 15.24 61.3941 15.24C61.5275 15.24 61.6501 15.2587 61.7621 15.296C61.8795 15.328 61.9861 15.3947 62.0821 15.496L61.7301 16.024ZM65.4803 16.76C65.4803 16.456 65.4136 16.2267 65.2803 16.072C65.147 15.9173 64.9523 15.84 64.6963 15.84C64.5096 15.84 64.3443 15.88 64.2003 15.96C64.0616 16.0347 63.9523 16.1413 63.8723 16.28C63.7976 16.4187 63.7603 16.5787 63.7603 16.76V19H63.1203V15.32H63.7603V15.896C63.883 15.672 64.035 15.5067 64.2163 15.4C64.403 15.2933 64.6163 15.24 64.8563 15.24C65.2456 15.24 65.5523 15.3707 65.7763 15.632C66.0056 15.888 66.1203 16.2373 66.1203 16.68V19H65.4803V16.76ZM68.0114 17.864C68.0114 18.0027 68.0434 18.1227 68.1074 18.224C68.1768 18.3253 68.2701 18.4027 68.3874 18.456C68.5101 18.504 68.6488 18.528 68.8034 18.528C69.0008 18.528 69.1768 18.488 69.3314 18.408C69.4914 18.328 69.6168 18.216 69.7074 18.072C69.8034 17.9227 69.8514 17.752 69.8514 17.56L69.9794 18.04C69.9794 18.2747 69.9074 18.4693 69.7634 18.624C69.6248 18.7787 69.4514 18.8933 69.2434 18.968C69.0408 19.0427 68.8381 19.08 68.6354 19.08C68.4114 19.08 68.2008 19.0347 68.0034 18.944C67.8114 18.848 67.6568 18.712 67.5394 18.536C67.4221 18.36 67.3634 18.1467 67.3634 17.896C67.3634 17.5387 67.4888 17.2533 67.7394 17.04C67.9954 16.8213 68.3501 16.712 68.8034 16.712C69.0701 16.712 69.2914 16.744 69.4674 16.808C69.6488 16.8667 69.7928 16.936 69.8994 17.016C70.0061 17.0907 70.0781 17.152 70.1154 17.2V17.576C69.9288 17.448 69.7368 17.3573 69.5394 17.304C69.3421 17.2453 69.1314 17.216 68.9074 17.216C68.6994 17.216 68.5288 17.2427 68.3954 17.296C68.2674 17.3493 68.1714 17.424 68.1074 17.52C68.0434 17.616 68.0114 17.7307 68.0114 17.864ZM67.9154 16.168L67.6034 15.696C67.7421 15.5947 67.9314 15.4933 68.1714 15.392C68.4168 15.2907 68.7101 15.24 69.0514 15.24C69.3394 15.24 69.5901 15.2853 69.8034 15.376C70.0221 15.4613 70.1901 15.5867 70.3074 15.752C70.4301 15.9173 70.4914 16.12 70.4914 16.36V19H69.8514V16.448C69.8514 16.32 69.8301 16.216 69.7874 16.136C69.7448 16.0507 69.6834 15.984 69.6034 15.936C69.5288 15.888 69.4408 15.8533 69.3394 15.832C69.2381 15.8107 69.1314 15.8 69.0194 15.8C68.8381 15.8 68.6728 15.8213 68.5234 15.864C68.3794 15.9067 68.2568 15.9573 68.1554 16.016C68.0541 16.0747 67.9741 16.1253 67.9154 16.168ZM72.615 15.32V19H71.975V15.32H72.615ZM73.727 16.024C73.6417 15.96 73.5643 15.9147 73.495 15.888C73.4257 15.856 73.3377 15.84 73.231 15.84C73.071 15.84 72.9457 15.88 72.855 15.96C72.7643 16.04 72.7003 16.1493 72.663 16.288C72.631 16.4267 72.615 16.584 72.615 16.76H72.327C72.327 16.4667 72.3777 16.208 72.479 15.984C72.5857 15.7547 72.7217 15.5733 72.887 15.44C73.0523 15.3067 73.2203 15.24 73.391 15.24C73.5243 15.24 73.647 15.2587 73.759 15.296C73.8763 15.328 73.983 15.3947 74.079 15.496L73.727 16.024ZM77.8772 12.76H78.5172V19H77.8772V12.76ZM74.7972 17.16C74.7972 16.76 74.8799 16.4187 75.0452 16.136C75.2105 15.848 75.4319 15.6267 75.7092 15.472C75.9865 15.3173 76.2905 15.24 76.6212 15.24C76.9305 15.24 77.1999 15.3173 77.4292 15.472C77.6585 15.6267 77.8372 15.848 77.9652 16.136C78.0985 16.4187 78.1652 16.76 78.1652 17.16C78.1652 17.5547 78.0985 17.896 77.9652 18.184C77.8372 18.472 77.6585 18.6933 77.4292 18.848C77.1999 19.0027 76.9305 19.08 76.6212 19.08C76.2905 19.08 75.9865 19.0027 75.7092 18.848C75.4319 18.6933 75.2105 18.472 75.0452 18.184C74.8799 17.896 74.7972 17.5547 74.7972 17.16ZM75.4452 17.16C75.4452 17.4427 75.5012 17.6827 75.6132 17.88C75.7305 18.0773 75.8852 18.2267 76.0772 18.328C76.2692 18.4293 76.4772 18.48 76.7012 18.48C76.8879 18.48 77.0719 18.4293 77.2532 18.328C77.4345 18.2267 77.5839 18.0773 77.7012 17.88C77.8185 17.6827 77.8772 17.4427 77.8772 17.16C77.8772 16.8773 77.8185 16.6373 77.7012 16.44C77.5839 16.2427 77.4345 16.0933 77.2532 15.992C77.0719 15.8907 76.8879 15.84 76.7012 15.84C76.4772 15.84 76.2692 15.8907 76.0772 15.992C75.8852 16.0933 75.7305 16.2427 75.6132 16.44C75.5012 16.6373 75.4452 16.8773 75.4452 17.16ZM83.6941 15.216L83.2781 19H82.5981L83.2781 13.12L85.5181 17.176L87.7581 13.12L88.4381 19H87.7581L87.3421 15.216L85.5181 18.48L83.6941 15.216ZM89.4347 17.16C89.4347 16.7867 89.5174 16.456 89.6827 16.168C89.8534 15.88 90.0827 15.6533 90.3707 15.488C90.6587 15.3227 90.9814 15.24 91.3387 15.24C91.7014 15.24 92.024 15.3227 92.3067 15.488C92.5947 15.6533 92.8214 15.88 92.9867 16.168C93.1574 16.456 93.2427 16.7867 93.2427 17.16C93.2427 17.528 93.1574 17.8587 92.9867 18.152C92.8214 18.44 92.5947 18.6667 92.3067 18.832C92.024 18.9973 91.7014 19.08 91.3387 19.08C90.9814 19.08 90.6587 18.9973 90.3707 18.832C90.0827 18.6667 89.8534 18.44 89.6827 18.152C89.5174 17.8587 89.4347 17.528 89.4347 17.16ZM90.0827 17.16C90.0827 17.416 90.136 17.6427 90.2427 17.84C90.3547 18.0373 90.504 18.1947 90.6907 18.312C90.8827 18.424 91.0987 18.48 91.3387 18.48C91.5787 18.48 91.792 18.424 91.9787 18.312C92.1707 18.1947 92.32 18.0373 92.4267 17.84C92.5387 17.6427 92.5947 17.416 92.5947 17.16C92.5947 16.904 92.5387 16.6773 92.4267 16.48C92.32 16.2773 92.1707 16.12 91.9787 16.008C91.792 15.896 91.5787 15.84 91.3387 15.84C91.0987 15.84 90.8827 15.896 90.6907 16.008C90.504 16.12 90.3547 16.2773 90.2427 16.48C90.136 16.6773 90.0827 16.904 90.0827 17.16ZM96.8819 16.76C96.8819 16.456 96.8152 16.2267 96.6819 16.072C96.5485 15.9173 96.3539 15.84 96.0979 15.84C95.9112 15.84 95.7459 15.88 95.6019 15.96C95.4632 16.0347 95.3539 16.1413 95.2739 16.28C95.1992 16.4187 95.1619 16.5787 95.1619 16.76V19H94.5219V15.32H95.1619V15.896C95.2845 15.672 95.4365 15.5067 95.6179 15.4C95.8045 15.2933 96.0179 15.24 96.2579 15.24C96.6472 15.24 96.9539 15.3707 97.1779 15.632C97.4072 15.888 97.5219 16.2373 97.5219 16.68V19H96.8819V16.76ZM98.565 15.32H100.405V15.92H98.565V15.32ZM99.165 14.04H99.805V19H99.165V14.04Z" fill="#111111"/>
<path d="M130.64 6.4H131.32V12H130.64V6.4ZM132.32 12H131.016V11.32H132.32C132.635 11.32 132.923 11.272 133.184 11.176C133.445 11.0747 133.669 10.9333 133.856 10.752C134.043 10.5653 134.187 10.3413 134.288 10.08C134.389 9.81867 134.44 9.52533 134.44 9.2C134.44 8.87467 134.389 8.58133 134.288 8.32C134.187 8.05867 134.043 7.83733 133.856 7.656C133.669 7.46933 133.445 7.328 133.184 7.232C132.923 7.13067 132.635 7.08 132.32 7.08H131.016V6.4H132.32C132.864 6.4 133.347 6.51733 133.768 6.752C134.189 6.98667 134.52 7.31467 134.76 7.736C135 8.152 135.12 8.64 135.12 9.2C135.12 9.76 135 10.2507 134.76 10.672C134.52 11.088 134.189 11.4133 133.768 11.648C133.347 11.8827 132.864 12 132.32 12ZM137.862 12.08C137.52 12.08 137.216 12 136.95 11.84C136.688 11.6747 136.483 11.448 136.334 11.16C136.19 10.872 136.118 10.5387 136.118 10.16C136.118 9.776 136.192 9.44 136.342 9.152C136.496 8.864 136.71 8.64 136.982 8.48C137.259 8.32 137.579 8.24 137.942 8.24C138.304 8.24 138.614 8.31733 138.87 8.472C139.131 8.62133 139.331 8.83733 139.47 9.12C139.608 9.40267 139.678 9.73867 139.678 10.128C139.678 10.1653 139.675 10.2053 139.67 10.248C139.67 10.2853 139.67 10.3093 139.67 10.32H136.526V9.776H139.166L138.91 10.144C138.926 10.1173 138.942 10.0773 138.958 10.024C138.974 9.96533 138.982 9.91733 138.982 9.88C138.982 9.66133 138.936 9.472 138.846 9.312C138.76 9.152 138.64 9.02667 138.486 8.936C138.331 8.84533 138.15 8.8 137.942 8.8C137.696 8.8 137.486 8.85333 137.31 8.96C137.139 9.06133 137.006 9.21067 136.91 9.408C136.819 9.6 136.771 9.83733 136.766 10.12C136.766 10.408 136.811 10.6533 136.902 10.856C136.992 11.0587 137.126 11.2133 137.302 11.32C137.478 11.4267 137.691 11.48 137.942 11.48C138.192 11.48 138.414 11.4267 138.606 11.32C138.798 11.208 138.96 11.04 139.094 10.816L139.614 11.144C139.422 11.4533 139.179 11.688 138.886 11.848C138.598 12.0027 138.256 12.08 137.862 12.08ZM141.107 10.872C141.181 10.984 141.267 11.088 141.363 11.184C141.459 11.28 141.568 11.3573 141.691 11.416C141.819 11.4693 141.957 11.496 142.107 11.496C142.288 11.496 142.429 11.456 142.531 11.376C142.637 11.2907 142.691 11.176 142.691 11.032C142.691 10.904 142.648 10.7973 142.563 10.712C142.483 10.6213 142.379 10.5467 142.251 10.488C142.123 10.424 141.987 10.3653 141.843 10.312C141.683 10.248 141.52 10.1733 141.355 10.088C141.195 9.99733 141.059 9.88267 140.947 9.744C140.84 9.6 140.787 9.42133 140.787 9.208C140.787 8.98933 140.843 8.808 140.955 8.664C141.072 8.52 141.221 8.41333 141.403 8.344C141.589 8.27467 141.781 8.24 141.979 8.24C142.176 8.24 142.36 8.272 142.531 8.336C142.707 8.4 142.861 8.48533 142.995 8.592C143.128 8.69867 143.232 8.82133 143.307 8.96L142.795 9.288C142.693 9.14933 142.565 9.03467 142.411 8.944C142.261 8.85333 142.091 8.808 141.899 8.808C141.765 8.808 141.651 8.83733 141.555 8.896C141.459 8.95467 141.411 9.04533 141.411 9.168C141.411 9.264 141.448 9.34933 141.523 9.424C141.597 9.49867 141.693 9.56533 141.811 9.624C141.928 9.68267 142.051 9.73867 142.179 9.792C142.392 9.87733 142.587 9.97067 142.763 10.072C142.939 10.168 143.077 10.2853 143.179 10.424C143.285 10.5627 143.339 10.7413 143.339 10.96C143.339 11.28 143.221 11.5467 142.987 11.76C142.757 11.9733 142.453 12.08 142.075 12.08C141.829 12.08 141.608 12.0373 141.411 11.952C141.213 11.8613 141.045 11.7467 140.907 11.608C140.773 11.4693 140.672 11.328 140.603 11.184L141.107 10.872ZM147.98 13.76H147.34V8.32H147.98V13.76ZM151.06 10.16C151.06 10.5547 150.977 10.896 150.812 11.184C150.646 11.472 150.425 11.6933 150.148 11.848C149.876 12.0027 149.572 12.08 149.236 12.08C148.932 12.08 148.662 12.0027 148.428 11.848C148.198 11.6933 148.017 11.472 147.884 11.184C147.756 10.896 147.692 10.5547 147.692 10.16C147.692 9.76 147.756 9.41867 147.884 9.136C148.017 8.848 148.198 8.62667 148.428 8.472C148.662 8.31733 148.932 8.24 149.236 8.24C149.572 8.24 149.876 8.31733 150.148 8.472C150.425 8.62667 150.646 8.848 150.812 9.136C150.977 9.41867 151.06 9.76 151.06 10.16ZM150.412 10.16C150.412 9.87733 150.353 9.63733 150.236 9.44C150.124 9.24267 149.972 9.09333 149.78 8.992C149.593 8.89067 149.385 8.84 149.156 8.84C148.969 8.84 148.785 8.89067 148.604 8.992C148.422 9.09333 148.273 9.24267 148.156 9.44C148.038 9.63733 147.98 9.87733 147.98 10.16C147.98 10.4427 148.038 10.6827 148.156 10.88C148.273 11.0773 148.422 11.2267 148.604 11.328C148.785 11.4293 148.969 11.48 149.156 11.48C149.385 11.48 149.593 11.4293 149.78 11.328C149.972 11.2267 150.124 11.0773 150.236 10.88C150.353 10.6827 150.412 10.4427 150.412 10.16ZM152.982 8.32V12H152.342V8.32H152.982ZM154.094 9.024C154.009 8.96 153.932 8.91467 153.862 8.888C153.793 8.856 153.705 8.84 153.598 8.84C153.438 8.84 153.313 8.88 153.222 8.96C153.132 9.04 153.068 9.14933 153.03 9.288C152.998 9.42667 152.982 9.584 152.982 9.76H152.694C152.694 9.46667 152.745 9.208 152.846 8.984C152.953 8.75467 153.089 8.57333 153.254 8.44C153.42 8.30667 153.588 8.24 153.758 8.24C153.892 8.24 154.014 8.25867 154.126 8.296C154.244 8.328 154.35 8.39467 154.446 8.496L154.094 9.024ZM155.047 10.16C155.047 9.78667 155.13 9.456 155.295 9.168C155.466 8.88 155.695 8.65333 155.983 8.488C156.271 8.32267 156.594 8.24 156.951 8.24C157.314 8.24 157.637 8.32267 157.919 8.488C158.207 8.65333 158.434 8.88 158.599 9.168C158.77 9.456 158.855 9.78667 158.855 10.16C158.855 10.528 158.77 10.8587 158.599 11.152C158.434 11.44 158.207 11.6667 157.919 11.832C157.637 11.9973 157.314 12.08 156.951 12.08C156.594 12.08 156.271 11.9973 155.983 11.832C155.695 11.6667 155.466 11.44 155.295 11.152C155.13 10.8587 155.047 10.528 155.047 10.16ZM155.695 10.16C155.695 10.416 155.749 10.6427 155.855 10.84C155.967 11.0373 156.117 11.1947 156.303 11.312C156.495 11.424 156.711 11.48 156.951 11.48C157.191 11.48 157.405 11.424 157.591 11.312C157.783 11.1947 157.933 11.0373 158.039 10.84C158.151 10.6427 158.207 10.416 158.207 10.16C158.207 9.904 158.151 9.67733 158.039 9.48C157.933 9.27733 157.783 9.12 157.591 9.008C157.405 8.896 157.191 8.84 156.951 8.84C156.711 8.84 156.495 8.896 156.303 9.008C156.117 9.12 155.967 9.27733 155.855 9.48C155.749 9.67733 155.695 9.904 155.695 10.16ZM159.854 8.32H161.694V8.92H159.854V8.32ZM161.63 6.528C161.577 6.43733 161.513 6.38133 161.438 6.36C161.369 6.33333 161.302 6.32 161.238 6.32C161.158 6.32 161.089 6.344 161.03 6.392C160.977 6.43467 160.934 6.50933 160.902 6.616C160.87 6.72267 160.854 6.864 160.854 7.04V12H160.214V6.96C160.214 6.66667 160.257 6.42667 160.342 6.24C160.428 6.05333 160.548 5.91467 160.702 5.824C160.862 5.728 161.054 5.68 161.278 5.68C161.396 5.68 161.5 5.696 161.59 5.728C161.681 5.76 161.758 5.8 161.822 5.848C161.892 5.896 161.945 5.94667 161.982 6L161.63 6.528ZM164.247 12.08C163.906 12.08 163.602 12 163.335 11.84C163.074 11.6747 162.869 11.448 162.719 11.16C162.575 10.872 162.503 10.5387 162.503 10.16C162.503 9.776 162.578 9.44 162.727 9.152C162.882 8.864 163.095 8.64 163.367 8.48C163.645 8.32 163.965 8.24 164.327 8.24C164.69 8.24 164.999 8.31733 165.255 8.472C165.517 8.62133 165.717 8.83733 165.855 9.12C165.994 9.40267 166.063 9.73867 166.063 10.128C166.063 10.1653 166.061 10.2053 166.055 10.248C166.055 10.2853 166.055 10.3093 166.055 10.32H162.911V9.776H165.551L165.295 10.144C165.311 10.1173 165.327 10.0773 165.343 10.024C165.359 9.96533 165.367 9.91733 165.367 9.88C165.367 9.66133 165.322 9.472 165.231 9.312C165.146 9.152 165.026 9.02667 164.871 8.936C164.717 8.84533 164.535 8.8 164.327 8.8C164.082 8.8 163.871 8.85333 163.695 8.96C163.525 9.06133 163.391 9.21067 163.295 9.408C163.205 9.6 163.157 9.83733 163.151 10.12C163.151 10.408 163.197 10.6533 163.287 10.856C163.378 11.0587 163.511 11.2133 163.687 11.32C163.863 11.4267 164.077 11.48 164.327 11.48C164.578 11.48 164.799 11.4267 164.991 11.32C165.183 11.208 165.346 11.04 165.479 10.816L165.999 11.144C165.807 11.4533 165.565 11.688 165.271 11.848C164.983 12.0027 164.642 12.08 164.247 12.08ZM167.493 10.872C167.567 10.984 167.653 11.088 167.749 11.184C167.845 11.28 167.954 11.3573 168.077 11.416C168.205 11.4693 168.343 11.496 168.493 11.496C168.674 11.496 168.815 11.456 168.917 11.376C169.023 11.2907 169.077 11.176 169.077 11.032C169.077 10.904 169.034 10.7973 168.949 10.712C168.869 10.6213 168.765 10.5467 168.637 10.488C168.509 10.424 168.373 10.3653 168.229 10.312C168.069 10.248 167.906 10.1733 167.741 10.088C167.581 9.99733 167.445 9.88267 167.333 9.744C167.226 9.6 167.173 9.42133 167.173 9.208C167.173 8.98933 167.229 8.808 167.341 8.664C167.458 8.52 167.607 8.41333 167.789 8.344C167.975 8.27467 168.167 8.24 168.365 8.24C168.562 8.24 168.746 8.272 168.917 8.336C169.093 8.4 169.247 8.48533 169.381 8.592C169.514 8.69867 169.618 8.82133 169.693 8.96L169.181 9.288C169.079 9.14933 168.951 9.03467 168.797 8.944C168.647 8.85333 168.477 8.808 168.285 8.808C168.151 8.808 168.037 8.83733 167.941 8.896C167.845 8.95467 167.797 9.04533 167.797 9.168C167.797 9.264 167.834 9.34933 167.909 9.424C167.983 9.49867 168.079 9.56533 168.197 9.624C168.314 9.68267 168.437 9.73867 168.565 9.792C168.778 9.87733 168.973 9.97067 169.149 10.072C169.325 10.168 169.463 10.2853 169.565 10.424C169.671 10.5627 169.725 10.7413 169.725 10.96C169.725 11.28 169.607 11.5467 169.373 11.76C169.143 11.9733 168.839 12.08 168.461 12.08C168.215 12.08 167.994 12.0373 167.797 11.952C167.599 11.8613 167.431 11.7467 167.293 11.608C167.159 11.4693 167.058 11.328 166.989 11.184L167.493 10.872ZM171.119 10.872C171.194 10.984 171.279 11.088 171.375 11.184C171.471 11.28 171.581 11.3573 171.703 11.416C171.831 11.4693 171.97 11.496 172.119 11.496C172.301 11.496 172.442 11.456 172.543 11.376C172.65 11.2907 172.703 11.176 172.703 11.032C172.703 10.904 172.661 10.7973 172.575 10.712C172.495 10.6213 172.391 10.5467 172.263 10.488C172.135 10.424 171.999 10.3653 171.855 10.312C171.695 10.248 171.533 10.1733 171.367 10.088C171.207 9.99733 171.071 9.88267 170.959 9.744C170.853 9.6 170.799 9.42133 170.799 9.208C170.799 8.98933 170.855 8.808 170.967 8.664C171.085 8.52 171.234 8.41333 171.415 8.344C171.602 8.27467 171.794 8.24 171.991 8.24C172.189 8.24 172.373 8.272 172.543 8.336C172.719 8.4 172.874 8.48533 173.007 8.592C173.141 8.69867 173.245 8.82133 173.319 8.96L172.807 9.288C172.706 9.14933 172.578 9.03467 172.423 8.944C172.274 8.85333 172.103 8.808 171.911 8.808C171.778 8.808 171.663 8.83733 171.567 8.896C171.471 8.95467 171.423 9.04533 171.423 9.168C171.423 9.264 171.461 9.34933 171.535 9.424C171.61 9.49867 171.706 9.56533 171.823 9.624C171.941 9.68267 172.063 9.73867 172.191 9.792C172.405 9.87733 172.599 9.97067 172.775 10.072C172.951 10.168 173.09 10.2853 173.191 10.424C173.298 10.5627 173.351 10.7413 173.351 10.96C173.351 11.28 173.234 11.5467 172.999 11.76C172.77 11.9733 172.466 12.08 172.087 12.08C171.842 12.08 171.621 12.0373 171.423 11.952C171.226 11.8613 171.058 11.7467 170.919 11.608C170.786 11.4693 170.685 11.328 170.615 11.184L171.119 10.872ZM174.594 6.8C174.594 6.67733 174.636 6.57333 174.722 6.488C174.812 6.40267 174.916 6.36 175.034 6.36C175.156 6.36 175.26 6.40267 175.346 6.488C175.431 6.57333 175.474 6.67733 175.474 6.8C175.474 6.91733 175.431 7.02133 175.346 7.112C175.26 7.19733 175.156 7.24 175.034 7.24C174.916 7.24 174.812 7.19733 174.722 7.112C174.636 7.02133 174.594 6.91733 174.594 6.8ZM174.714 8.32H175.354V12H174.714V8.32ZM176.752 10.16C176.752 9.78667 176.835 9.456 177 9.168C177.171 8.88 177.4 8.65333 177.688 8.488C177.976 8.32267 178.299 8.24 178.656 8.24C179.019 8.24 179.341 8.32267 179.624 8.488C179.912 8.65333 180.139 8.88 180.304 9.168C180.475 9.456 180.56 9.78667 180.56 10.16C180.56 10.528 180.475 10.8587 180.304 11.152C180.139 11.44 179.912 11.6667 179.624 11.832C179.341 11.9973 179.019 12.08 178.656 12.08C178.299 12.08 177.976 11.9973 177.688 11.832C177.4 11.6667 177.171 11.44 177 11.152C176.835 10.8587 176.752 10.528 176.752 10.16ZM177.4 10.16C177.4 10.416 177.453 10.6427 177.56 10.84C177.672 11.0373 177.821 11.1947 178.008 11.312C178.2 11.424 178.416 11.48 178.656 11.48C178.896 11.48 179.109 11.424 179.296 11.312C179.488 11.1947 179.637 11.0373 179.744 10.84C179.856 10.6427 179.912 10.416 179.912 10.16C179.912 9.904 179.856 9.67733 179.744 9.48C179.637 9.27733 179.488 9.12 179.296 9.008C179.109 8.896 178.896 8.84 178.656 8.84C178.416 8.84 178.2 8.896 178.008 9.008C177.821 9.12 177.672 9.27733 177.56 9.48C177.453 9.67733 177.4 9.904 177.4 10.16ZM184.199 9.76C184.199 9.456 184.132 9.22667 183.999 9.072C183.866 8.91733 183.671 8.84 183.415 8.84C183.228 8.84 183.063 8.88 182.919 8.96C182.78 9.03467 182.671 9.14133 182.591 9.28C182.516 9.41867 182.479 9.57867 182.479 9.76V12H181.839V8.32H182.479V8.896C182.602 8.672 182.754 8.50667 182.935 8.4C183.122 8.29333 183.335 8.24 183.575 8.24C183.964 8.24 184.271 8.37067 184.495 8.632C184.724 8.888 184.839 9.23733 184.839 9.68V12H184.199V9.76ZM188.802 9.76C188.802 9.456 188.736 9.22667 188.602 9.072C188.469 8.91733 188.274 8.84 188.018 8.84C187.832 8.84 187.666 8.88 187.522 8.96C187.384 9.03467 187.274 9.14133 187.194 9.28C187.12 9.41867 187.082 9.57867 187.082 9.76V12H186.442V8.32H187.082V8.896C187.205 8.672 187.357 8.50667 187.538 8.4C187.725 8.29333 187.938 8.24 188.178 8.24C188.568 8.24 188.874 8.37067 189.098 8.632C189.328 8.888 189.442 9.23733 189.442 9.68V12H188.802V9.76ZM192.469 12.08C192.128 12.08 191.824 12 191.557 11.84C191.296 11.6747 191.091 11.448 190.941 11.16C190.797 10.872 190.725 10.5387 190.725 10.16C190.725 9.776 190.8 9.44 190.949 9.152C191.104 8.864 191.317 8.64 191.589 8.48C191.867 8.32 192.187 8.24 192.549 8.24C192.912 8.24 193.221 8.31733 193.477 8.472C193.739 8.62133 193.939 8.83733 194.077 9.12C194.216 9.40267 194.285 9.73867 194.285 10.128C194.285 10.1653 194.283 10.2053 194.277 10.248C194.277 10.2853 194.277 10.3093 194.277 10.32H191.133V9.776H193.773L193.517 10.144C193.533 10.1173 193.549 10.0773 193.565 10.024C193.581 9.96533 193.589 9.91733 193.589 9.88C193.589 9.66133 193.544 9.472 193.453 9.312C193.368 9.152 193.248 9.02667 193.093 8.936C192.939 8.84533 192.757 8.8 192.549 8.8C192.304 8.8 192.093 8.85333 191.917 8.96C191.747 9.06133 191.613 9.21067 191.517 9.408C191.427 9.6 191.379 9.83733 191.373 10.12C191.373 10.408 191.419 10.6533 191.509 10.856C191.6 11.0587 191.733 11.2133 191.909 11.32C192.085 11.4267 192.299 11.48 192.549 11.48C192.8 11.48 193.021 11.4267 193.213 11.32C193.405 11.208 193.568 11.04 193.701 10.816L194.221 11.144C194.029 11.4533 193.787 11.688 193.493 11.848C193.205 12.0027 192.864 12.08 192.469 12.08ZM195.563 5.76H196.203V12H195.563V5.76ZM197.958 10.872C198.033 10.984 198.118 11.088 198.214 11.184C198.31 11.28 198.42 11.3573 198.542 11.416C198.67 11.4693 198.809 11.496 198.958 11.496C199.14 11.496 199.281 11.456 199.382 11.376C199.489 11.2907 199.542 11.176 199.542 11.032C199.542 10.904 199.5 10.7973 199.414 10.712C199.334 10.6213 199.23 10.5467 199.102 10.488C198.974 10.424 198.838 10.3653 198.694 10.312C198.534 10.248 198.372 10.1733 198.206 10.088C198.046 9.99733 197.91 9.88267 197.798 9.744C197.692 9.6 197.638 9.42133 197.638 9.208C197.638 8.98933 197.694 8.808 197.806 8.664C197.924 8.52 198.073 8.41333 198.254 8.344C198.441 8.27467 198.633 8.24 198.83 8.24C199.028 8.24 199.212 8.272 199.382 8.336C199.558 8.4 199.713 8.48533 199.846 8.592C199.98 8.69867 200.084 8.82133 200.158 8.96L199.646 9.288C199.545 9.14933 199.417 9.03467 199.262 8.944C199.113 8.85333 198.942 8.808 198.75 8.808C198.617 8.808 198.502 8.83733 198.406 8.896C198.31 8.95467 198.262 9.04533 198.262 9.168C198.262 9.264 198.3 9.34933 198.374 9.424C198.449 9.49867 198.545 9.56533 198.662 9.624C198.78 9.68267 198.902 9.73867 199.03 9.792C199.244 9.87733 199.438 9.97067 199.614 10.072C199.79 10.168 199.929 10.2853 200.03 10.424C200.137 10.5627 200.19 10.7413 200.19 10.96C200.19 11.28 200.073 11.5467 199.838 11.76C199.609 11.9733 199.305 12.08 198.926 12.08C198.681 12.08 198.46 12.0373 198.262 11.952C198.065 11.8613 197.897 11.7467 197.758 11.608C197.625 11.4693 197.524 11.328 197.454 11.184L197.958 10.872ZM204.519 10.92C204.519 11.048 204.549 11.1573 204.607 11.248C204.666 11.3333 204.751 11.4 204.863 11.448C204.981 11.4907 205.125 11.512 205.295 11.512C205.509 11.512 205.698 11.48 205.863 11.416C206.029 11.352 206.157 11.2507 206.247 11.112C206.343 10.9733 206.391 10.7893 206.391 10.56L206.519 10.96C206.519 11.1947 206.455 11.3973 206.327 11.568C206.205 11.7333 206.039 11.8613 205.831 11.952C205.623 12.0373 205.391 12.08 205.135 12.08C204.885 12.08 204.663 12.0373 204.471 11.952C204.279 11.8613 204.13 11.736 204.023 11.576C203.922 11.416 203.871 11.224 203.871 11C203.871 10.712 203.941 10.4747 204.079 10.288C204.218 10.096 204.405 9.952 204.639 9.856C204.879 9.76 205.146 9.712 205.439 9.712C205.674 9.712 205.874 9.744 206.039 9.808C206.21 9.86667 206.346 9.936 206.447 10.016C206.549 10.0907 206.618 10.152 206.655 10.2V10.576C206.474 10.448 206.29 10.3547 206.103 10.296C205.917 10.232 205.706 10.2 205.471 10.2C205.258 10.2 205.079 10.2293 204.935 10.288C204.797 10.3467 204.693 10.4293 204.623 10.536C204.554 10.6427 204.519 10.7707 204.519 10.92ZM204.519 9.184L204.207 8.696C204.346 8.59467 204.533 8.49333 204.767 8.392C205.002 8.29067 205.285 8.24 205.615 8.24C205.898 8.24 206.143 8.28533 206.351 8.376C206.565 8.46133 206.73 8.58667 206.847 8.752C206.97 8.91733 207.031 9.12 207.031 9.36V12H206.391V9.36C206.391 9.17333 206.311 9.03467 206.151 8.944C205.997 8.848 205.818 8.8 205.615 8.8C205.439 8.8 205.279 8.824 205.135 8.872C204.991 8.91467 204.866 8.968 204.759 9.032C204.658 9.09067 204.578 9.14133 204.519 9.184ZM204.335 6.56L204.935 6.24L206.135 7.52L205.775 7.76L204.335 6.56ZM211.313 5.76H211.953V12H211.313V5.76ZM213.836 6.4H214.596L213.796 8.24H213.356L213.836 6.4ZM215.849 10.32V9.776H218.305C218.284 9.584 218.23 9.416 218.145 9.272C218.065 9.12267 217.95 9.008 217.801 8.928C217.657 8.84267 217.478 8.8 217.265 8.8C217.052 8.8 216.857 8.84533 216.681 8.936C216.505 9.02667 216.364 9.15733 216.257 9.328C216.156 9.49333 216.105 9.69067 216.105 9.92L216.089 10.16C216.089 10.4427 216.137 10.6827 216.233 10.88C216.329 11.0773 216.465 11.2267 216.641 11.328C216.817 11.4293 217.025 11.48 217.265 11.48C217.446 11.48 217.606 11.4533 217.745 11.4C217.889 11.3413 218.017 11.264 218.129 11.168C218.241 11.0667 218.337 10.9493 218.417 10.816L218.937 11.144C218.814 11.3307 218.678 11.496 218.529 11.64C218.38 11.7787 218.198 11.888 217.985 11.968C217.772 12.0427 217.505 12.08 217.185 12.08C216.854 12.08 216.556 11.9973 216.289 11.832C216.028 11.6667 215.82 11.44 215.665 11.152C215.516 10.8587 215.441 10.528 215.441 10.16C215.441 10.0907 215.444 10.024 215.449 9.96C215.454 9.896 215.462 9.832 215.473 9.768C215.526 9.464 215.633 9.19733 215.793 8.968C215.953 8.73867 216.158 8.56 216.409 8.432C216.665 8.304 216.95 8.24 217.265 8.24C217.612 8.24 217.916 8.31733 218.177 8.472C218.438 8.62667 218.641 8.84533 218.785 9.128C218.929 9.40533 219.001 9.73867 219.001 10.128C219.001 10.16 219.001 10.192 219.001 10.224C219.001 10.256 218.998 10.288 218.993 10.32H215.849ZM218.545 6.48L217.105 7.68L216.745 7.44L217.945 6.16L218.545 6.48ZM220.566 10.16C220.566 10.416 220.619 10.6427 220.726 10.84C220.838 11.0373 220.987 11.1947 221.174 11.312C221.366 11.424 221.582 11.48 221.822 11.48C222.019 11.48 222.203 11.4507 222.374 11.392C222.55 11.328 222.702 11.2453 222.83 11.144C222.958 11.0373 223.049 10.9253 223.102 10.808V11.608C222.974 11.7573 222.79 11.8747 222.55 11.96C222.315 12.04 222.073 12.08 221.822 12.08C221.465 12.08 221.142 11.9973 220.854 11.832C220.566 11.6667 220.337 11.44 220.166 11.152C220.001 10.8587 219.918 10.528 219.918 10.16C219.918 9.78667 220.001 9.456 220.166 9.168C220.337 8.88 220.566 8.65333 220.854 8.488C221.142 8.32267 221.465 8.24 221.822 8.24C222.073 8.24 222.315 8.28267 222.55 8.368C222.79 8.448 222.974 8.56267 223.102 8.712V9.512C223.049 9.38933 222.958 9.27733 222.83 9.176C222.702 9.07467 222.55 8.99467 222.374 8.936C222.203 8.872 222.019 8.84 221.822 8.84C221.582 8.84 221.366 8.896 221.174 9.008C220.987 9.12 220.838 9.27733 220.726 9.48C220.619 9.67733 220.566 9.904 220.566 10.16ZM224.178 10.16C224.178 9.78667 224.261 9.456 224.426 9.168C224.597 8.88 224.826 8.65333 225.114 8.488C225.402 8.32267 225.725 8.24 226.082 8.24C226.445 8.24 226.768 8.32267 227.05 8.488C227.338 8.65333 227.565 8.88 227.73 9.168C227.901 9.456 227.986 9.78667 227.986 10.16C227.986 10.528 227.901 10.8587 227.73 11.152C227.565 11.44 227.338 11.6667 227.05 11.832C226.768 11.9973 226.445 12.08 226.082 12.08C225.725 12.08 225.402 11.9973 225.114 11.832C224.826 11.6667 224.597 11.44 224.426 11.152C224.261 10.8587 224.178 10.528 224.178 10.16ZM224.826 10.16C224.826 10.416 224.88 10.6427 224.986 10.84C225.098 11.0373 225.248 11.1947 225.434 11.312C225.626 11.424 225.842 11.48 226.082 11.48C226.322 11.48 226.536 11.424 226.722 11.312C226.914 11.1947 227.064 11.0373 227.17 10.84C227.282 10.6427 227.338 10.416 227.338 10.16C227.338 9.904 227.282 9.67733 227.17 9.48C227.064 9.27733 226.914 9.12 226.722 9.008C226.536 8.896 226.322 8.84 226.082 8.84C225.842 8.84 225.626 8.896 225.434 9.008C225.248 9.12 225.098 9.27733 224.986 9.48C224.88 9.67733 224.826 9.904 224.826 10.16ZM229.906 10.56C229.906 10.8533 229.972 11.08 230.106 11.24C230.239 11.4 230.434 11.48 230.69 11.48C230.876 11.48 231.039 11.4427 231.178 11.368C231.322 11.288 231.431 11.1787 231.506 11.04C231.586 10.9013 231.626 10.7413 231.626 10.56V8.32H232.266V12H231.626V11.424C231.503 11.6427 231.351 11.808 231.17 11.92C230.988 12.0267 230.775 12.08 230.53 12.08C230.146 12.08 229.839 11.9493 229.61 11.688C229.38 11.4267 229.266 11.0773 229.266 10.64V8.32H229.906V10.56ZM233.309 8.32H235.149V8.92H233.309V8.32ZM233.909 7.04H234.549V12H233.909V7.04ZM237.615 12.08C237.273 12.08 236.969 12 236.703 11.84C236.441 11.6747 236.236 11.448 236.087 11.16C235.943 10.872 235.871 10.5387 235.871 10.16C235.871 9.776 235.945 9.44 236.095 9.152C236.249 8.864 236.463 8.64 236.735 8.48C237.012 8.32 237.332 8.24 237.695 8.24C238.057 8.24 238.367 8.31733 238.623 8.472C238.884 8.62133 239.084 8.83733 239.223 9.12C239.361 9.40267 239.431 9.73867 239.431 10.128C239.431 10.1653 239.428 10.2053 239.423 10.248C239.423 10.2853 239.423 10.3093 239.423 10.32H236.279V9.776H238.919L238.663 10.144C238.679 10.1173 238.695 10.0773 238.711 10.024C238.727 9.96533 238.735 9.91733 238.735 9.88C238.735 9.66133 238.689 9.472 238.599 9.312C238.513 9.152 238.393 9.02667 238.239 8.936C238.084 8.84533 237.903 8.8 237.695 8.8C237.449 8.8 237.239 8.85333 237.063 8.96C236.892 9.06133 236.759 9.21067 236.663 9.408C236.572 9.6 236.524 9.83733 236.519 10.12C236.519 10.408 236.564 10.6533 236.655 10.856C236.745 11.0587 236.879 11.2133 237.055 11.32C237.231 11.4267 237.444 11.48 237.695 11.48C237.945 11.48 238.167 11.4267 238.359 11.32C238.551 11.208 238.713 11.04 238.847 10.816L239.367 11.144C239.175 11.4533 238.932 11.688 238.639 11.848C238.351 12.0027 238.009 12.08 237.615 12.08ZM244.93 12.08C244.589 12.08 244.285 12 244.018 11.84C243.757 11.6747 243.552 11.448 243.402 11.16C243.258 10.872 243.186 10.5387 243.186 10.16C243.186 9.776 243.261 9.44 243.41 9.152C243.565 8.864 243.778 8.64 244.05 8.48C244.328 8.32 244.648 8.24 245.01 8.24C245.373 8.24 245.682 8.31733 245.938 8.472C246.2 8.62133 246.4 8.83733 246.538 9.12C246.677 9.40267 246.746 9.73867 246.746 10.128C246.746 10.1653 246.744 10.2053 246.738 10.248C246.738 10.2853 246.738 10.3093 246.738 10.32H243.594V9.776H246.234L245.978 10.144C245.994 10.1173 246.01 10.0773 246.026 10.024C246.042 9.96533 246.05 9.91733 246.05 9.88C246.05 9.66133 246.005 9.472 245.914 9.312C245.829 9.152 245.709 9.02667 245.554 8.936C245.4 8.84533 245.218 8.8 245.01 8.8C244.765 8.8 244.554 8.85333 244.378 8.96C244.208 9.06133 244.074 9.21067 243.978 9.408C243.888 9.6 243.84 9.83733 243.834 10.12C243.834 10.408 243.88 10.6533 243.97 10.856C244.061 11.0587 244.194 11.2133 244.37 11.32C244.546 11.4267 244.76 11.48 245.01 11.48C245.261 11.48 245.482 11.4267 245.674 11.32C245.866 11.208 246.029 11.04 246.162 10.816L246.682 11.144C246.49 11.4533 246.248 11.688 245.954 11.848C245.666 12.0027 245.325 12.08 244.93 12.08ZM247.463 8.32H249.303V8.92H247.463V8.32ZM248.063 7.04H248.703V12H248.063V7.04ZM253.784 10.56C253.784 10.8533 253.85 11.08 253.984 11.24C254.117 11.4 254.312 11.48 254.568 11.48C254.754 11.48 254.917 11.4427 255.056 11.368C255.2 11.288 255.309 11.1787 255.384 11.04C255.464 10.9013 255.504 10.7413 255.504 10.56V8.32H256.144V12H255.504V11.424C255.381 11.6427 255.229 11.808 255.048 11.92C254.866 12.0267 254.653 12.08 254.408 12.08C254.024 12.08 253.717 11.9493 253.488 11.688C253.258 11.4267 253.144 11.0773 253.144 10.64V8.32H253.784V10.56ZM260.107 9.76C260.107 9.456 260.04 9.22667 259.907 9.072C259.774 8.91733 259.579 8.84 259.323 8.84C259.136 8.84 258.971 8.88 258.827 8.96C258.688 9.03467 258.579 9.14133 258.499 9.28C258.424 9.41867 258.387 9.57867 258.387 9.76V12H257.747V8.32H258.387V8.896C258.51 8.672 258.662 8.50667 258.843 8.4C259.03 8.29333 259.243 8.24 259.483 8.24C259.872 8.24 260.179 8.37067 260.403 8.632C260.632 8.888 260.747 9.23733 260.747 9.68V12H260.107V9.76ZM131.2 25.76H130.56V20.32H131.2V25.76ZM134.28 22.16C134.28 22.5547 134.197 22.896 134.032 23.184C133.867 23.472 133.645 23.6933 133.368 23.848C133.096 24.0027 132.792 24.08 132.456 24.08C132.152 24.08 131.883 24.0027 131.648 23.848C131.419 23.6933 131.237 23.472 131.104 23.184C130.976 22.896 130.912 22.5547 130.912 22.16C130.912 21.76 130.976 21.4187 131.104 21.136C131.237 20.848 131.419 20.6267 131.648 20.472C131.883 20.3173 132.152 20.24 132.456 20.24C132.792 20.24 133.096 20.3173 133.368 20.472C133.645 20.6267 133.867 20.848 134.032 21.136C134.197 21.4187 134.28 21.76 134.28 22.16ZM133.632 22.16C133.632 21.8773 133.573 21.6373 133.456 21.44C133.344 21.2427 133.192 21.0933 133 20.992C132.813 20.8907 132.605 20.84 132.376 20.84C132.189 20.84 132.005 20.8907 131.824 20.992C131.643 21.0933 131.493 21.2427 131.376 21.44C131.259 21.6373 131.2 21.8773 131.2 22.16C131.2 22.4427 131.259 22.6827 131.376 22.88C131.493 23.0773 131.643 23.2267 131.824 23.328C132.005 23.4293 132.189 23.48 132.376 23.48C132.605 23.48 132.813 23.4293 133 23.328C133.192 23.2267 133.344 23.0773 133.456 22.88C133.573 22.6827 133.632 22.4427 133.632 22.16ZM136.203 20.32V24H135.563V20.32H136.203ZM137.315 21.024C137.229 20.96 137.152 20.9147 137.083 20.888C137.013 20.856 136.925 20.84 136.819 20.84C136.659 20.84 136.533 20.88 136.443 20.96C136.352 21.04 136.288 21.1493 136.251 21.288C136.219 21.4267 136.203 21.584 136.203 21.76H135.915C135.915 21.4667 135.965 21.208 136.067 20.984C136.173 20.7547 136.309 20.5733 136.475 20.44C136.64 20.3067 136.808 20.24 136.979 20.24C137.112 20.24 137.235 20.2587 137.347 20.296C137.464 20.328 137.571 20.3947 137.667 20.496L137.315 21.024ZM138.268 22.16C138.268 21.7867 138.35 21.456 138.516 21.168C138.686 20.88 138.916 20.6533 139.204 20.488C139.492 20.3227 139.814 20.24 140.172 20.24C140.534 20.24 140.857 20.3227 141.14 20.488C141.428 20.6533 141.654 20.88 141.82 21.168C141.99 21.456 142.076 21.7867 142.076 22.16C142.076 22.528 141.99 22.8587 141.82 23.152C141.654 23.44 141.428 23.6667 141.14 23.832C140.857 23.9973 140.534 24.08 140.172 24.08C139.814 24.08 139.492 23.9973 139.204 23.832C138.916 23.6667 138.686 23.44 138.516 23.152C138.35 22.8587 138.268 22.528 138.268 22.16ZM138.916 22.16C138.916 22.416 138.969 22.6427 139.076 22.84C139.188 23.0373 139.337 23.1947 139.524 23.312C139.716 23.424 139.932 23.48 140.172 23.48C140.412 23.48 140.625 23.424 140.812 23.312C141.004 23.1947 141.153 23.0373 141.26 22.84C141.372 22.6427 141.428 22.416 141.428 22.16C141.428 21.904 141.372 21.6773 141.26 21.48C141.153 21.2773 141.004 21.12 140.812 21.008C140.625 20.896 140.412 20.84 140.172 20.84C139.932 20.84 139.716 20.896 139.524 21.008C139.337 21.12 139.188 21.2773 139.076 21.48C138.969 21.6773 138.916 21.904 138.916 22.16ZM143.107 24.24H143.755C143.755 24.416 143.803 24.5787 143.899 24.728C143.995 24.8827 144.131 25.0053 144.307 25.096C144.483 25.192 144.691 25.24 144.931 25.24C145.117 25.24 145.301 25.1947 145.483 25.104C145.664 25.0133 145.813 24.8693 145.931 24.672C146.053 24.48 146.115 24.2293 146.115 23.92V20.32H146.755V23.92C146.755 24.3413 146.667 24.6933 146.491 24.976C146.315 25.264 146.088 25.48 145.811 25.624C145.533 25.768 145.24 25.84 144.931 25.84C144.573 25.84 144.256 25.7733 143.979 25.64C143.707 25.5067 143.493 25.3173 143.339 25.072C143.184 24.832 143.107 24.5547 143.107 24.24ZM143.035 22.16C143.035 21.76 143.117 21.4187 143.283 21.136C143.448 20.848 143.669 20.6267 143.947 20.472C144.224 20.3173 144.528 20.24 144.859 20.24C145.168 20.24 145.437 20.3173 145.667 20.472C145.896 20.6267 146.075 20.848 146.203 21.136C146.336 21.4187 146.403 21.76 146.403 22.16C146.403 22.5547 146.336 22.896 146.203 23.184C146.075 23.472 145.896 23.6933 145.667 23.848C145.437 24.0027 145.168 24.08 144.859 24.08C144.528 24.08 144.224 24.0027 143.947 23.848C143.669 23.6933 143.448 23.472 143.283 23.184C143.117 22.896 143.035 22.5547 143.035 22.16ZM143.683 22.16C143.683 22.4427 143.739 22.6827 143.851 22.88C143.968 23.0773 144.123 23.2267 144.315 23.328C144.507 23.4293 144.715 23.48 144.939 23.48C145.125 23.48 145.309 23.4293 145.491 23.328C145.672 23.2267 145.821 23.0773 145.939 22.88C146.056 22.6827 146.115 22.4427 146.115 22.16C146.115 21.9467 146.08 21.76 146.011 21.6C145.941 21.4347 145.848 21.296 145.731 21.184C145.619 21.072 145.493 20.9867 145.355 20.928C145.216 20.8693 145.077 20.84 144.939 20.84C144.715 20.84 144.507 20.8907 144.315 20.992C144.123 21.0933 143.968 21.2427 143.851 21.44C143.739 21.6373 143.683 21.8773 143.683 22.16ZM148.957 20.32V24H148.317V20.32H148.957ZM150.069 21.024C149.984 20.96 149.907 20.9147 149.837 20.888C149.768 20.856 149.68 20.84 149.573 20.84C149.413 20.84 149.288 20.88 149.197 20.96C149.107 21.04 149.043 21.1493 149.005 21.288C148.973 21.4267 148.957 21.584 148.957 21.76H148.669C148.669 21.4667 148.72 21.208 148.821 20.984C148.928 20.7547 149.064 20.5733 149.229 20.44C149.395 20.3067 149.563 20.24 149.733 20.24C149.867 20.24 149.989 20.2587 150.101 20.296C150.219 20.328 150.325 20.3947 150.421 20.496L150.069 21.024ZM151.747 22.864C151.747 23.0027 151.779 23.1227 151.843 23.224C151.913 23.3253 152.006 23.4027 152.123 23.456C152.246 23.504 152.385 23.528 152.539 23.528C152.737 23.528 152.913 23.488 153.067 23.408C153.227 23.328 153.353 23.216 153.443 23.072C153.539 22.9227 153.587 22.752 153.587 22.56L153.715 23.04C153.715 23.2747 153.643 23.4693 153.499 23.624C153.361 23.7787 153.187 23.8933 152.979 23.968C152.777 24.0427 152.574 24.08 152.371 24.08C152.147 24.08 151.937 24.0347 151.739 23.944C151.547 23.848 151.393 23.712 151.275 23.536C151.158 23.36 151.099 23.1467 151.099 22.896C151.099 22.5387 151.225 22.2533 151.475 22.04C151.731 21.8213 152.086 21.712 152.539 21.712C152.806 21.712 153.027 21.744 153.203 21.808C153.385 21.8667 153.529 21.936 153.635 22.016C153.742 22.0907 153.814 22.152 153.851 22.2V22.576C153.665 22.448 153.473 22.3573 153.275 22.304C153.078 22.2453 152.867 22.216 152.643 22.216C152.435 22.216 152.265 22.2427 152.131 22.296C152.003 22.3493 151.907 22.424 151.843 22.52C151.779 22.616 151.747 22.7307 151.747 22.864ZM151.651 21.168L151.339 20.696C151.478 20.5947 151.667 20.4933 151.907 20.392C152.153 20.2907 152.446 20.24 152.787 20.24C153.075 20.24 153.326 20.2853 153.539 20.376C153.758 20.4613 153.926 20.5867 154.043 20.752C154.166 20.9173 154.227 21.12 154.227 21.36V24H153.587V21.448C153.587 21.32 153.566 21.216 153.523 21.136C153.481 21.0507 153.419 20.984 153.339 20.936C153.265 20.888 153.177 20.8533 153.075 20.832C152.974 20.8107 152.867 20.8 152.755 20.8C152.574 20.8 152.409 20.8213 152.259 20.864C152.115 20.9067 151.993 20.9573 151.891 21.016C151.79 21.0747 151.71 21.1253 151.651 21.168ZM160.751 21.68V24H160.111V21.76C160.111 21.4453 160.052 21.2133 159.935 21.064C159.823 20.9147 159.647 20.84 159.407 20.84C159.231 20.84 159.079 20.8773 158.951 20.952C158.823 21.0213 158.724 21.1253 158.655 21.264C158.586 21.4027 158.551 21.568 158.551 21.76V24H157.911V21.76C157.911 21.4453 157.852 21.2133 157.735 21.064C157.623 20.9147 157.447 20.84 157.207 20.84C157.031 20.84 156.879 20.8773 156.751 20.952C156.623 21.0213 156.524 21.1253 156.455 21.264C156.386 21.4027 156.351 21.568 156.351 21.76V24H155.711V20.32H156.351V20.856C156.463 20.648 156.602 20.4933 156.767 20.392C156.938 20.2907 157.138 20.24 157.367 20.24C157.623 20.24 157.842 20.3013 158.023 20.424C158.21 20.5413 158.346 20.7093 158.431 20.928C158.559 20.6987 158.719 20.528 158.911 20.416C159.103 20.2987 159.322 20.24 159.567 20.24C159.818 20.24 160.031 20.296 160.207 20.408C160.383 20.52 160.516 20.6853 160.607 20.904C160.703 21.1173 160.751 21.376 160.751 21.68ZM167.393 21.68V24H166.753V21.76C166.753 21.4453 166.694 21.2133 166.577 21.064C166.465 20.9147 166.289 20.84 166.049 20.84C165.873 20.84 165.721 20.8773 165.593 20.952C165.465 21.0213 165.366 21.1253 165.297 21.264C165.228 21.4027 165.193 21.568 165.193 21.76V24H164.553V21.76C164.553 21.4453 164.494 21.2133 164.377 21.064C164.265 20.9147 164.089 20.84 163.849 20.84C163.673 20.84 163.521 20.8773 163.393 20.952C163.265 21.0213 163.166 21.1253 163.097 21.264C163.028 21.4027 162.993 21.568 162.993 21.76V24H162.353V20.32H162.993V20.856C163.105 20.648 163.244 20.4933 163.409 20.392C163.58 20.2907 163.78 20.24 164.009 20.24C164.265 20.24 164.484 20.3013 164.665 20.424C164.852 20.5413 164.988 20.7093 165.073 20.928C165.201 20.6987 165.361 20.528 165.553 20.416C165.745 20.2987 165.964 20.24 166.209 20.24C166.46 20.24 166.673 20.296 166.849 20.408C167.025 20.52 167.158 20.6853 167.249 20.904C167.345 21.1173 167.393 21.376 167.393 21.68ZM170.419 24.08C170.078 24.08 169.774 24 169.507 23.84C169.246 23.6747 169.041 23.448 168.891 23.16C168.747 22.872 168.675 22.5387 168.675 22.16C168.675 21.776 168.75 21.44 168.899 21.152C169.054 20.864 169.267 20.64 169.539 20.48C169.817 20.32 170.137 20.24 170.499 20.24C170.862 20.24 171.171 20.3173 171.427 20.472C171.689 20.6213 171.889 20.8373 172.027 21.12C172.166 21.4027 172.235 21.7387 172.235 22.128C172.235 22.1653 172.233 22.2053 172.227 22.248C172.227 22.2853 172.227 22.3093 172.227 22.32H169.083V21.776H171.723L171.467 22.144C171.483 22.1173 171.499 22.0773 171.515 22.024C171.531 21.9653 171.539 21.9173 171.539 21.88C171.539 21.6613 171.494 21.472 171.403 21.312C171.318 21.152 171.198 21.0267 171.043 20.936C170.889 20.8453 170.707 20.8 170.499 20.8C170.254 20.8 170.043 20.8533 169.867 20.96C169.697 21.0613 169.563 21.2107 169.467 21.408C169.377 21.6 169.329 21.8373 169.323 22.12C169.323 22.408 169.369 22.6533 169.459 22.856C169.55 23.0587 169.683 23.2133 169.859 23.32C170.035 23.4267 170.249 23.48 170.499 23.48C170.75 23.48 170.971 23.4267 171.163 23.32C171.355 23.208 171.518 23.04 171.651 22.816L172.171 23.144C171.979 23.4533 171.737 23.688 171.443 23.848C171.155 24.0027 170.814 24.08 170.419 24.08ZM176.599 22.16C176.599 22.416 176.652 22.6427 176.759 22.84C176.871 23.0373 177.02 23.1947 177.207 23.312C177.399 23.424 177.615 23.48 177.855 23.48C178.052 23.48 178.236 23.4507 178.407 23.392C178.583 23.328 178.735 23.2453 178.863 23.144C178.991 23.0373 179.082 22.9253 179.135 22.808V23.608C179.007 23.7573 178.823 23.8747 178.583 23.96C178.348 24.04 178.106 24.08 177.855 24.08C177.498 24.08 177.175 23.9973 176.887 23.832C176.599 23.6667 176.37 23.44 176.199 23.152C176.034 22.8587 175.951 22.528 175.951 22.16C175.951 21.7867 176.034 21.456 176.199 21.168C176.37 20.88 176.599 20.6533 176.887 20.488C177.175 20.3227 177.498 20.24 177.855 20.24C178.106 20.24 178.348 20.2827 178.583 20.368C178.823 20.448 179.007 20.5627 179.135 20.712V21.512C179.082 21.3893 178.991 21.2773 178.863 21.176C178.735 21.0747 178.583 20.9947 178.407 20.936C178.236 20.872 178.052 20.84 177.855 20.84C177.615 20.84 177.399 20.896 177.207 21.008C177.02 21.12 176.871 21.2773 176.759 21.48C176.652 21.6773 176.599 21.904 176.599 22.16ZM180.211 22.16C180.211 21.7867 180.294 21.456 180.459 21.168C180.63 20.88 180.859 20.6533 181.147 20.488C181.435 20.3227 181.758 20.24 182.115 20.24C182.478 20.24 182.801 20.3227 183.083 20.488C183.371 20.6533 183.598 20.88 183.763 21.168C183.934 21.456 184.019 21.7867 184.019 22.16C184.019 22.528 183.934 22.8587 183.763 23.152C183.598 23.44 183.371 23.6667 183.083 23.832C182.801 23.9973 182.478 24.08 182.115 24.08C181.758 24.08 181.435 23.9973 181.147 23.832C180.859 23.6667 180.63 23.44 180.459 23.152C180.294 22.8587 180.211 22.528 180.211 22.16ZM180.859 22.16C180.859 22.416 180.913 22.6427 181.019 22.84C181.131 23.0373 181.281 23.1947 181.467 23.312C181.659 23.424 181.875 23.48 182.115 23.48C182.355 23.48 182.569 23.424 182.755 23.312C182.947 23.1947 183.097 23.0373 183.203 22.84C183.315 22.6427 183.371 22.416 183.371 22.16C183.371 21.904 183.315 21.6773 183.203 21.48C183.097 21.2773 182.947 21.12 182.755 21.008C182.569 20.896 182.355 20.84 182.115 20.84C181.875 20.84 181.659 20.896 181.467 21.008C181.281 21.12 181.131 21.2773 181.019 21.48C180.913 21.6773 180.859 21.904 180.859 22.16ZM187.658 21.76C187.658 21.456 187.592 21.2267 187.458 21.072C187.325 20.9173 187.13 20.84 186.874 20.84C186.688 20.84 186.522 20.88 186.378 20.96C186.24 21.0347 186.13 21.1413 186.05 21.28C185.976 21.4187 185.938 21.5787 185.938 21.76V24H185.298V20.32H185.938V20.896C186.061 20.672 186.213 20.5067 186.394 20.4C186.581 20.2933 186.794 20.24 187.034 20.24C187.424 20.24 187.73 20.3707 187.954 20.632C188.184 20.888 188.298 21.2373 188.298 21.68V24H187.658V21.76ZM190.19 22.16C190.19 22.416 190.243 22.6427 190.35 22.84C190.462 23.0373 190.611 23.1947 190.798 23.312C190.99 23.424 191.206 23.48 191.446 23.48C191.643 23.48 191.827 23.4507 191.998 23.392C192.174 23.328 192.326 23.2453 192.454 23.144C192.582 23.0373 192.672 22.9253 192.726 22.808V23.608C192.598 23.7573 192.414 23.8747 192.174 23.96C191.939 24.04 191.696 24.08 191.446 24.08C191.088 24.08 190.766 23.9973 190.478 23.832C190.19 23.6667 189.96 23.44 189.79 23.152C189.624 22.8587 189.542 22.528 189.542 22.16C189.542 21.7867 189.624 21.456 189.79 21.168C189.96 20.88 190.19 20.6533 190.478 20.488C190.766 20.3227 191.088 20.24 191.446 20.24C191.696 20.24 191.939 20.2827 192.174 20.368C192.414 20.448 192.598 20.5627 192.726 20.712V21.512C192.672 21.3893 192.582 21.2773 192.454 21.176C192.326 21.0747 192.174 20.9947 191.998 20.936C191.827 20.872 191.643 20.84 191.446 20.84C191.206 20.84 190.99 20.896 190.798 21.008C190.611 21.12 190.462 21.2773 190.35 21.48C190.243 21.6773 190.19 21.904 190.19 22.16ZM191.366 23.528H191.846L191.342 24.424C191.352 24.424 191.363 24.424 191.374 24.424C191.39 24.424 191.403 24.424 191.414 24.424C191.504 24.424 191.592 24.4453 191.678 24.488C191.768 24.536 191.843 24.6027 191.902 24.688C191.96 24.7733 191.99 24.8827 191.99 25.016C191.99 25.176 191.95 25.312 191.87 25.424C191.79 25.536 191.686 25.6213 191.558 25.68C191.43 25.7387 191.291 25.768 191.142 25.768C190.992 25.768 190.862 25.744 190.75 25.696C190.643 25.6533 190.534 25.576 190.422 25.464L190.694 25.144C190.768 25.208 190.835 25.256 190.894 25.288C190.958 25.32 191.04 25.336 191.142 25.336C191.28 25.336 191.382 25.3067 191.446 25.248C191.51 25.1893 191.542 25.112 191.542 25.016C191.542 24.92 191.51 24.848 191.446 24.8C191.382 24.752 191.28 24.728 191.142 24.728C191.104 24.728 191.038 24.736 190.942 24.752C190.851 24.7733 190.763 24.8133 190.678 24.872L191.366 23.528ZM194.762 22.56C194.762 22.8533 194.829 23.08 194.962 23.24C195.095 23.4 195.29 23.48 195.546 23.48C195.733 23.48 195.895 23.4427 196.034 23.368C196.178 23.288 196.287 23.1787 196.362 23.04C196.442 22.9013 196.482 22.7413 196.482 22.56V20.32H197.122V24H196.482V23.424C196.359 23.6427 196.207 23.808 196.026 23.92C195.845 24.0267 195.631 24.08 195.386 24.08C195.002 24.08 194.695 23.9493 194.466 23.688C194.237 23.4267 194.122 23.0773 194.122 22.64V20.32H194.762V22.56ZM201.811 22.864C201.811 23.0027 201.843 23.1227 201.907 23.224C201.977 23.3253 202.07 23.4027 202.187 23.456C202.31 23.504 202.449 23.528 202.603 23.528C202.801 23.528 202.977 23.488 203.131 23.408C203.291 23.328 203.417 23.216 203.507 23.072C203.603 22.9227 203.651 22.752 203.651 22.56L203.779 23.04C203.779 23.2747 203.707 23.4693 203.563 23.624C203.425 23.7787 203.251 23.8933 203.043 23.968C202.841 24.0427 202.638 24.08 202.435 24.08C202.211 24.08 202.001 24.0347 201.803 23.944C201.611 23.848 201.457 23.712 201.339 23.536C201.222 23.36 201.163 23.1467 201.163 22.896C201.163 22.5387 201.289 22.2533 201.539 22.04C201.795 21.8213 202.15 21.712 202.603 21.712C202.87 21.712 203.091 21.744 203.267 21.808C203.449 21.8667 203.593 21.936 203.699 22.016C203.806 22.0907 203.878 22.152 203.915 22.2V22.576C203.729 22.448 203.537 22.3573 203.339 22.304C203.142 22.2453 202.931 22.216 202.707 22.216C202.499 22.216 202.329 22.2427 202.195 22.296C202.067 22.3493 201.971 22.424 201.907 22.52C201.843 22.616 201.811 22.7307 201.811 22.864ZM201.715 21.168L201.403 20.696C201.542 20.5947 201.731 20.4933 201.971 20.392C202.217 20.2907 202.51 20.24 202.851 20.24C203.139 20.24 203.39 20.2853 203.603 20.376C203.822 20.4613 203.99 20.5867 204.107 20.752C204.23 20.9173 204.291 21.12 204.291 21.36V24H203.651V21.448C203.651 21.32 203.63 21.216 203.587 21.136C203.545 21.0507 203.483 20.984 203.403 20.936C203.329 20.888 203.241 20.8533 203.139 20.832C203.038 20.8107 202.931 20.8 202.819 20.8C202.638 20.8 202.473 20.8213 202.323 20.864C202.179 20.9067 202.057 20.9573 201.955 21.016C201.854 21.0747 201.774 21.1253 201.715 21.168ZM205.136 20.32H205.856L206.896 22.92L207.936 20.32H208.656L206.896 24.28L205.136 20.32ZM210.966 24.08C210.625 24.08 210.321 24 210.054 23.84C209.793 23.6747 209.588 23.448 209.438 23.16C209.294 22.872 209.222 22.5387 209.222 22.16C209.222 21.776 209.297 21.44 209.446 21.152C209.601 20.864 209.814 20.64 210.086 20.48C210.364 20.32 210.684 20.24 211.046 20.24C211.409 20.24 211.718 20.3173 211.974 20.472C212.236 20.6213 212.436 20.8373 212.574 21.12C212.713 21.4027 212.782 21.7387 212.782 22.128C212.782 22.1653 212.78 22.2053 212.774 22.248C212.774 22.2853 212.774 22.3093 212.774 22.32H209.63V21.776H212.27L212.014 22.144C212.03 22.1173 212.046 22.0773 212.062 22.024C212.078 21.9653 212.086 21.9173 212.086 21.88C212.086 21.6613 212.041 21.472 211.95 21.312C211.865 21.152 211.745 21.0267 211.59 20.936C211.436 20.8453 211.254 20.8 211.046 20.8C210.801 20.8 210.59 20.8533 210.414 20.96C210.244 21.0613 210.11 21.2107 210.014 21.408C209.924 21.6 209.876 21.8373 209.87 22.12C209.87 22.408 209.916 22.6533 210.006 22.856C210.097 23.0587 210.23 23.2133 210.406 23.32C210.582 23.4267 210.796 23.48 211.046 23.48C211.297 23.48 211.518 23.4267 211.71 23.32C211.902 23.208 212.065 23.04 212.198 22.816L212.718 23.144C212.526 23.4533 212.284 23.688 211.99 23.848C211.702 24.0027 211.361 24.08 210.966 24.08ZM214.347 22.16C214.347 22.416 214.401 22.6427 214.507 22.84C214.619 23.0373 214.769 23.1947 214.955 23.312C215.147 23.424 215.363 23.48 215.603 23.48C215.801 23.48 215.985 23.4507 216.155 23.392C216.331 23.328 216.483 23.2453 216.611 23.144C216.739 23.0373 216.83 22.9253 216.883 22.808V23.608C216.755 23.7573 216.571 23.8747 216.331 23.96C216.097 24.04 215.854 24.08 215.603 24.08C215.246 24.08 214.923 23.9973 214.635 23.832C214.347 23.6667 214.118 23.44 213.947 23.152C213.782 22.8587 213.699 22.528 213.699 22.16C213.699 21.7867 213.782 21.456 213.947 21.168C214.118 20.88 214.347 20.6533 214.635 20.488C214.923 20.3227 215.246 20.24 215.603 20.24C215.854 20.24 216.097 20.2827 216.331 20.368C216.571 20.448 216.755 20.5627 216.883 20.712V21.512C216.83 21.3893 216.739 21.2773 216.611 21.176C216.483 21.0747 216.331 20.9947 216.155 20.936C215.985 20.872 215.801 20.84 215.603 20.84C215.363 20.84 215.147 20.896 214.955 21.008C214.769 21.12 214.619 21.2773 214.507 21.48C214.401 21.6773 214.347 21.904 214.347 22.16ZM221.678 25.76H221.038V20.32H221.678V25.76ZM224.758 22.16C224.758 22.5547 224.675 22.896 224.51 23.184C224.345 23.472 224.123 23.6933 223.846 23.848C223.574 24.0027 223.27 24.08 222.934 24.08C222.63 24.08 222.361 24.0027 222.126 23.848C221.897 23.6933 221.715 23.472 221.582 23.184C221.454 22.896 221.39 22.5547 221.39 22.16C221.39 21.76 221.454 21.4187 221.582 21.136C221.715 20.848 221.897 20.6267 222.126 20.472C222.361 20.3173 222.63 20.24 222.934 20.24C223.27 20.24 223.574 20.3173 223.846 20.472C224.123 20.6267 224.345 20.848 224.51 21.136C224.675 21.4187 224.758 21.76 224.758 22.16ZM224.11 22.16C224.11 21.8773 224.051 21.6373 223.934 21.44C223.822 21.2427 223.67 21.0933 223.478 20.992C223.291 20.8907 223.083 20.84 222.854 20.84C222.667 20.84 222.483 20.8907 222.302 20.992C222.121 21.0933 221.971 21.2427 221.854 21.44C221.737 21.6373 221.678 21.8773 221.678 22.16C221.678 22.4427 221.737 22.6827 221.854 22.88C221.971 23.0773 222.121 23.2267 222.302 23.328C222.483 23.4293 222.667 23.48 222.854 23.48C223.083 23.48 223.291 23.4293 223.478 23.328C223.67 23.2267 223.822 23.0773 223.934 22.88C224.051 22.6827 224.11 22.4427 224.11 22.16ZM226.681 20.32V24H226.041V20.32H226.681ZM227.793 21.024C227.707 20.96 227.63 20.9147 227.561 20.888C227.491 20.856 227.403 20.84 227.297 20.84C227.137 20.84 227.011 20.88 226.921 20.96C226.83 21.04 226.766 21.1493 226.729 21.288C226.697 21.4267 226.681 21.584 226.681 21.76H226.393C226.393 21.4667 226.443 21.208 226.545 20.984C226.651 20.7547 226.787 20.5733 226.953 20.44C227.118 20.3067 227.286 20.24 227.457 20.24C227.59 20.24 227.713 20.2587 227.825 20.296C227.942 20.328 228.049 20.3947 228.145 20.496L227.793 21.024ZM229.154 22.32V21.776H231.61C231.588 21.584 231.535 21.416 231.45 21.272C231.37 21.1227 231.255 21.008 231.106 20.928C230.962 20.8427 230.783 20.8 230.57 20.8C230.356 20.8 230.162 20.8453 229.986 20.936C229.81 21.0267 229.668 21.1573 229.562 21.328C229.46 21.4933 229.41 21.6907 229.41 21.92L229.394 22.16C229.394 22.4427 229.442 22.6827 229.538 22.88C229.634 23.0773 229.77 23.2267 229.946 23.328C230.122 23.4293 230.33 23.48 230.57 23.48C230.751 23.48 230.911 23.4533 231.05 23.4C231.194 23.3413 231.322 23.264 231.434 23.168C231.546 23.0667 231.642 22.9493 231.722 22.816L232.242 23.144C232.119 23.3307 231.983 23.496 231.834 23.64C231.684 23.7787 231.503 23.888 231.29 23.968C231.076 24.0427 230.81 24.08 230.49 24.08C230.159 24.08 229.86 23.9973 229.594 23.832C229.332 23.6667 229.124 23.44 228.97 23.152C228.82 22.8587 228.746 22.528 228.746 22.16C228.746 22.0907 228.748 22.024 228.754 21.96C228.759 21.896 228.767 21.832 228.778 21.768C228.831 21.464 228.938 21.1973 229.098 20.968C229.258 20.7387 229.463 20.56 229.714 20.432C229.97 20.304 230.255 20.24 230.57 20.24C230.916 20.24 231.22 20.3173 231.482 20.472C231.743 20.6267 231.946 20.8453 232.09 21.128C232.234 21.4053 232.306 21.7387 232.306 22.128C232.306 22.16 232.306 22.192 232.306 22.224C232.306 22.256 232.303 22.288 232.298 22.32H229.154ZM231.85 18.48L230.41 19.68L230.05 19.44L231.25 18.16L231.85 18.48ZM233.871 22.16C233.871 22.416 233.924 22.6427 234.031 22.84C234.143 23.0373 234.292 23.1947 234.479 23.312C234.671 23.424 234.887 23.48 235.127 23.48C235.324 23.48 235.508 23.4507 235.679 23.392C235.855 23.328 236.007 23.2453 236.135 23.144C236.263 23.0373 236.353 22.9253 236.407 22.808V23.608C236.279 23.7573 236.095 23.8747 235.855 23.96C235.62 24.04 235.377 24.08 235.127 24.08C234.769 24.08 234.447 23.9973 234.159 23.832C233.871 23.6667 233.641 23.44 233.471 23.152C233.305 22.8587 233.223 22.528 233.223 22.16C233.223 21.7867 233.305 21.456 233.471 21.168C233.641 20.88 233.871 20.6533 234.159 20.488C234.447 20.3227 234.769 20.24 235.127 20.24C235.377 20.24 235.62 20.2827 235.855 20.368C236.095 20.448 236.279 20.5627 236.407 20.712V21.512C236.353 21.3893 236.263 21.2773 236.135 21.176C236.007 21.0747 235.855 20.9947 235.679 20.936C235.508 20.872 235.324 20.84 235.127 20.84C234.887 20.84 234.671 20.896 234.479 21.008C234.292 21.12 234.143 21.2773 234.031 21.48C233.924 21.6773 233.871 21.904 233.871 22.16ZM238.091 22.864C238.091 23.0027 238.123 23.1227 238.187 23.224C238.256 23.3253 238.35 23.4027 238.467 23.456C238.59 23.504 238.728 23.528 238.883 23.528C239.08 23.528 239.256 23.488 239.411 23.408C239.571 23.328 239.696 23.216 239.787 23.072C239.883 22.9227 239.931 22.752 239.931 22.56L240.059 23.04C240.059 23.2747 239.987 23.4693 239.843 23.624C239.704 23.7787 239.531 23.8933 239.323 23.968C239.12 24.0427 238.918 24.08 238.715 24.08C238.491 24.08 238.28 24.0347 238.083 23.944C237.891 23.848 237.736 23.712 237.619 23.536C237.502 23.36 237.443 23.1467 237.443 22.896C237.443 22.5387 237.568 22.2533 237.819 22.04C238.075 21.8213 238.43 21.712 238.883 21.712C239.15 21.712 239.371 21.744 239.547 21.808C239.728 21.8667 239.872 21.936 239.979 22.016C240.086 22.0907 240.158 22.152 240.195 22.2V22.576C240.008 22.448 239.816 22.3573 239.619 22.304C239.422 22.2453 239.211 22.216 238.987 22.216C238.779 22.216 238.608 22.2427 238.475 22.296C238.347 22.3493 238.251 22.424 238.187 22.52C238.123 22.616 238.091 22.7307 238.091 22.864ZM237.995 21.168L237.683 20.696C237.822 20.5947 238.011 20.4933 238.251 20.392C238.496 20.2907 238.79 20.24 239.131 20.24C239.419 20.24 239.67 20.2853 239.883 20.376C240.102 20.4613 240.27 20.5867 240.387 20.752C240.51 20.9173 240.571 21.12 240.571 21.36V24H239.931V21.448C239.931 21.32 239.91 21.216 239.867 21.136C239.824 21.0507 239.763 20.984 239.683 20.936C239.608 20.888 239.52 20.8533 239.419 20.832C239.318 20.8107 239.211 20.8 239.099 20.8C238.918 20.8 238.752 20.8213 238.603 20.864C238.459 20.9067 238.336 20.9573 238.235 21.016C238.134 21.0747 238.054 21.1253 237.995 21.168ZM242.695 22.56C242.695 22.8533 242.761 23.08 242.895 23.24C243.028 23.4 243.223 23.48 243.479 23.48C243.665 23.48 243.828 23.4427 243.967 23.368C244.111 23.288 244.22 23.1787 244.295 23.04C244.375 22.9013 244.415 22.7413 244.415 22.56V20.32H245.055V24H244.415V23.424C244.292 23.6427 244.14 23.808 243.959 23.92C243.777 24.0267 243.564 24.08 243.319 24.08C242.935 24.08 242.628 23.9493 242.399 23.688C242.169 23.4267 242.055 23.0773 242.055 22.64V20.32H242.695V22.56ZM246.098 20.32H247.938V20.92H246.098V20.32ZM246.698 19.04H247.338V24H246.698V19.04ZM248.98 18.8C248.98 18.6773 249.022 18.5733 249.108 18.488C249.198 18.4027 249.302 18.36 249.42 18.36C249.542 18.36 249.646 18.4027 249.732 18.488C249.817 18.5733 249.86 18.6773 249.86 18.8C249.86 18.9173 249.817 19.0213 249.732 19.112C249.646 19.1973 249.542 19.24 249.42 19.24C249.302 19.24 249.198 19.1973 249.108 19.112C249.022 19.0213 248.98 18.9173 248.98 18.8ZM249.1 20.32H249.74V24H249.1V20.32ZM251.138 22.16C251.138 21.7867 251.22 21.456 251.386 21.168C251.556 20.88 251.786 20.6533 252.074 20.488C252.362 20.3227 252.684 20.24 253.042 20.24C253.404 20.24 253.727 20.3227 254.01 20.488C254.298 20.6533 254.524 20.88 254.69 21.168C254.86 21.456 254.946 21.7867 254.946 22.16C254.946 22.528 254.86 22.8587 254.69 23.152C254.524 23.44 254.298 23.6667 254.01 23.832C253.727 23.9973 253.404 24.08 253.042 24.08C252.684 24.08 252.362 23.9973 252.074 23.832C251.786 23.6667 251.556 23.44 251.386 23.152C251.22 22.8587 251.138 22.528 251.138 22.16ZM251.786 22.16C251.786 22.416 251.839 22.6427 251.946 22.84C252.058 23.0373 252.207 23.1947 252.394 23.312C252.586 23.424 252.802 23.48 253.042 23.48C253.282 23.48 253.495 23.424 253.682 23.312C253.874 23.1947 254.023 23.0373 254.13 22.84C254.242 22.6427 254.298 22.416 254.298 22.16C254.298 21.904 254.242 21.6773 254.13 21.48C254.023 21.2773 253.874 21.12 253.682 21.008C253.495 20.896 253.282 20.84 253.042 20.84C252.802 20.84 252.586 20.896 252.394 21.008C252.207 21.12 252.058 21.2773 251.946 21.48C251.839 21.6773 251.786 21.904 251.786 22.16ZM258.585 21.76C258.585 21.456 258.518 21.2267 258.385 21.072C258.252 20.9173 258.057 20.84 257.801 20.84C257.614 20.84 257.449 20.88 257.305 20.96C257.166 21.0347 257.057 21.1413 256.977 21.28C256.902 21.4187 256.865 21.5787 256.865 21.76V24H256.225V20.32H256.865V20.896C256.988 20.672 257.14 20.5067 257.321 20.4C257.508 20.2933 257.721 20.24 257.961 20.24C258.35 20.24 258.657 20.3707 258.881 20.632C259.11 20.888 259.225 21.2373 259.225 21.68V24H258.585V21.76ZM260.988 23.68C260.988 23.5573 261.031 23.4533 261.116 23.368C261.207 23.2827 261.311 23.24 261.428 23.24C261.551 23.24 261.655 23.2827 261.74 23.368C261.825 23.4533 261.868 23.5573 261.868 23.68C261.868 23.7973 261.825 23.9013 261.74 23.992C261.655 24.0773 261.551 24.12 261.428 24.12C261.311 24.12 261.207 24.0773 261.116 23.992C261.031 23.9013 260.988 23.7973 260.988 23.68ZM129.464 36.832C129.523 36.9227 129.608 36.992 129.72 37.04C129.827 37.0933 129.952 37.12 130.096 37.12C130.219 37.12 130.339 37.064 130.456 36.952C130.579 36.8453 130.64 36.6613 130.64 36.4V30.4H131.28V36.48C131.28 36.6987 131.251 36.888 131.192 37.048C131.139 37.208 131.059 37.3413 130.952 37.448C130.845 37.5547 130.715 37.632 130.56 37.68C130.411 37.7333 130.243 37.76 130.056 37.76C129.917 37.76 129.784 37.736 129.656 37.688C129.523 37.6453 129.411 37.592 129.32 37.528C129.224 37.4693 129.155 37.4133 129.112 37.36L129.464 36.832ZM134.346 36.08C134.005 36.08 133.701 36 133.434 35.84C133.173 35.6747 132.967 35.448 132.818 35.16C132.674 34.872 132.602 34.5387 132.602 34.16C132.602 33.776 132.677 33.44 132.826 33.152C132.981 32.864 133.194 32.64 133.466 32.48C133.743 32.32 134.063 32.24 134.426 32.24C134.789 32.24 135.098 32.3173 135.354 32.472C135.615 32.6213 135.815 32.8373 135.954 33.12C136.093 33.4027 136.162 33.7387 136.162 34.128C136.162 34.1653 136.159 34.2053 136.154 34.248C136.154 34.2853 136.154 34.3093 136.154 34.32H133.01V33.776H135.65L135.394 34.144C135.41 34.1173 135.426 34.0773 135.442 34.024C135.458 33.9653 135.466 33.9173 135.466 33.88C135.466 33.6613 135.421 33.472 135.33 33.312C135.245 33.152 135.125 33.0267 134.97 32.936C134.815 32.8453 134.634 32.8 134.426 32.8C134.181 32.8 133.97 32.8533 133.794 32.96C133.623 33.0613 133.49 33.2107 133.394 33.408C133.303 33.6 133.255 33.8373 133.25 34.12C133.25 34.408 133.295 34.6533 133.386 34.856C133.477 35.0587 133.61 35.2133 133.786 35.32C133.962 35.4267 134.175 35.48 134.426 35.48C134.677 35.48 134.898 35.4267 135.09 35.32C135.282 35.208 135.445 35.04 135.578 34.816L136.098 35.144C135.906 35.4533 135.663 35.688 135.37 35.848C135.082 36.0027 134.741 36.08 134.346 36.08ZM140.877 32.32V36H140.237V32.32H140.877ZM141.989 33.024C141.904 32.96 141.827 32.9147 141.757 32.888C141.688 32.856 141.6 32.84 141.493 32.84C141.333 32.84 141.208 32.88 141.117 32.96C141.027 33.04 140.963 33.1493 140.925 33.288C140.893 33.4267 140.877 33.584 140.877 33.76H140.589C140.589 33.4667 140.64 33.208 140.741 32.984C140.848 32.7547 140.984 32.5733 141.149 32.44C141.315 32.3067 141.483 32.24 141.653 32.24C141.787 32.24 141.909 32.2587 142.021 32.296C142.139 32.328 142.246 32.3947 142.342 32.496L141.989 33.024ZM144.687 36.08C144.345 36.08 144.041 36 143.775 35.84C143.513 35.6747 143.308 35.448 143.159 35.16C143.015 34.872 142.943 34.5387 142.943 34.16C142.943 33.776 143.017 33.44 143.167 33.152C143.321 32.864 143.535 32.64 143.807 32.48C144.084 32.32 144.404 32.24 144.767 32.24C145.129 32.24 145.439 32.3173 145.695 32.472C145.956 32.6213 146.156 32.8373 146.295 33.12C146.433 33.4027 146.503 33.7387 146.503 34.128C146.503 34.1653 146.5 34.2053 146.495 34.248C146.495 34.2853 146.495 34.3093 146.495 34.32H143.351V33.776H145.991L145.735 34.144C145.751 34.1173 145.767 34.0773 145.783 34.024C145.799 33.9653 145.807 33.9173 145.807 33.88C145.807 33.6613 145.761 33.472 145.671 33.312C145.585 33.152 145.465 33.0267 145.311 32.936C145.156 32.8453 144.975 32.8 144.767 32.8C144.521 32.8 144.311 32.8533 144.135 32.96C143.964 33.0613 143.831 33.2107 143.735 33.408C143.644 33.6 143.596 33.8373 143.591 34.12C143.591 34.408 143.636 34.6533 143.727 34.856C143.817 35.0587 143.951 35.2133 144.127 35.32C144.303 35.4267 144.516 35.48 144.767 35.48C145.017 35.48 145.239 35.4267 145.431 35.32C145.623 35.208 145.785 35.04 145.919 34.816L146.439 35.144C146.247 35.4533 146.004 35.688 145.711 35.848C145.423 36.0027 145.081 36.08 144.687 36.08ZM148.068 34.16C148.068 34.416 148.121 34.6427 148.228 34.84C148.34 35.0373 148.489 35.1947 148.676 35.312C148.868 35.424 149.084 35.48 149.324 35.48C149.521 35.48 149.705 35.4507 149.876 35.392C150.052 35.328 150.204 35.2453 150.332 35.144C150.46 35.0373 150.55 34.9253 150.604 34.808V35.608C150.476 35.7573 150.292 35.8747 150.052 35.96C149.817 36.04 149.574 36.08 149.324 36.08C148.966 36.08 148.644 35.9973 148.356 35.832C148.068 35.6667 147.838 35.44 147.668 35.152C147.502 34.8587 147.42 34.528 147.42 34.16C147.42 33.7867 147.502 33.456 147.668 33.168C147.838 32.88 148.068 32.6533 148.356 32.488C148.644 32.3227 148.966 32.24 149.324 32.24C149.574 32.24 149.817 32.2827 150.052 32.368C150.292 32.448 150.476 32.5627 150.604 32.712V33.512C150.55 33.3893 150.46 33.2773 150.332 33.176C150.204 33.0747 150.052 32.9947 149.876 32.936C149.705 32.872 149.521 32.84 149.324 32.84C149.084 32.84 148.868 32.896 148.676 33.008C148.489 33.12 148.34 33.2773 148.228 33.48C148.121 33.6773 148.068 33.904 148.068 34.16ZM151.68 34.16C151.68 33.7867 151.763 33.456 151.928 33.168C152.099 32.88 152.328 32.6533 152.616 32.488C152.904 32.3227 153.227 32.24 153.584 32.24C153.947 32.24 154.269 32.3227 154.552 32.488C154.84 32.6533 155.067 32.88 155.232 33.168C155.403 33.456 155.488 33.7867 155.488 34.16C155.488 34.528 155.403 34.8587 155.232 35.152C155.067 35.44 154.84 35.6667 154.552 35.832C154.269 35.9973 153.947 36.08 153.584 36.08C153.227 36.08 152.904 35.9973 152.616 35.832C152.328 35.6667 152.099 35.44 151.928 35.152C151.763 34.8587 151.68 34.528 151.68 34.16ZM152.328 34.16C152.328 34.416 152.381 34.6427 152.488 34.84C152.6 35.0373 152.749 35.1947 152.936 35.312C153.128 35.424 153.344 35.48 153.584 35.48C153.824 35.48 154.037 35.424 154.224 35.312C154.416 35.1947 154.565 35.0373 154.672 34.84C154.784 34.6427 154.84 34.416 154.84 34.16C154.84 33.904 154.784 33.6773 154.672 33.48C154.565 33.2773 154.416 33.12 154.224 33.008C154.037 32.896 153.824 32.84 153.584 32.84C153.344 32.84 153.128 32.896 152.936 33.008C152.749 33.12 152.6 33.2773 152.488 33.48C152.381 33.6773 152.328 33.904 152.328 34.16ZM161.807 33.68V36H161.167V33.76C161.167 33.4453 161.109 33.2133 160.991 33.064C160.879 32.9147 160.703 32.84 160.463 32.84C160.287 32.84 160.135 32.8773 160.007 32.952C159.879 33.0213 159.781 33.1253 159.711 33.264C159.642 33.4027 159.607 33.568 159.607 33.76V36H158.967V33.76C158.967 33.4453 158.909 33.2133 158.791 33.064C158.679 32.9147 158.503 32.84 158.263 32.84C158.087 32.84 157.935 32.8773 157.807 32.952C157.679 33.0213 157.581 33.1253 157.511 33.264C157.442 33.4027 157.407 33.568 157.407 33.76V36H156.767V32.32H157.407V32.856C157.519 32.648 157.658 32.4933 157.823 32.392C157.994 32.2907 158.194 32.24 158.423 32.24C158.679 32.24 158.898 32.3013 159.079 32.424C159.266 32.5413 159.402 32.7093 159.487 32.928C159.615 32.6987 159.775 32.528 159.967 32.416C160.159 32.2987 160.378 32.24 160.623 32.24C160.874 32.24 161.087 32.296 161.263 32.408C161.439 32.52 161.573 32.6853 161.663 32.904C161.759 33.1173 161.807 33.376 161.807 33.68ZM168.449 33.68V36H167.809V33.76C167.809 33.4453 167.751 33.2133 167.633 33.064C167.521 32.9147 167.345 32.84 167.105 32.84C166.929 32.84 166.777 32.8773 166.649 32.952C166.521 33.0213 166.423 33.1253 166.353 33.264C166.284 33.4027 166.249 33.568 166.249 33.76V36H165.609V33.76C165.609 33.4453 165.551 33.2133 165.433 33.064C165.321 32.9147 165.145 32.84 164.905 32.84C164.729 32.84 164.577 32.8773 164.449 32.952C164.321 33.0213 164.223 33.1253 164.153 33.264C164.084 33.4027 164.049 33.568 164.049 33.76V36H163.409V32.32H164.049V32.856C164.161 32.648 164.3 32.4933 164.465 32.392C164.636 32.2907 164.836 32.24 165.065 32.24C165.321 32.24 165.54 32.3013 165.721 32.424C165.908 32.5413 166.044 32.7093 166.129 32.928C166.257 32.6987 166.417 32.528 166.609 32.416C166.801 32.2987 167.02 32.24 167.265 32.24C167.516 32.24 167.729 32.296 167.905 32.408C168.081 32.52 168.215 32.6853 168.305 32.904C168.401 33.1173 168.449 33.376 168.449 33.68ZM170.34 34.864C170.34 35.0027 170.372 35.1227 170.436 35.224C170.505 35.3253 170.598 35.4027 170.716 35.456C170.838 35.504 170.977 35.528 171.132 35.528C171.329 35.528 171.505 35.488 171.66 35.408C171.82 35.328 171.945 35.216 172.036 35.072C172.132 34.9227 172.18 34.752 172.18 34.56L172.308 35.04C172.308 35.2747 172.236 35.4693 172.092 35.624C171.953 35.7787 171.78 35.8933 171.572 35.968C171.369 36.0427 171.166 36.08 170.964 36.08C170.74 36.08 170.529 36.0347 170.332 35.944C170.14 35.848 169.985 35.712 169.868 35.536C169.75 35.36 169.692 35.1467 169.692 34.896C169.692 34.5387 169.817 34.2533 170.068 34.04C170.324 33.8213 170.678 33.712 171.132 33.712C171.398 33.712 171.62 33.744 171.796 33.808C171.977 33.8667 172.121 33.936 172.228 34.016C172.334 34.0907 172.406 34.152 172.444 34.2V34.576C172.257 34.448 172.065 34.3573 171.868 34.304C171.67 34.2453 171.46 34.216 171.236 34.216C171.028 34.216 170.857 34.2427 170.724 34.296C170.596 34.3493 170.5 34.424 170.436 34.52C170.372 34.616 170.34 34.7307 170.34 34.864ZM170.244 33.168L169.932 32.696C170.07 32.5947 170.26 32.4933 170.5 32.392C170.745 32.2907 171.038 32.24 171.38 32.24C171.668 32.24 171.918 32.2853 172.132 32.376C172.35 32.4613 172.518 32.5867 172.636 32.752C172.758 32.9173 172.82 33.12 172.82 33.36V36H172.18V33.448C172.18 33.32 172.158 33.216 172.116 33.136C172.073 33.0507 172.012 32.984 171.932 32.936C171.857 32.888 171.769 32.8533 171.668 32.832C171.566 32.8107 171.46 32.8 171.348 32.8C171.166 32.8 171.001 32.8213 170.852 32.864C170.708 32.9067 170.585 32.9573 170.484 33.016C170.382 33.0747 170.302 33.1253 170.244 33.168ZM176.663 33.76C176.663 33.456 176.596 33.2267 176.463 33.072C176.33 32.9173 176.135 32.84 175.879 32.84C175.692 32.84 175.527 32.88 175.383 32.96C175.244 33.0347 175.135 33.1413 175.055 33.28C174.98 33.4187 174.943 33.5787 174.943 33.76V36H174.303V32.32H174.943V32.896C175.066 32.672 175.218 32.5067 175.399 32.4C175.586 32.2933 175.799 32.24 176.039 32.24C176.428 32.24 176.735 32.3707 176.959 32.632C177.188 32.888 177.303 33.2373 177.303 33.68V36H176.663V33.76ZM181.666 29.76H182.306V36H181.666V29.76ZM178.586 34.16C178.586 33.76 178.669 33.4187 178.834 33.136C179 32.848 179.221 32.6267 179.498 32.472C179.776 32.3173 180.08 32.24 180.41 32.24C180.72 32.24 180.989 32.3173 181.218 32.472C181.448 32.6267 181.626 32.848 181.754 33.136C181.888 33.4187 181.954 33.76 181.954 34.16C181.954 34.5547 181.888 34.896 181.754 35.184C181.626 35.472 181.448 35.6933 181.218 35.848C180.989 36.0027 180.72 36.08 180.41 36.08C180.08 36.08 179.776 36.0027 179.498 35.848C179.221 35.6933 179 35.472 178.834 35.184C178.669 34.896 178.586 34.5547 178.586 34.16ZM179.234 34.16C179.234 34.4427 179.29 34.6827 179.402 34.88C179.52 35.0773 179.674 35.2267 179.866 35.328C180.058 35.4293 180.266 35.48 180.49 35.48C180.677 35.48 180.861 35.4293 181.042 35.328C181.224 35.2267 181.373 35.0773 181.49 34.88C181.608 34.6827 181.666 34.4427 181.666 34.16C181.666 33.8773 181.608 33.6373 181.49 33.44C181.373 33.2427 181.224 33.0933 181.042 32.992C180.861 32.8907 180.677 32.84 180.49 32.84C180.266 32.84 180.058 32.8907 179.866 32.992C179.674 33.0933 179.52 33.2427 179.402 33.44C179.29 33.6373 179.234 33.8773 179.234 34.16ZM185.293 36.08C184.951 36.08 184.647 36 184.381 35.84C184.119 35.6747 183.914 35.448 183.765 35.16C183.621 34.872 183.549 34.5387 183.549 34.16C183.549 33.776 183.623 33.44 183.773 33.152C183.927 32.864 184.141 32.64 184.413 32.48C184.69 32.32 185.01 32.24 185.373 32.24C185.735 32.24 186.045 32.3173 186.301 32.472C186.562 32.6213 186.762 32.8373 186.901 33.12C187.039 33.4027 187.109 33.7387 187.109 34.128C187.109 34.1653 187.106 34.2053 187.101 34.248C187.101 34.2853 187.101 34.3093 187.101 34.32H183.957V33.776H186.597L186.341 34.144C186.357 34.1173 186.373 34.0773 186.389 34.024C186.405 33.9653 186.413 33.9173 186.413 33.88C186.413 33.6613 186.367 33.472 186.277 33.312C186.191 33.152 186.071 33.0267 185.917 32.936C185.762 32.8453 185.581 32.8 185.373 32.8C185.127 32.8 184.917 32.8533 184.741 32.96C184.57 33.0613 184.437 33.2107 184.341 33.408C184.25 33.6 184.202 33.8373 184.197 34.12C184.197 34.408 184.242 34.6533 184.333 34.856C184.423 35.0587 184.557 35.2133 184.733 35.32C184.909 35.4267 185.122 35.48 185.373 35.48C185.623 35.48 185.845 35.4267 186.037 35.32C186.229 35.208 186.391 35.04 186.525 34.816L187.045 35.144C186.853 35.4533 186.61 35.688 186.317 35.848C186.029 36.0027 185.687 36.08 185.293 36.08ZM191.384 30.4H192.184L192.024 34.4H191.544L191.384 30.4ZM191.344 35.68C191.344 35.5573 191.387 35.4533 191.472 35.368C191.563 35.2827 191.667 35.24 191.784 35.24C191.907 35.24 192.011 35.2827 192.096 35.368C192.182 35.4533 192.224 35.5573 192.224 35.68C192.224 35.7973 192.182 35.9013 192.096 35.992C192.011 36.0773 191.907 36.12 191.784 36.12C191.667 36.12 191.563 36.0773 191.472 35.992C191.387 35.9013 191.344 35.7973 191.344 35.68Z" fill="#111111"/>
<path d="M51 46.2C51 46.5253 51.032 46.8267 51.096 47.104C51.16 47.376 51.2533 47.6133 51.376 47.816C51.4987 48.0133 51.6453 48.168 51.816 48.28C51.992 48.3867 52.1867 48.44 52.4 48.44C52.6187 48.44 52.8133 48.3867 52.984 48.28C53.1547 48.168 53.3013 48.0133 53.424 47.816C53.5467 47.6133 53.64 47.376 53.704 47.104C53.768 46.8267 53.8 46.5253 53.8 46.2C53.8 45.8747 53.768 45.576 53.704 45.304C53.64 45.0267 53.5467 44.7893 53.424 44.592C53.3013 44.3893 53.1547 44.2347 52.984 44.128C52.8133 44.016 52.6187 43.96 52.4 43.96C52.1867 43.96 51.992 44.016 51.816 44.128C51.6453 44.2347 51.4987 44.3893 51.376 44.592C51.2533 44.7893 51.16 45.0267 51.096 45.304C51.032 45.576 51 45.8747 51 46.2ZM50.32 46.2C50.32 45.64 50.408 45.144 50.584 44.712C50.76 44.28 51.0027 43.9413 51.312 43.696C51.6267 43.4453 51.9893 43.32 52.4 43.32C52.8107 43.32 53.1707 43.4453 53.48 43.696C53.7947 43.9413 54.04 44.28 54.216 44.712C54.392 45.144 54.48 45.64 54.48 46.2C54.48 46.76 54.392 47.256 54.216 47.688C54.04 48.12 53.7947 48.4613 53.48 48.712C53.1707 48.9573 52.8107 49.08 52.4 49.08C51.9893 49.08 51.6267 48.9573 51.312 48.712C51.0027 48.4613 50.76 48.12 50.584 47.688C50.408 47.256 50.32 46.76 50.32 46.2ZM55.3569 47.88L58.4609 43.4H58.7409V49H58.0609V47.592V47.504V44.912L56.4769 47.28H58.3409H58.4769H59.6209V47.88H55.3569ZM63.6209 43.4H64.2609L61.0209 50.2H60.3809L63.6209 43.4ZM65.7781 46.2C65.7781 46.5253 65.8101 46.8267 65.8741 47.104C65.9381 47.376 66.0315 47.6133 66.1541 47.816C66.2768 48.0133 66.4235 48.168 66.5941 48.28C66.7701 48.3867 66.9648 48.44 67.1781 48.44C67.3968 48.44 67.5915 48.3867 67.7621 48.28C67.9328 48.168 68.0795 48.0133 68.2021 47.816C68.3248 47.6133 68.4181 47.376 68.4821 47.104C68.5461 46.8267 68.5781 46.5253 68.5781 46.2C68.5781 45.8747 68.5461 45.576 68.4821 45.304C68.4181 45.0267 68.3248 44.7893 68.2021 44.592C68.0795 44.3893 67.9328 44.2347 67.7621 44.128C67.5915 44.016 67.3968 43.96 67.1781 43.96C66.9648 43.96 66.7701 44.016 66.5941 44.128C66.4235 44.2347 66.2768 44.3893 66.1541 44.592C66.0315 44.7893 65.9381 45.0267 65.8741 45.304C65.8101 45.576 65.7781 45.8747 65.7781 46.2ZM65.0981 46.2C65.0981 45.64 65.1861 45.144 65.3621 44.712C65.5381 44.28 65.7808 43.9413 66.0901 43.696C66.4048 43.4453 66.7675 43.32 67.1781 43.32C67.5888 43.32 67.9488 43.4453 68.2581 43.696C68.5728 43.9413 68.8181 44.28 68.9941 44.712C69.1701 45.144 69.2581 45.64 69.2581 46.2C69.2581 46.76 69.1701 47.256 68.9941 47.688C68.8181 48.12 68.5728 48.4613 68.2581 48.712C67.9488 48.9573 67.5888 49.08 67.1781 49.08C66.7675 49.08 66.4048 48.9573 66.0901 48.712C65.7808 48.4613 65.5381 48.12 65.3621 47.688C65.1861 47.256 65.0981 46.76 65.0981 46.2ZM71.023 47.16C71.023 47.416 71.0763 47.6427 71.183 47.84C71.295 48.032 71.4443 48.184 71.631 48.296C71.823 48.408 72.039 48.464 72.279 48.464C72.519 48.464 72.7323 48.408 72.919 48.296C73.111 48.184 73.2603 48.032 73.367 47.84C73.479 47.6427 73.535 47.416 73.535 47.16C73.535 46.904 73.479 46.6773 73.367 46.48C73.2603 46.2773 73.111 46.12 72.919 46.008C72.7323 45.896 72.519 45.84 72.279 45.84C72.039 45.84 71.823 45.896 71.631 46.008C71.4443 46.12 71.295 46.2773 71.183 46.48C71.0763 46.6773 71.023 46.904 71.023 47.16ZM72.615 43.4H73.471L71.719 45.712L71.671 45.672C71.7777 45.5387 71.9003 45.4507 72.039 45.408C72.183 45.3653 72.3457 45.344 72.527 45.344C72.7563 45.344 72.9697 45.3893 73.167 45.48C73.3697 45.5707 73.5457 45.6987 73.695 45.864C73.8497 46.0293 73.9697 46.224 74.055 46.448C74.1403 46.6667 74.183 46.904 74.183 47.16C74.183 47.544 74.0977 47.88 73.927 48.168C73.7617 48.456 73.535 48.68 73.247 48.84C72.9643 49 72.6417 49.08 72.279 49.08C71.9217 49.08 71.599 49 71.311 48.84C71.023 48.68 70.7937 48.456 70.623 48.168C70.4577 47.88 70.375 47.544 70.375 47.16C70.375 46.9307 70.407 46.7173 70.471 46.52C70.535 46.3227 70.6203 46.1493 70.727 46L72.615 43.4ZM78.3444 43.4H78.9844L75.7444 50.2H75.1044L78.3444 43.4ZM79.6616 49L82.3096 46.176C82.4322 46.0427 82.5362 45.912 82.6216 45.784C82.7122 45.6507 82.7789 45.5173 82.8216 45.384C82.8696 45.2453 82.8936 45.1013 82.8936 44.952C82.8936 44.8293 82.8696 44.7093 82.8216 44.592C82.7736 44.4747 82.7016 44.368 82.6056 44.272C82.5149 44.176 82.4029 44.0987 82.2696 44.04C82.1362 43.9813 81.9842 43.952 81.8136 43.952C81.5736 43.952 81.3656 44.008 81.1896 44.12C81.0189 44.2267 80.8882 44.384 80.7976 44.592C80.7069 44.7947 80.6616 45.0373 80.6616 45.32H79.9816C79.9816 44.92 80.0536 44.5707 80.1976 44.272C80.3416 43.968 80.5496 43.7333 80.8216 43.568C81.0989 43.3973 81.4296 43.312 81.8136 43.312C82.1229 43.312 82.3896 43.3653 82.6136 43.472C82.8376 43.5733 83.0216 43.7067 83.1656 43.872C83.3096 44.032 83.4162 44.2053 83.4856 44.392C83.5549 44.5787 83.5896 44.7573 83.5896 44.928C83.5896 45.216 83.5202 45.5013 83.3816 45.784C83.2429 46.0667 83.0642 46.32 82.8456 46.544L81.0616 48.36H83.6136V49H79.6616ZM85.4562 46.2C85.4562 46.5253 85.4882 46.8267 85.5522 47.104C85.6162 47.376 85.7096 47.6133 85.8322 47.816C85.9549 48.0133 86.1016 48.168 86.2722 48.28C86.4482 48.3867 86.6429 48.44 86.8562 48.44C87.0749 48.44 87.2696 48.3867 87.4402 48.28C87.6109 48.168 87.7576 48.0133 87.8802 47.816C88.0029 47.6133 88.0962 47.376 88.1602 47.104C88.2242 46.8267 88.2562 46.5253 88.2562 46.2C88.2562 45.8747 88.2242 45.576 88.1602 45.304C88.0962 45.0267 88.0029 44.7893 87.8802 44.592C87.7576 44.3893 87.6109 44.2347 87.4402 44.128C87.2696 44.016 87.0749 43.96 86.8562 43.96C86.6429 43.96 86.4482 44.016 86.2722 44.128C86.1016 44.2347 85.9549 44.3893 85.8322 44.592C85.7096 44.7893 85.6162 45.0267 85.5522 45.304C85.4882 45.576 85.4562 45.8747 85.4562 46.2ZM84.7762 46.2C84.7762 45.64 84.8642 45.144 85.0402 44.712C85.2162 44.28 85.4589 43.9413 85.7682 43.696C86.0829 43.4453 86.4456 43.32 86.8562 43.32C87.2669 43.32 87.6269 43.4453 87.9362 43.696C88.2509 43.9413 88.4962 44.28 88.6722 44.712C88.8482 45.144 88.9362 45.64 88.9362 46.2C88.9362 46.76 88.8482 47.256 88.6722 47.688C88.4962 48.12 88.2509 48.4613 87.9362 48.712C87.6269 48.9573 87.2669 49.08 86.8562 49.08C86.4456 49.08 86.0829 48.9573 85.7682 48.712C85.4589 48.4613 85.2162 48.12 85.0402 47.688C84.8642 47.256 84.7762 46.76 84.7762 46.2ZM89.8131 49L92.4611 46.176C92.5838 46.0427 92.6878 45.912 92.7731 45.784C92.8638 45.6507 92.9305 45.5173 92.9731 45.384C93.0211 45.2453 93.0451 45.1013 93.0451 44.952C93.0451 44.8293 93.0211 44.7093 92.9731 44.592C92.9251 44.4747 92.8531 44.368 92.7571 44.272C92.6665 44.176 92.5545 44.0987 92.4211 44.04C92.2878 43.9813 92.1358 43.952 91.9651 43.952C91.7251 43.952 91.5171 44.008 91.3411 44.12C91.1705 44.2267 91.0398 44.384 90.9491 44.592C90.8585 44.7947 90.8131 45.0373 90.8131 45.32H90.1331C90.1331 44.92 90.2051 44.5707 90.3491 44.272C90.4931 43.968 90.7011 43.7333 90.9731 43.568C91.2505 43.3973 91.5811 43.312 91.9651 43.312C92.2745 43.312 92.5411 43.3653 92.7651 43.472C92.9891 43.5733 93.1731 43.7067 93.3171 43.872C93.4611 44.032 93.5678 44.2053 93.6371 44.392C93.7065 44.5787 93.7411 44.7573 93.7411 44.928C93.7411 45.216 93.6718 45.5013 93.5331 45.784C93.3945 46.0667 93.2158 46.32 92.9971 46.544L91.2131 48.36H93.7651V49H89.8131ZM94.7678 47.88L97.8718 43.4H98.1518V49H97.4718V47.592V47.504V44.912L95.8878 47.28H97.7518H97.8878H99.0318V47.88H94.7678Z" fill="#111111"/>
<line x1="120.15" y1="5" x2="120.15" y2="55" stroke="#111111" stroke-width="0.3"/>
<path d="M265 45.4854L265.755 47.8103L265.789 47.9139H265.898H268.343L266.365 49.3508L266.277 49.4148L266.31 49.5185L267.066 51.8434L265.088 50.4065L265 50.3425L264.912 50.4065L262.934 51.8434L263.69 49.5185L263.723 49.4148L263.635 49.3508L261.657 47.9139H264.102H264.211L264.245 47.8103L265 45.4854Z" fill="#FFF500" stroke="#111111" stroke-width="0.3"/>
<path d="M255 45.4854L255.755 47.8103L255.789 47.9139H255.898H258.343L256.365 49.3508L256.277 49.4148L256.31 49.5185L257.066 51.8434L255.088 50.4065L255 50.3425L254.912 50.4065L252.934 51.8434L253.69 49.5185L253.723 49.4148L253.635 49.3508L251.657 47.9139H254.102H254.211L254.245 47.8103L255 45.4854Z" fill="#FFF500" stroke="#111111" stroke-width="0.3"/>
<path d="M245 45.4854L245.755 47.8103L245.789 47.9139H245.898H248.343L246.365 49.3508L246.277 49.4148L246.31 49.5185L247.066 51.8434L245.088 50.4065L245 50.3425L244.912 50.4065L242.934 51.8434L243.69 49.5185L243.723 49.4148L243.635 49.3508L241.657 47.9139H244.102H244.211L244.245 47.8103L245 45.4854Z" fill="#FFF500" stroke="#111111" stroke-width="0.3"/>
<path d="M235 45.4854L235.755 47.8103L235.789 47.9139H235.898H238.343L236.365 49.3508L236.277 49.4148L236.31 49.5185L237.066 51.8434L235.088 50.4065L235 50.3425L234.912 50.4065L232.934 51.8434L233.69 49.5185L233.723 49.4148L233.635 49.3508L231.657 47.9139H234.102H234.211L234.245 47.8103L235 45.4854Z" fill="#FFF500" stroke="#111111" stroke-width="0.3"/>
<path d="M225 45.4854L225.755 47.8103L225.789 47.9139H225.898H228.343L226.365 49.3508L226.277 49.4148L226.31 49.5185L227.066 51.8434L225.088 50.4065L225 50.3425L224.912 50.4065L222.934 51.8434L223.69 49.5185L223.723 49.4148L223.635 49.3508L221.657 47.9139H224.102H224.211L224.245 47.8103L225 45.4854Z" fill="#FFF500" stroke="#111111" stroke-width="0.3"/>
</svg>
