<svg width="280" height="58" viewBox="0 0 280 58" fill="none" xmlns="http://www.w3.org/2000/svg">
<rect x="1" y="1" width="278" height="57" rx="15" fill="#92E28F" fill-opacity="0.81"/>
<circle cx="30" cy="30" r="20" fill="#F4F4F4"/>
<path d="M47.4658 39.744C45.728 42.859 43.1887 45.4526 40.1111 47.2559C37.0336 49.0592 33.5297 50.0066 29.9628 50C26.3958 49.9933 22.8955 49.0329 19.8247 47.2181C16.7539 45.4034 14.2243 42.8004 12.498 39.6789L30 30L47.4658 39.744Z" fill="#111111"/>
<circle cx="30" cy="25" r="9" fill="#111111"/>
<path d="M51.04 16.2C51.04 16.632 51.136 17.0133 51.328 17.344C51.5253 17.6747 51.7813 17.9333 52.096 18.12C52.4107 18.3067 52.752 18.4 53.12 18.4C53.3867 18.4 53.6293 18.3653 53.848 18.296C54.072 18.2267 54.2747 18.1307 54.456 18.008C54.6373 17.88 54.792 17.7333 54.92 17.568V18.464C54.6853 18.672 54.4293 18.8267 54.152 18.928C53.8747 19.0293 53.5307 19.08 53.12 19.08C52.7307 19.08 52.3653 19.0107 52.024 18.872C51.688 18.728 51.392 18.528 51.136 18.272C50.88 18.0107 50.68 17.704 50.536 17.352C50.392 17 50.32 16.616 50.32 16.2C50.32 15.784 50.392 15.4 50.536 15.048C50.68 14.696 50.88 14.392 51.136 14.136C51.392 13.8747 51.688 13.6747 52.024 13.536C52.3653 13.392 52.7307 13.32 53.12 13.32C53.5307 13.32 53.8747 13.3707 54.152 13.472C54.4293 13.5733 54.6853 13.728 54.92 13.936V14.832C54.792 14.6667 54.6373 14.5227 54.456 14.4C54.2747 14.272 54.072 14.1733 53.848 14.104C53.6293 14.0347 53.3867 14 53.12 14C52.752 14 52.4107 14.0933 52.096 14.28C51.7813 14.4667 51.5253 14.7253 51.328 15.056C51.136 15.3813 51.04 15.7627 51.04 16.2ZM56.4766 12.76H57.1166V19H56.4766V12.76ZM59.0083 17.864C59.0083 18.0027 59.0403 18.1227 59.1043 18.224C59.1736 18.3253 59.267 18.4027 59.3843 18.456C59.507 18.504 59.6456 18.528 59.8003 18.528C59.9976 18.528 60.1736 18.488 60.3283 18.408C60.4883 18.328 60.6136 18.216 60.7043 18.072C60.8003 17.9227 60.8483 17.752 60.8483 17.56L60.9763 18.04C60.9763 18.2747 60.9043 18.4693 60.7603 18.624C60.6216 18.7787 60.4483 18.8933 60.2403 18.968C60.0376 19.0427 59.835 19.08 59.6323 19.08C59.4083 19.08 59.1976 19.0347 59.0003 18.944C58.8083 18.848 58.6536 18.712 58.5363 18.536C58.419 18.36 58.3603 18.1467 58.3603 17.896C58.3603 17.5387 58.4856 17.2533 58.7363 17.04C58.9923 16.8213 59.347 16.712 59.8003 16.712C60.067 16.712 60.2883 16.744 60.4643 16.808C60.6456 16.8667 60.7896 16.936 60.8963 17.016C61.003 17.0907 61.075 17.152 61.1123 17.2V17.576C60.9256 17.448 60.7336 17.3573 60.5363 17.304C60.339 17.2453 60.1283 17.216 59.9043 17.216C59.6963 17.216 59.5256 17.2427 59.3923 17.296C59.2643 17.3493 59.1683 17.424 59.1043 17.52C59.0403 17.616 59.0083 17.7307 59.0083 17.864ZM58.9123 16.168L58.6003 15.696C58.739 15.5947 58.9283 15.4933 59.1683 15.392C59.4136 15.2907 59.707 15.24 60.0483 15.24C60.3363 15.24 60.587 15.2853 60.8003 15.376C61.019 15.4613 61.187 15.5867 61.3043 15.752C61.427 15.9173 61.4883 16.12 61.4883 16.36V19H60.8483V16.448C60.8483 16.32 60.827 16.216 60.7843 16.136C60.7416 16.0507 60.6803 15.984 60.6003 15.936C60.5256 15.888 60.4376 15.8533 60.3363 15.832C60.235 15.8107 60.1283 15.8 60.0163 15.8C59.835 15.8 59.6696 15.8213 59.5203 15.864C59.3763 15.9067 59.2536 15.9573 59.1523 16.016C59.051 16.0747 58.971 16.1253 58.9123 16.168ZM63.6119 15.32V19H62.9719V15.32H63.6119ZM64.7239 16.024C64.6385 15.96 64.5612 15.9147 64.4919 15.888C64.4225 15.856 64.3345 15.84 64.2279 15.84C64.0679 15.84 63.9425 15.88 63.8519 15.96C63.7612 16.04 63.6972 16.1493 63.6599 16.288C63.6279 16.4267 63.6119 16.584 63.6119 16.76H63.3239C63.3239 16.4667 63.3745 16.208 63.4759 15.984C63.5825 15.7547 63.7185 15.5733 63.8839 15.44C64.0492 15.3067 64.2172 15.24 64.3879 15.24C64.5212 15.24 64.6439 15.2587 64.7559 15.296C64.8732 15.328 64.9799 15.3947 65.0759 15.496L64.7239 16.024ZM66.4021 17.864C66.4021 18.0027 66.4341 18.1227 66.4981 18.224C66.5674 18.3253 66.6607 18.4027 66.7781 18.456C66.9007 18.504 67.0394 18.528 67.1941 18.528C67.3914 18.528 67.5674 18.488 67.7221 18.408C67.8821 18.328 68.0074 18.216 68.0981 18.072C68.1941 17.9227 68.2421 17.752 68.2421 17.56L68.3701 18.04C68.3701 18.2747 68.2981 18.4693 68.1541 18.624C68.0154 18.7787 67.8421 18.8933 67.6341 18.968C67.4314 19.0427 67.2287 19.08 67.0261 19.08C66.8021 19.08 66.5914 19.0347 66.3941 18.944C66.2021 18.848 66.0474 18.712 65.9301 18.536C65.8127 18.36 65.7541 18.1467 65.7541 17.896C65.7541 17.5387 65.8794 17.2533 66.1301 17.04C66.3861 16.8213 66.7407 16.712 67.1941 16.712C67.4607 16.712 67.6821 16.744 67.8581 16.808C68.0394 16.8667 68.1834 16.936 68.2901 17.016C68.3967 17.0907 68.4687 17.152 68.5061 17.2V17.576C68.3194 17.448 68.1274 17.3573 67.9301 17.304C67.7327 17.2453 67.5221 17.216 67.2981 17.216C67.0901 17.216 66.9194 17.2427 66.7861 17.296C66.6581 17.3493 66.5621 17.424 66.4981 17.52C66.4341 17.616 66.4021 17.7307 66.4021 17.864ZM66.3061 16.168L65.9941 15.696C66.1327 15.5947 66.3221 15.4933 66.5621 15.392C66.8074 15.2907 67.1007 15.24 67.4421 15.24C67.7301 15.24 67.9807 15.2853 68.1941 15.376C68.4127 15.4613 68.5807 15.5867 68.6981 15.752C68.8207 15.9173 68.8821 16.12 68.8821 16.36V19H68.2421V16.448C68.2421 16.32 68.2207 16.216 68.1781 16.136C68.1354 16.0507 68.0741 15.984 67.9941 15.936C67.9194 15.888 67.8314 15.8533 67.7301 15.832C67.6287 15.8107 67.5221 15.8 67.4101 15.8C67.2287 15.8 67.0634 15.8213 66.9141 15.864C66.7701 15.9067 66.6474 15.9573 66.5461 16.016C66.4447 16.0747 66.3647 16.1253 66.3061 16.168ZM75.2041 17.736L77.0441 13.4H77.8041L75.2041 19.28L72.6041 13.4H73.3641L75.2041 17.736ZM78.8453 13.8C78.8453 13.6773 78.888 13.5733 78.9733 13.488C79.064 13.4027 79.168 13.36 79.2853 13.36C79.408 13.36 79.512 13.4027 79.5973 13.488C79.6826 13.5733 79.7253 13.6773 79.7253 13.8C79.7253 13.9173 79.6826 14.0213 79.5973 14.112C79.512 14.1973 79.408 14.24 79.2853 14.24C79.168 14.24 79.064 14.1973 78.9733 14.112C78.888 14.0213 78.8453 13.9173 78.8453 13.8ZM78.9653 15.32H79.6053V19H78.9653V15.32ZM81.0754 19.24H81.7234C81.7234 19.416 81.7714 19.5787 81.8674 19.728C81.9634 19.8827 82.0994 20.0053 82.2754 20.096C82.4514 20.192 82.6594 20.24 82.8994 20.24C83.0861 20.24 83.2701 20.1947 83.4514 20.104C83.6328 20.0133 83.7821 19.8693 83.8994 19.672C84.0221 19.48 84.0834 19.2293 84.0834 18.92V15.32H84.7234V18.92C84.7234 19.3413 84.6354 19.6933 84.4594 19.976C84.2834 20.264 84.0568 20.48 83.7794 20.624C83.5021 20.768 83.2088 20.84 82.8994 20.84C82.5421 20.84 82.2248 20.7733 81.9474 20.64C81.6754 20.5067 81.4621 20.3173 81.3074 20.072C81.1528 19.832 81.0754 19.5547 81.0754 19.24ZM81.0034 17.16C81.0034 16.76 81.0861 16.4187 81.2514 16.136C81.4168 15.848 81.6381 15.6267 81.9154 15.472C82.1928 15.3173 82.4968 15.24 82.8274 15.24C83.1368 15.24 83.4061 15.3173 83.6354 15.472C83.8648 15.6267 84.0434 15.848 84.1714 16.136C84.3048 16.4187 84.3714 16.76 84.3714 17.16C84.3714 17.5547 84.3048 17.896 84.1714 18.184C84.0434 18.472 83.8648 18.6933 83.6354 18.848C83.4061 19.0027 83.1368 19.08 82.8274 19.08C82.4968 19.08 82.1928 19.0027 81.9154 18.848C81.6381 18.6933 81.4168 18.472 81.2514 18.184C81.0861 17.896 81.0034 17.5547 81.0034 17.16ZM81.6514 17.16C81.6514 17.4427 81.7074 17.6827 81.8194 17.88C81.9368 18.0773 82.0914 18.2267 82.2834 18.328C82.4754 18.4293 82.6834 18.48 82.9074 18.48C83.0941 18.48 83.2781 18.4293 83.4594 18.328C83.6408 18.2267 83.7901 18.0773 83.9074 17.88C84.0248 17.6827 84.0834 17.4427 84.0834 17.16C84.0834 16.9467 84.0488 16.76 83.9794 16.6C83.9101 16.4347 83.8168 16.296 83.6994 16.184C83.5874 16.072 83.4621 15.9867 83.3234 15.928C83.1848 15.8693 83.0461 15.84 82.9074 15.84C82.6834 15.84 82.4754 15.8907 82.2834 15.992C82.0914 16.0933 81.9368 16.2427 81.8194 16.44C81.7074 16.6373 81.6514 16.8773 81.6514 17.16ZM88.6459 16.76C88.6459 16.456 88.5793 16.2267 88.4459 16.072C88.3126 15.9173 88.1179 15.84 87.8619 15.84C87.6753 15.84 87.5099 15.88 87.3659 15.96C87.2273 16.0347 87.1179 16.1413 87.0379 16.28C86.9633 16.4187 86.9259 16.5787 86.9259 16.76V19H86.2859V15.32H86.9259V15.896C87.0486 15.672 87.2006 15.5067 87.3819 15.4C87.5686 15.2933 87.7819 15.24 88.0219 15.24C88.4113 15.24 88.7179 15.3707 88.9419 15.632C89.1713 15.888 89.2859 16.2373 89.2859 16.68V19H88.6459V16.76ZM92.3131 19.08C91.9717 19.08 91.6677 19 91.4011 18.84C91.1397 18.6747 90.9344 18.448 90.7851 18.16C90.6411 17.872 90.5691 17.5387 90.5691 17.16C90.5691 16.776 90.6437 16.44 90.7931 16.152C90.9477 15.864 91.1611 15.64 91.4331 15.48C91.7104 15.32 92.0304 15.24 92.3931 15.24C92.7557 15.24 93.0651 15.3173 93.3211 15.472C93.5824 15.6213 93.7824 15.8373 93.9211 16.12C94.0597 16.4027 94.1291 16.7387 94.1291 17.128C94.1291 17.1653 94.1264 17.2053 94.1211 17.248C94.1211 17.2853 94.1211 17.3093 94.1211 17.32H90.9771V16.776H93.6171L93.3611 17.144C93.3771 17.1173 93.3931 17.0773 93.4091 17.024C93.4251 16.9653 93.4331 16.9173 93.4331 16.88C93.4331 16.6613 93.3877 16.472 93.2971 16.312C93.2117 16.152 93.0917 16.0267 92.9371 15.936C92.7824 15.8453 92.6011 15.8 92.3931 15.8C92.1477 15.8 91.9371 15.8533 91.7611 15.96C91.5904 16.0613 91.4571 16.2107 91.3611 16.408C91.2704 16.6 91.2224 16.8373 91.2171 17.12C91.2171 17.408 91.2624 17.6533 91.3531 17.856C91.4437 18.0587 91.5771 18.2133 91.7531 18.32C91.9291 18.4267 92.1424 18.48 92.3931 18.48C92.6437 18.48 92.8651 18.4267 93.0571 18.32C93.2491 18.208 93.4117 18.04 93.5451 17.816L94.0651 18.144C93.8731 18.4533 93.6304 18.688 93.3371 18.848C93.0491 19.0027 92.7077 19.08 92.3131 19.08ZM95.5583 17.872C95.6329 17.984 95.7183 18.088 95.8143 18.184C95.9103 18.28 96.0196 18.3573 96.1423 18.416C96.2703 18.4693 96.4089 18.496 96.5583 18.496C96.7396 18.496 96.8809 18.456 96.9823 18.376C97.0889 18.2907 97.1423 18.176 97.1423 18.032C97.1423 17.904 97.0996 17.7973 97.0143 17.712C96.9343 17.6213 96.8303 17.5467 96.7023 17.488C96.5743 17.424 96.4383 17.3653 96.2943 17.312C96.1343 17.248 95.9716 17.1733 95.8063 17.088C95.6463 16.9973 95.5103 16.8827 95.3983 16.744C95.2916 16.6 95.2383 16.4213 95.2383 16.208C95.2383 15.9893 95.2943 15.808 95.4063 15.664C95.5236 15.52 95.6729 15.4133 95.8543 15.344C96.0409 15.2747 96.2329 15.24 96.4303 15.24C96.6276 15.24 96.8116 15.272 96.9823 15.336C97.1583 15.4 97.3129 15.4853 97.4463 15.592C97.5796 15.6987 97.6836 15.8213 97.7583 15.96L97.2463 16.288C97.1449 16.1493 97.0169 16.0347 96.8623 15.944C96.7129 15.8533 96.5423 15.808 96.3503 15.808C96.2169 15.808 96.1023 15.8373 96.0063 15.896C95.9103 15.9547 95.8623 16.0453 95.8623 16.168C95.8623 16.264 95.8996 16.3493 95.9743 16.424C96.0489 16.4987 96.1449 16.5653 96.2623 16.624C96.3796 16.6827 96.5023 16.7387 96.6303 16.792C96.8436 16.8773 97.0383 16.9707 97.2143 17.072C97.3903 17.168 97.5289 17.2853 97.6303 17.424C97.7369 17.5627 97.7903 17.7413 97.7903 17.96C97.7903 18.28 97.6729 18.5467 97.4383 18.76C97.2089 18.9733 96.9049 19.08 96.5263 19.08C96.2809 19.08 96.0596 19.0373 95.8623 18.952C95.6649 18.8613 95.4969 18.7467 95.3583 18.608C95.2249 18.4693 95.1236 18.328 95.0543 18.184L95.5583 17.872Z" fill="#111111"/>
<path d="M130.848 10.304C130.976 10.528 131.109 10.7253 131.248 10.896C131.392 11.0667 131.552 11.2 131.728 11.296C131.904 11.392 132.104 11.44 132.328 11.44C132.627 11.44 132.867 11.3573 133.048 11.192C133.229 11.0267 133.32 10.816 133.32 10.56C133.32 10.3093 133.261 10.1093 133.144 9.96C133.027 9.81067 132.872 9.69067 132.68 9.6C132.493 9.504 132.293 9.41867 132.08 9.344C131.941 9.296 131.787 9.23467 131.616 9.16C131.445 9.08 131.283 8.98133 131.128 8.864C130.973 8.74133 130.845 8.592 130.744 8.416C130.648 8.24 130.6 8.024 130.6 7.768C130.6 7.49067 130.669 7.24267 130.808 7.024C130.947 6.80533 131.139 6.63467 131.384 6.512C131.629 6.384 131.909 6.32 132.224 6.32C132.528 6.32 132.792 6.37867 133.016 6.496C133.245 6.608 133.44 6.75467 133.6 6.936C133.76 7.112 133.885 7.29867 133.976 7.496L133.392 7.832C133.323 7.69333 133.235 7.55733 133.128 7.424C133.021 7.29067 132.891 7.18133 132.736 7.096C132.587 7.01067 132.403 6.968 132.184 6.968C131.88 6.968 131.659 7.04267 131.52 7.192C131.381 7.336 131.312 7.49867 131.312 7.68C131.312 7.83467 131.352 7.97867 131.432 8.112C131.512 8.24 131.645 8.36267 131.832 8.48C132.024 8.592 132.283 8.704 132.608 8.816C132.757 8.86933 132.915 8.93867 133.08 9.024C133.245 9.10933 133.397 9.21867 133.536 9.352C133.68 9.48 133.797 9.63733 133.888 9.824C133.979 10.0053 134.024 10.224 134.024 10.48C134.024 10.7253 133.976 10.9467 133.88 11.144C133.789 11.3413 133.661 11.5093 133.496 11.648C133.336 11.7867 133.152 11.8933 132.944 11.968C132.741 12.0427 132.528 12.08 132.304 12.08C132 12.08 131.717 12.016 131.456 11.888C131.2 11.7547 130.973 11.5813 130.776 11.368C130.584 11.1493 130.427 10.9173 130.304 10.672L130.848 10.304ZM135.063 10.16C135.063 9.78667 135.145 9.456 135.311 9.168C135.481 8.88 135.711 8.65333 135.999 8.488C136.287 8.32267 136.609 8.24 136.967 8.24C137.329 8.24 137.652 8.32267 137.935 8.488C138.223 8.65333 138.449 8.88 138.615 9.168C138.785 9.456 138.871 9.78667 138.871 10.16C138.871 10.528 138.785 10.8587 138.615 11.152C138.449 11.44 138.223 11.6667 137.935 11.832C137.652 11.9973 137.329 12.08 136.967 12.08C136.609 12.08 136.287 11.9973 135.999 11.832C135.711 11.6667 135.481 11.44 135.311 11.152C135.145 10.8587 135.063 10.528 135.063 10.16ZM135.711 10.16C135.711 10.416 135.764 10.6427 135.871 10.84C135.983 11.0373 136.132 11.1947 136.319 11.312C136.511 11.424 136.727 11.48 136.967 11.48C137.207 11.48 137.42 11.424 137.607 11.312C137.799 11.1947 137.948 11.0373 138.055 10.84C138.167 10.6427 138.223 10.416 138.223 10.16C138.223 9.904 138.167 9.67733 138.055 9.48C137.948 9.27733 137.799 9.12 137.607 9.008C137.42 8.896 137.207 8.84 136.967 8.84C136.727 8.84 136.511 8.896 136.319 9.008C136.132 9.12 135.983 9.27733 135.871 9.48C135.764 9.67733 135.711 9.904 135.711 10.16ZM140.75 13.76H140.11V8.32H140.75V13.76ZM143.83 10.16C143.83 10.5547 143.747 10.896 143.582 11.184C143.417 11.472 143.195 11.6933 142.918 11.848C142.646 12.0027 142.342 12.08 142.006 12.08C141.702 12.08 141.433 12.0027 141.198 11.848C140.969 11.6933 140.787 11.472 140.654 11.184C140.526 10.896 140.462 10.5547 140.462 10.16C140.462 9.76 140.526 9.41867 140.654 9.136C140.787 8.848 140.969 8.62667 141.198 8.472C141.433 8.31733 141.702 8.24 142.006 8.24C142.342 8.24 142.646 8.31733 142.918 8.472C143.195 8.62667 143.417 8.848 143.582 9.136C143.747 9.41867 143.83 9.76 143.83 10.16ZM143.182 10.16C143.182 9.87733 143.123 9.63733 143.006 9.44C142.894 9.24267 142.742 9.09333 142.55 8.992C142.363 8.89067 142.155 8.84 141.926 8.84C141.739 8.84 141.555 8.89067 141.374 8.992C141.193 9.09333 141.043 9.24267 140.926 9.44C140.809 9.63733 140.75 9.87733 140.75 10.16C140.75 10.4427 140.809 10.6827 140.926 10.88C141.043 11.0773 141.193 11.2267 141.374 11.328C141.555 11.4293 141.739 11.48 141.926 11.48C142.155 11.48 142.363 11.4293 142.55 11.328C142.742 11.2267 142.894 11.0773 143.006 10.88C143.123 10.6827 143.182 10.4427 143.182 10.16ZM145.752 5.76V12H145.112V5.76H145.752ZM147.472 9.76C147.472 9.456 147.406 9.22667 147.273 9.072C147.144 8.91733 146.95 8.84 146.688 8.84C146.502 8.84 146.336 8.88 146.192 8.96C146.054 9.04 145.944 9.14933 145.864 9.288C145.79 9.42667 145.752 9.584 145.752 9.76H145.544C145.544 9.46667 145.6 9.208 145.712 8.984C145.824 8.75467 145.976 8.57333 146.168 8.44C146.366 8.30667 146.592 8.24 146.849 8.24C147.104 8.24 147.326 8.29333 147.513 8.4C147.704 8.50667 147.851 8.66667 147.952 8.88C148.059 9.09333 148.112 9.36 148.112 9.68V12H147.472V9.76ZM149.716 6.8C149.716 6.67733 149.758 6.57333 149.844 6.488C149.934 6.40267 150.038 6.36 150.156 6.36C150.278 6.36 150.382 6.40267 150.468 6.488C150.553 6.57333 150.596 6.67733 150.596 6.8C150.596 6.91733 150.553 7.02133 150.468 7.112C150.382 7.19733 150.278 7.24 150.156 7.24C150.038 7.24 149.934 7.19733 149.844 7.112C149.758 7.02133 149.716 6.91733 149.716 6.8ZM149.836 8.32H150.476V12H149.836V8.32ZM153.618 12.08C153.276 12.08 152.972 12 152.706 11.84C152.444 11.6747 152.239 11.448 152.09 11.16C151.946 10.872 151.874 10.5387 151.874 10.16C151.874 9.776 151.948 9.44 152.098 9.152C152.252 8.864 152.466 8.64 152.738 8.48C153.015 8.32 153.335 8.24 153.698 8.24C154.06 8.24 154.37 8.31733 154.626 8.472C154.887 8.62133 155.087 8.83733 155.226 9.12C155.364 9.40267 155.434 9.73867 155.434 10.128C155.434 10.1653 155.431 10.2053 155.426 10.248C155.426 10.2853 155.426 10.3093 155.426 10.32H152.282V9.776H154.922L154.666 10.144C154.682 10.1173 154.698 10.0773 154.714 10.024C154.73 9.96533 154.738 9.91733 154.738 9.88C154.738 9.66133 154.692 9.472 154.602 9.312C154.516 9.152 154.396 9.02667 154.242 8.936C154.087 8.84533 153.906 8.8 153.698 8.8C153.452 8.8 153.242 8.85333 153.066 8.96C152.895 9.06133 152.762 9.21067 152.666 9.408C152.575 9.6 152.527 9.83733 152.522 10.12C152.522 10.408 152.567 10.6533 152.658 10.856C152.748 11.0587 152.882 11.2133 153.058 11.32C153.234 11.4267 153.447 11.48 153.698 11.48C153.948 11.48 154.17 11.4267 154.362 11.32C154.554 11.208 154.716 11.04 154.85 10.816L155.37 11.144C155.178 11.4533 154.935 11.688 154.642 11.848C154.354 12.0027 154.012 12.08 153.618 12.08ZM160.933 12.08C160.592 12.08 160.288 12 160.021 11.84C159.76 11.6747 159.555 11.448 159.405 11.16C159.261 10.872 159.189 10.5387 159.189 10.16C159.189 9.776 159.264 9.44 159.413 9.152C159.568 8.864 159.781 8.64 160.053 8.48C160.331 8.32 160.651 8.24 161.013 8.24C161.376 8.24 161.685 8.31733 161.941 8.472C162.203 8.62133 162.403 8.83733 162.541 9.12C162.68 9.40267 162.749 9.73867 162.749 10.128C162.749 10.1653 162.747 10.2053 162.741 10.248C162.741 10.2853 162.741 10.3093 162.741 10.32H159.597V9.776H162.237L161.981 10.144C161.997 10.1173 162.013 10.0773 162.029 10.024C162.045 9.96533 162.053 9.91733 162.053 9.88C162.053 9.66133 162.008 9.472 161.917 9.312C161.832 9.152 161.712 9.02667 161.557 8.936C161.403 8.84533 161.221 8.8 161.013 8.8C160.768 8.8 160.557 8.85333 160.381 8.96C160.211 9.06133 160.077 9.21067 159.981 9.408C159.891 9.6 159.843 9.83733 159.837 10.12C159.837 10.408 159.883 10.6533 159.973 10.856C160.064 11.0587 160.197 11.2133 160.373 11.32C160.549 11.4267 160.763 11.48 161.013 11.48C161.264 11.48 161.485 11.4267 161.677 11.32C161.869 11.208 162.032 11.04 162.165 10.816L162.685 11.144C162.493 11.4533 162.251 11.688 161.957 11.848C161.669 12.0027 161.328 12.08 160.933 12.08ZM164.179 10.872C164.253 10.984 164.339 11.088 164.435 11.184C164.531 11.28 164.64 11.3573 164.763 11.416C164.891 11.4693 165.029 11.496 165.179 11.496C165.36 11.496 165.501 11.456 165.603 11.376C165.709 11.2907 165.763 11.176 165.763 11.032C165.763 10.904 165.72 10.7973 165.635 10.712C165.555 10.6213 165.451 10.5467 165.323 10.488C165.195 10.424 165.059 10.3653 164.915 10.312C164.755 10.248 164.592 10.1733 164.427 10.088C164.267 9.99733 164.131 9.88267 164.019 9.744C163.912 9.6 163.859 9.42133 163.859 9.208C163.859 8.98933 163.915 8.808 164.027 8.664C164.144 8.52 164.293 8.41333 164.475 8.344C164.661 8.27467 164.853 8.24 165.051 8.24C165.248 8.24 165.432 8.272 165.603 8.336C165.779 8.4 165.933 8.48533 166.067 8.592C166.2 8.69867 166.304 8.82133 166.379 8.96L165.867 9.288C165.765 9.14933 165.637 9.03467 165.483 8.944C165.333 8.85333 165.163 8.808 164.971 8.808C164.837 8.808 164.723 8.83733 164.627 8.896C164.531 8.95467 164.483 9.04533 164.483 9.168C164.483 9.264 164.52 9.34933 164.595 9.424C164.669 9.49867 164.765 9.56533 164.883 9.624C165 9.68267 165.123 9.73867 165.251 9.792C165.464 9.87733 165.659 9.97067 165.835 10.072C166.011 10.168 166.149 10.2853 166.251 10.424C166.357 10.5627 166.411 10.7413 166.411 10.96C166.411 11.28 166.293 11.5467 166.059 11.76C165.829 11.9733 165.525 12.08 165.147 12.08C164.901 12.08 164.68 12.0373 164.483 11.952C164.285 11.8613 164.117 11.7467 163.979 11.608C163.845 11.4693 163.744 11.328 163.675 11.184L164.179 10.872ZM167.093 8.32H168.933V8.92H167.093V8.32ZM167.693 7.04H168.333V12H167.693V7.04ZM172.213 8.32H174.053V8.92H172.213V8.32ZM172.813 7.04H173.453V12H172.813V7.04ZM175.735 8.32V12H175.095V8.32H175.735ZM176.847 9.024C176.762 8.96 176.685 8.91467 176.615 8.888C176.546 8.856 176.458 8.84 176.351 8.84C176.191 8.84 176.066 8.88 175.975 8.96C175.885 9.04 175.821 9.14933 175.783 9.288C175.751 9.42667 175.735 9.584 175.735 9.76H175.447C175.447 9.46667 175.498 9.208 175.599 8.984C175.706 8.75467 175.842 8.57333 176.007 8.44C176.173 8.30667 176.341 8.24 176.511 8.24C176.645 8.24 176.767 8.25867 176.879 8.296C176.997 8.328 177.103 8.39467 177.199 8.496L176.847 9.024ZM178.208 10.32V9.776H180.664C180.643 9.584 180.59 9.416 180.504 9.272C180.424 9.12267 180.31 9.008 180.16 8.928C180.016 8.84267 179.838 8.8 179.624 8.8C179.411 8.8 179.216 8.84533 179.04 8.936C178.864 9.02667 178.723 9.15733 178.616 9.328C178.515 9.49333 178.464 9.69067 178.464 9.92L178.448 10.16C178.448 10.4427 178.496 10.6827 178.592 10.88C178.688 11.0773 178.824 11.2267 179 11.328C179.176 11.4293 179.384 11.48 179.624 11.48C179.806 11.48 179.966 11.4533 180.104 11.4C180.248 11.3413 180.376 11.264 180.488 11.168C180.6 11.0667 180.696 10.9493 180.776 10.816L181.296 11.144C181.174 11.3307 181.038 11.496 180.888 11.64C180.739 11.7787 180.558 11.888 180.344 11.968C180.131 12.0427 179.864 12.08 179.544 12.08C179.214 12.08 178.915 11.9973 178.648 11.832C178.387 11.6667 178.179 11.44 178.024 11.152C177.875 10.8587 177.8 10.528 177.8 10.16C177.8 10.0907 177.803 10.024 177.808 9.96C177.814 9.896 177.822 9.832 177.832 9.768C177.886 9.464 177.992 9.19733 178.152 8.968C178.312 8.73867 178.518 8.56 178.768 8.432C179.024 8.304 179.31 8.24 179.624 8.24C179.971 8.24 180.275 8.31733 180.536 8.472C180.798 8.62667 181 8.84533 181.144 9.128C181.288 9.40533 181.36 9.73867 181.36 10.128C181.36 10.16 181.36 10.192 181.36 10.224C181.36 10.256 181.358 10.288 181.352 10.32H178.208ZM178.504 6.48L179.104 6.16L180.304 7.44L179.944 7.68L178.504 6.48ZM182.789 10.872C182.864 10.984 182.949 11.088 183.045 11.184C183.141 11.28 183.251 11.3573 183.373 11.416C183.501 11.4693 183.64 11.496 183.789 11.496C183.971 11.496 184.112 11.456 184.213 11.376C184.32 11.2907 184.373 11.176 184.373 11.032C184.373 10.904 184.331 10.7973 184.245 10.712C184.165 10.6213 184.061 10.5467 183.933 10.488C183.805 10.424 183.669 10.3653 183.525 10.312C183.365 10.248 183.203 10.1733 183.037 10.088C182.877 9.99733 182.741 9.88267 182.629 9.744C182.523 9.6 182.469 9.42133 182.469 9.208C182.469 8.98933 182.525 8.808 182.637 8.664C182.755 8.52 182.904 8.41333 183.085 8.344C183.272 8.27467 183.464 8.24 183.661 8.24C183.859 8.24 184.043 8.272 184.213 8.336C184.389 8.4 184.544 8.48533 184.677 8.592C184.811 8.69867 184.915 8.82133 184.989 8.96L184.477 9.288C184.376 9.14933 184.248 9.03467 184.093 8.944C183.944 8.85333 183.773 8.808 183.581 8.808C183.448 8.808 183.333 8.83733 183.237 8.896C183.141 8.95467 183.093 9.04533 183.093 9.168C183.093 9.264 183.131 9.34933 183.205 9.424C183.28 9.49867 183.376 9.56533 183.493 9.624C183.611 9.68267 183.733 9.73867 183.861 9.792C184.075 9.87733 184.269 9.97067 184.445 10.072C184.621 10.168 184.76 10.2853 184.861 10.424C184.968 10.5627 185.021 10.7413 185.021 10.96C185.021 11.28 184.904 11.5467 184.669 11.76C184.44 11.9733 184.136 12.08 183.757 12.08C183.512 12.08 183.291 12.0373 183.093 11.952C182.896 11.8613 182.728 11.7467 182.589 11.608C182.456 11.4693 182.355 11.328 182.285 11.184L182.789 10.872ZM189.663 13.76H189.023V8.32H189.663V13.76ZM192.743 10.16C192.743 10.5547 192.66 10.896 192.495 11.184C192.329 11.472 192.108 11.6933 191.831 11.848C191.559 12.0027 191.255 12.08 190.919 12.08C190.615 12.08 190.345 12.0027 190.111 11.848C189.881 11.6933 189.7 11.472 189.567 11.184C189.439 10.896 189.375 10.5547 189.375 10.16C189.375 9.76 189.439 9.41867 189.567 9.136C189.7 8.848 189.881 8.62667 190.111 8.472C190.345 8.31733 190.615 8.24 190.919 8.24C191.255 8.24 191.559 8.31733 191.831 8.472C192.108 8.62667 192.329 8.848 192.495 9.136C192.66 9.41867 192.743 9.76 192.743 10.16ZM192.095 10.16C192.095 9.87733 192.036 9.63733 191.919 9.44C191.807 9.24267 191.655 9.09333 191.463 8.992C191.276 8.89067 191.068 8.84 190.839 8.84C190.652 8.84 190.468 8.89067 190.287 8.992C190.105 9.09333 189.956 9.24267 189.839 9.44C189.721 9.63733 189.663 9.87733 189.663 10.16C189.663 10.4427 189.721 10.6827 189.839 10.88C189.956 11.0773 190.105 11.2267 190.287 11.328C190.468 11.4293 190.652 11.48 190.839 11.48C191.068 11.48 191.276 11.4293 191.463 11.328C191.655 11.2267 191.807 11.0773 191.919 10.88C192.036 10.6827 192.095 10.4427 192.095 10.16ZM193.705 10.16C193.705 9.78667 193.788 9.456 193.953 9.168C194.124 8.88 194.353 8.65333 194.641 8.488C194.929 8.32267 195.252 8.24 195.609 8.24C195.972 8.24 196.294 8.32267 196.577 8.488C196.865 8.65333 197.092 8.88 197.257 9.168C197.428 9.456 197.513 9.78667 197.513 10.16C197.513 10.528 197.428 10.8587 197.257 11.152C197.092 11.44 196.865 11.6667 196.577 11.832C196.294 11.9973 195.972 12.08 195.609 12.08C195.252 12.08 194.929 11.9973 194.641 11.832C194.353 11.6667 194.124 11.44 193.953 11.152C193.788 10.8587 193.705 10.528 193.705 10.16ZM194.353 10.16C194.353 10.416 194.406 10.6427 194.513 10.84C194.625 11.0373 194.774 11.1947 194.961 11.312C195.153 11.424 195.369 11.48 195.609 11.48C195.849 11.48 196.062 11.424 196.249 11.312C196.441 11.1947 196.59 11.0373 196.697 10.84C196.809 10.6427 196.865 10.416 196.865 10.16C196.865 9.904 196.809 9.67733 196.697 9.48C196.59 9.27733 196.441 9.12 196.249 9.008C196.062 8.896 195.849 8.84 195.609 8.84C195.369 8.84 195.153 8.896 194.961 9.008C194.774 9.12 194.625 9.27733 194.513 9.48C194.406 9.67733 194.353 9.904 194.353 10.16ZM201.152 9.76C201.152 9.456 201.086 9.22667 200.952 9.072C200.819 8.91733 200.624 8.84 200.368 8.84C200.182 8.84 200.016 8.88 199.872 8.96C199.734 9.03467 199.624 9.14133 199.544 9.28C199.47 9.41867 199.432 9.57867 199.432 9.76V12H198.792V8.32H199.432V8.896C199.555 8.672 199.707 8.50667 199.888 8.4C200.075 8.29333 200.288 8.24 200.528 8.24C200.918 8.24 201.224 8.37067 201.448 8.632C201.678 8.888 201.792 9.23733 201.792 9.68V12H201.152V9.76ZM203.683 10.16C203.683 10.416 203.737 10.6427 203.843 10.84C203.955 11.0373 204.105 11.1947 204.291 11.312C204.483 11.424 204.699 11.48 204.939 11.48C205.137 11.48 205.321 11.4507 205.491 11.392C205.667 11.328 205.819 11.2453 205.947 11.144C206.075 11.0373 206.166 10.9253 206.219 10.808V11.608C206.091 11.7573 205.907 11.8747 205.667 11.96C205.433 12.04 205.19 12.08 204.939 12.08C204.582 12.08 204.259 11.9973 203.971 11.832C203.683 11.6667 203.454 11.44 203.283 11.152C203.118 10.8587 203.035 10.528 203.035 10.16C203.035 9.78667 203.118 9.456 203.283 9.168C203.454 8.88 203.683 8.65333 203.971 8.488C204.259 8.32267 204.582 8.24 204.939 8.24C205.19 8.24 205.433 8.28267 205.667 8.368C205.907 8.448 206.091 8.56267 206.219 8.712V9.512C206.166 9.38933 206.075 9.27733 205.947 9.176C205.819 9.07467 205.667 8.99467 205.491 8.936C205.321 8.872 205.137 8.84 204.939 8.84C204.699 8.84 204.483 8.896 204.291 9.008C204.105 9.12 203.955 9.27733 203.843 9.48C203.737 9.67733 203.683 9.904 203.683 10.16ZM207.056 8.32H208.896V8.92H207.056V8.32ZM207.656 7.04H208.296V12H207.656V7.04ZM210.578 10.56C210.578 10.8533 210.644 11.08 210.778 11.24C210.911 11.4 211.106 11.48 211.362 11.48C211.548 11.48 211.711 11.4427 211.85 11.368C211.994 11.288 212.103 11.1787 212.178 11.04C212.258 10.9013 212.298 10.7413 212.298 10.56V8.32H212.938V12H212.298V11.424C212.175 11.6427 212.023 11.808 211.842 11.92C211.66 12.0267 211.447 12.08 211.202 12.08C210.818 12.08 210.511 11.9493 210.282 11.688C210.052 11.4267 209.938 11.0773 209.938 10.64V8.32H210.578V10.56ZM215.965 12.08C215.623 12.08 215.319 12 215.053 11.84C214.791 11.6747 214.586 11.448 214.437 11.16C214.293 10.872 214.221 10.5387 214.221 10.16C214.221 9.776 214.295 9.44 214.445 9.152C214.599 8.864 214.813 8.64 215.085 8.48C215.362 8.32 215.682 8.24 216.045 8.24C216.407 8.24 216.717 8.31733 216.973 8.472C217.234 8.62133 217.434 8.83733 217.573 9.12C217.711 9.40267 217.781 9.73867 217.781 10.128C217.781 10.1653 217.778 10.2053 217.773 10.248C217.773 10.2853 217.773 10.3093 217.773 10.32H214.629V9.776H217.269L217.013 10.144C217.029 10.1173 217.045 10.0773 217.061 10.024C217.077 9.96533 217.085 9.91733 217.085 9.88C217.085 9.66133 217.039 9.472 216.949 9.312C216.863 9.152 216.743 9.02667 216.589 8.936C216.434 8.84533 216.253 8.8 216.045 8.8C215.799 8.8 215.589 8.85333 215.413 8.96C215.242 9.06133 215.109 9.21067 215.013 9.408C214.922 9.6 214.874 9.83733 214.869 10.12C214.869 10.408 214.914 10.6533 215.005 10.856C215.095 11.0587 215.229 11.2133 215.405 11.32C215.581 11.4267 215.794 11.48 216.045 11.48C216.295 11.48 216.517 11.4267 216.709 11.32C216.901 11.208 217.063 11.04 217.197 10.816L217.717 11.144C217.525 11.4533 217.282 11.688 216.989 11.848C216.701 12.0027 216.359 12.08 215.965 12.08ZM219.058 5.76H219.698V12H219.058V5.76ZM221.302 5.76H221.942V12H221.302V5.76ZM224.969 12.08C224.628 12.08 224.324 12 224.057 11.84C223.796 11.6747 223.591 11.448 223.441 11.16C223.297 10.872 223.225 10.5387 223.225 10.16C223.225 9.776 223.3 9.44 223.449 9.152C223.604 8.864 223.817 8.64 224.089 8.48C224.367 8.32 224.687 8.24 225.049 8.24C225.412 8.24 225.721 8.31733 225.977 8.472C226.239 8.62133 226.439 8.83733 226.577 9.12C226.716 9.40267 226.785 9.73867 226.785 10.128C226.785 10.1653 226.783 10.2053 226.777 10.248C226.777 10.2853 226.777 10.3093 226.777 10.32H223.633V9.776H226.273L226.017 10.144C226.033 10.1173 226.049 10.0773 226.065 10.024C226.081 9.96533 226.089 9.91733 226.089 9.88C226.089 9.66133 226.044 9.472 225.953 9.312C225.868 9.152 225.748 9.02667 225.593 8.936C225.439 8.84533 225.257 8.8 225.049 8.8C224.804 8.8 224.593 8.85333 224.417 8.96C224.247 9.06133 224.113 9.21067 224.017 9.408C223.927 9.6 223.879 9.83733 223.873 10.12C223.873 10.408 223.919 10.6533 224.009 10.856C224.1 11.0587 224.233 11.2133 224.409 11.32C224.585 11.4267 224.799 11.48 225.049 11.48C225.3 11.48 225.521 11.4267 225.713 11.32C225.905 11.208 226.068 11.04 226.201 10.816L226.721 11.144C226.529 11.4533 226.287 11.688 225.993 11.848C225.705 12.0027 225.364 12.08 224.969 12.08ZM232.285 12.08C231.944 12.08 231.64 12 231.373 11.84C231.112 11.6747 230.906 11.448 230.757 11.16C230.613 10.872 230.541 10.5387 230.541 10.16C230.541 9.776 230.616 9.44 230.765 9.152C230.92 8.864 231.133 8.64 231.405 8.48C231.682 8.32 232.002 8.24 232.365 8.24C232.728 8.24 233.037 8.31733 233.293 8.472C233.554 8.62133 233.754 8.83733 233.893 9.12C234.032 9.40267 234.101 9.73867 234.101 10.128C234.101 10.1653 234.098 10.2053 234.093 10.248C234.093 10.2853 234.093 10.3093 234.093 10.32H230.949V9.776H233.589L233.333 10.144C233.349 10.1173 233.365 10.0773 233.381 10.024C233.397 9.96533 233.405 9.91733 233.405 9.88C233.405 9.66133 233.36 9.472 233.269 9.312C233.184 9.152 233.064 9.02667 232.909 8.936C232.754 8.84533 232.573 8.8 232.365 8.8C232.12 8.8 231.909 8.85333 231.733 8.96C231.562 9.06133 231.429 9.21067 231.333 9.408C231.242 9.6 231.194 9.83733 231.189 10.12C231.189 10.408 231.234 10.6533 231.325 10.856C231.416 11.0587 231.549 11.2133 231.725 11.32C231.901 11.4267 232.114 11.48 232.365 11.48C232.616 11.48 232.837 11.4267 233.029 11.32C233.221 11.208 233.384 11.04 233.517 10.816L234.037 11.144C233.845 11.4533 233.602 11.688 233.309 11.848C233.021 12.0027 232.68 12.08 232.285 12.08ZM234.818 8.32H236.658V8.92H234.818V8.32ZM235.418 7.04H236.058V12H235.418V7.04ZM130.888 22.864C130.888 23.0027 130.92 23.1227 130.984 23.224C131.053 23.3253 131.147 23.4027 131.264 23.456C131.387 23.504 131.525 23.528 131.68 23.528C131.877 23.528 132.053 23.488 132.208 23.408C132.368 23.328 132.493 23.216 132.584 23.072C132.68 22.9227 132.728 22.752 132.728 22.56L132.856 23.04C132.856 23.2747 132.784 23.4693 132.64 23.624C132.501 23.7787 132.328 23.8933 132.12 23.968C131.917 24.0427 131.715 24.08 131.512 24.08C131.288 24.08 131.077 24.0347 130.88 23.944C130.688 23.848 130.533 23.712 130.416 23.536C130.299 23.36 130.24 23.1467 130.24 22.896C130.24 22.5387 130.365 22.2533 130.616 22.04C130.872 21.8213 131.227 21.712 131.68 21.712C131.947 21.712 132.168 21.744 132.344 21.808C132.525 21.8667 132.669 21.936 132.776 22.016C132.883 22.0907 132.955 22.152 132.992 22.2V22.576C132.805 22.448 132.613 22.3573 132.416 22.304C132.219 22.2453 132.008 22.216 131.784 22.216C131.576 22.216 131.405 22.2427 131.272 22.296C131.144 22.3493 131.048 22.424 130.984 22.52C130.92 22.616 130.888 22.7307 130.888 22.864ZM130.792 21.168L130.48 20.696C130.619 20.5947 130.808 20.4933 131.048 20.392C131.293 20.2907 131.587 20.24 131.928 20.24C132.216 20.24 132.467 20.2853 132.68 20.376C132.899 20.4613 133.067 20.5867 133.184 20.752C133.307 20.9173 133.368 21.12 133.368 21.36V24H132.728V21.448C132.728 21.32 132.707 21.216 132.664 21.136C132.621 21.0507 132.56 20.984 132.48 20.936C132.405 20.888 132.317 20.8533 132.216 20.832C132.115 20.8107 132.008 20.8 131.896 20.8C131.715 20.8 131.549 20.8213 131.4 20.864C131.256 20.9067 131.133 20.9573 131.032 21.016C130.931 21.0747 130.851 21.1253 130.792 21.168ZM135.14 22.16C135.14 22.416 135.193 22.6427 135.3 22.84C135.412 23.0373 135.561 23.1947 135.748 23.312C135.94 23.424 136.156 23.48 136.396 23.48C136.593 23.48 136.777 23.4507 136.948 23.392C137.124 23.328 137.276 23.2453 137.404 23.144C137.532 23.0373 137.622 22.9253 137.676 22.808V23.608C137.548 23.7573 137.364 23.8747 137.124 23.96C136.889 24.04 136.646 24.08 136.396 24.08C136.038 24.08 135.716 23.9973 135.428 23.832C135.14 23.6667 134.91 23.44 134.74 23.152C134.574 22.8587 134.492 22.528 134.492 22.16C134.492 21.7867 134.574 21.456 134.74 21.168C134.91 20.88 135.14 20.6533 135.428 20.488C135.716 20.3227 136.038 20.24 136.396 20.24C136.646 20.24 136.889 20.2827 137.124 20.368C137.364 20.448 137.548 20.5627 137.676 20.712V21.512C137.622 21.3893 137.532 21.2773 137.404 21.176C137.276 21.0747 137.124 20.9947 136.948 20.936C136.777 20.872 136.593 20.84 136.396 20.84C136.156 20.84 135.94 20.896 135.748 21.008C135.561 21.12 135.412 21.2773 135.3 21.48C135.193 21.6773 135.14 21.904 135.14 22.16ZM139.36 22.16C139.36 22.416 139.413 22.6427 139.52 22.84C139.632 23.0373 139.781 23.1947 139.968 23.312C140.16 23.424 140.376 23.48 140.616 23.48C140.813 23.48 140.997 23.4507 141.168 23.392C141.344 23.328 141.496 23.2453 141.624 23.144C141.752 23.0373 141.843 22.9253 141.896 22.808V23.608C141.768 23.7573 141.584 23.8747 141.344 23.96C141.109 24.04 140.867 24.08 140.616 24.08C140.259 24.08 139.936 23.9973 139.648 23.832C139.36 23.6667 139.131 23.44 138.96 23.152C138.795 22.8587 138.712 22.528 138.712 22.16C138.712 21.7867 138.795 21.456 138.96 21.168C139.131 20.88 139.36 20.6533 139.648 20.488C139.936 20.3227 140.259 20.24 140.616 20.24C140.867 20.24 141.109 20.2827 141.344 20.368C141.584 20.448 141.768 20.5627 141.896 20.712V21.512C141.843 21.3893 141.752 21.2773 141.624 21.176C141.496 21.0747 141.344 20.9947 141.168 20.936C140.997 20.872 140.813 20.84 140.616 20.84C140.376 20.84 140.16 20.896 139.968 21.008C139.781 21.12 139.632 21.2773 139.52 21.48C139.413 21.6773 139.36 21.904 139.36 22.16ZM143.932 22.56C143.932 22.8533 143.999 23.08 144.132 23.24C144.266 23.4 144.46 23.48 144.716 23.48C144.903 23.48 145.066 23.4427 145.204 23.368C145.348 23.288 145.458 23.1787 145.532 23.04C145.612 22.9013 145.652 22.7413 145.652 22.56V20.32H146.292V24H145.652V23.424C145.53 23.6427 145.378 23.808 145.196 23.92C145.015 24.0267 144.802 24.08 144.556 24.08C144.172 24.08 143.866 23.9493 143.636 23.688C143.407 23.4267 143.292 23.0773 143.292 22.64V20.32H143.932V22.56ZM149.319 24.08C148.978 24.08 148.674 24 148.407 23.84C148.146 23.6747 147.941 23.448 147.791 23.16C147.647 22.872 147.575 22.5387 147.575 22.16C147.575 21.776 147.65 21.44 147.799 21.152C147.954 20.864 148.167 20.64 148.439 20.48C148.717 20.32 149.037 20.24 149.399 20.24C149.762 20.24 150.071 20.3173 150.327 20.472C150.589 20.6213 150.789 20.8373 150.927 21.12C151.066 21.4027 151.135 21.7387 151.135 22.128C151.135 22.1653 151.133 22.2053 151.127 22.248C151.127 22.2853 151.127 22.3093 151.127 22.32H147.983V21.776H150.623L150.367 22.144C150.383 22.1173 150.399 22.0773 150.415 22.024C150.431 21.9653 150.439 21.9173 150.439 21.88C150.439 21.6613 150.394 21.472 150.303 21.312C150.218 21.152 150.098 21.0267 149.943 20.936C149.789 20.8453 149.607 20.8 149.399 20.8C149.154 20.8 148.943 20.8533 148.767 20.96C148.597 21.0613 148.463 21.2107 148.367 21.408C148.277 21.6 148.229 21.8373 148.223 22.12C148.223 22.408 148.269 22.6533 148.359 22.856C148.45 23.0587 148.583 23.2133 148.759 23.32C148.935 23.4267 149.149 23.48 149.399 23.48C149.65 23.48 149.871 23.4267 150.063 23.32C150.255 23.208 150.418 23.04 150.551 22.816L151.071 23.144C150.879 23.4533 150.637 23.688 150.343 23.848C150.055 24.0027 149.714 24.08 149.319 24.08ZM152.413 18.8C152.413 18.6773 152.455 18.5733 152.541 18.488C152.631 18.4027 152.735 18.36 152.853 18.36C152.975 18.36 153.079 18.4027 153.165 18.488C153.25 18.5733 153.293 18.6773 153.293 18.8C153.293 18.9173 153.25 19.0213 153.165 19.112C153.079 19.1973 152.975 19.24 152.853 19.24C152.735 19.24 152.631 19.1973 152.541 19.112C152.455 19.0213 152.413 18.9173 152.413 18.8ZM152.533 20.32H153.173V24H152.533V20.32ZM154.891 17.76H155.531V24H154.891V17.76ZM157.134 17.76H157.774V24H157.134V17.76ZM159.666 22.864C159.666 23.0027 159.698 23.1227 159.762 23.224C159.831 23.3253 159.925 23.4027 160.042 23.456C160.165 23.504 160.303 23.528 160.458 23.528C160.655 23.528 160.831 23.488 160.986 23.408C161.146 23.328 161.271 23.216 161.362 23.072C161.458 22.9227 161.506 22.752 161.506 22.56L161.634 23.04C161.634 23.2747 161.562 23.4693 161.418 23.624C161.279 23.7787 161.106 23.8933 160.898 23.968C160.695 24.0427 160.493 24.08 160.29 24.08C160.066 24.08 159.855 24.0347 159.658 23.944C159.466 23.848 159.311 23.712 159.194 23.536C159.077 23.36 159.018 23.1467 159.018 22.896C159.018 22.5387 159.143 22.2533 159.394 22.04C159.65 21.8213 160.005 21.712 160.458 21.712C160.725 21.712 160.946 21.744 161.122 21.808C161.303 21.8667 161.447 21.936 161.554 22.016C161.661 22.0907 161.733 22.152 161.77 22.2V22.576C161.583 22.448 161.391 22.3573 161.194 22.304C160.997 22.2453 160.786 22.216 160.562 22.216C160.354 22.216 160.183 22.2427 160.05 22.296C159.922 22.3493 159.826 22.424 159.762 22.52C159.698 22.616 159.666 22.7307 159.666 22.864ZM159.57 21.168L159.258 20.696C159.397 20.5947 159.586 20.4933 159.826 20.392C160.071 20.2907 160.365 20.24 160.706 20.24C160.994 20.24 161.245 20.2853 161.458 20.376C161.677 20.4613 161.845 20.5867 161.962 20.752C162.085 20.9173 162.146 21.12 162.146 21.36V24H161.506V21.448C161.506 21.32 161.485 21.216 161.442 21.136C161.399 21.0507 161.338 20.984 161.258 20.936C161.183 20.888 161.095 20.8533 160.994 20.832C160.893 20.8107 160.786 20.8 160.674 20.8C160.493 20.8 160.327 20.8213 160.178 20.864C160.034 20.9067 159.911 20.9573 159.81 21.016C159.709 21.0747 159.629 21.1253 159.57 21.168ZM165.99 21.76C165.99 21.456 165.923 21.2267 165.79 21.072C165.656 20.9173 165.462 20.84 165.206 20.84C165.019 20.84 164.854 20.88 164.71 20.96C164.571 21.0347 164.462 21.1413 164.382 21.28C164.307 21.4187 164.27 21.5787 164.27 21.76V24H163.63V20.32H164.27V20.896C164.392 20.672 164.544 20.5067 164.726 20.4C164.912 20.2933 165.126 20.24 165.366 20.24C165.755 20.24 166.062 20.3707 166.286 20.632C166.515 20.888 166.63 21.2373 166.63 21.68V24H165.99V21.76ZM167.673 20.32H169.513V20.92H167.673V20.32ZM168.273 19.04H168.913V24H168.273V19.04ZM171.979 24.08C171.637 24.08 171.333 24 171.067 23.84C170.805 23.6747 170.6 23.448 170.451 23.16C170.307 22.872 170.235 22.5387 170.235 22.16C170.235 21.776 170.309 21.44 170.459 21.152C170.613 20.864 170.827 20.64 171.099 20.48C171.376 20.32 171.696 20.24 172.059 20.24C172.421 20.24 172.731 20.3173 172.987 20.472C173.248 20.6213 173.448 20.8373 173.587 21.12C173.725 21.4027 173.795 21.7387 173.795 22.128C173.795 22.1653 173.792 22.2053 173.787 22.248C173.787 22.2853 173.787 22.3093 173.787 22.32H170.643V21.776H173.283L173.027 22.144C173.043 22.1173 173.059 22.0773 173.075 22.024C173.091 21.9653 173.099 21.9173 173.099 21.88C173.099 21.6613 173.053 21.472 172.963 21.312C172.877 21.152 172.757 21.0267 172.603 20.936C172.448 20.8453 172.267 20.8 172.059 20.8C171.813 20.8 171.603 20.8533 171.427 20.96C171.256 21.0613 171.123 21.2107 171.027 21.408C170.936 21.6 170.888 21.8373 170.883 22.12C170.883 22.408 170.928 22.6533 171.019 22.856C171.109 23.0587 171.243 23.2133 171.419 23.32C171.595 23.4267 171.808 23.48 172.059 23.48C172.309 23.48 172.531 23.4267 172.723 23.32C172.915 23.208 173.077 23.04 173.211 22.816L173.731 23.144C173.539 23.4533 173.296 23.688 173.003 23.848C172.715 24.0027 172.373 24.08 171.979 24.08ZM174.833 23.68C174.833 23.5573 174.876 23.4533 174.961 23.368C175.052 23.2827 175.156 23.24 175.273 23.24C175.396 23.24 175.5 23.2827 175.585 23.368C175.671 23.4533 175.713 23.5573 175.713 23.68C175.713 23.7973 175.671 23.9013 175.585 23.992C175.5 24.0773 175.396 24.12 175.273 24.12C175.156 24.12 175.052 24.0773 174.961 23.992C174.876 23.9013 174.833 23.7973 174.833 23.68ZM180.31 18.4H180.99V23.36H183.19V24H180.31V18.4ZM185.696 24.08C185.355 24.08 185.051 24 184.784 23.84C184.523 23.6747 184.317 23.448 184.168 23.16C184.024 22.872 183.952 22.5387 183.952 22.16C183.952 21.776 184.027 21.44 184.176 21.152C184.331 20.864 184.544 20.64 184.816 20.48C185.093 20.32 185.413 20.24 185.776 20.24C186.139 20.24 186.448 20.3173 186.704 20.472C186.965 20.6213 187.165 20.8373 187.304 21.12C187.443 21.4027 187.512 21.7387 187.512 22.128C187.512 22.1653 187.509 22.2053 187.504 22.248C187.504 22.2853 187.504 22.3093 187.504 22.32H184.36V21.776H187L186.744 22.144C186.76 22.1173 186.776 22.0773 186.792 22.024C186.808 21.9653 186.816 21.9173 186.816 21.88C186.816 21.6613 186.771 21.472 186.68 21.312C186.595 21.152 186.475 21.0267 186.32 20.936C186.165 20.8453 185.984 20.8 185.776 20.8C185.531 20.8 185.32 20.8533 185.144 20.96C184.973 21.0613 184.84 21.2107 184.744 21.408C184.653 21.6 184.605 21.8373 184.6 22.12C184.6 22.408 184.645 22.6533 184.736 22.856C184.827 23.0587 184.96 23.2133 185.136 23.32C185.312 23.4267 185.525 23.48 185.776 23.48C186.027 23.48 186.248 23.4267 186.44 23.32C186.632 23.208 186.795 23.04 186.928 22.816L187.448 23.144C187.256 23.4533 187.013 23.688 186.72 23.848C186.432 24.0027 186.091 24.08 185.696 24.08ZM191.739 22.872C191.814 22.984 191.899 23.088 191.995 23.184C192.091 23.28 192.201 23.3573 192.323 23.416C192.451 23.4693 192.59 23.496 192.739 23.496C192.921 23.496 193.062 23.456 193.163 23.376C193.27 23.2907 193.323 23.176 193.323 23.032C193.323 22.904 193.281 22.7973 193.195 22.712C193.115 22.6213 193.011 22.5467 192.883 22.488C192.755 22.424 192.619 22.3653 192.475 22.312C192.315 22.248 192.153 22.1733 191.987 22.088C191.827 21.9973 191.691 21.8827 191.579 21.744C191.473 21.6 191.419 21.4213 191.419 21.208C191.419 20.9893 191.475 20.808 191.587 20.664C191.705 20.52 191.854 20.4133 192.035 20.344C192.222 20.2747 192.414 20.24 192.611 20.24C192.809 20.24 192.993 20.272 193.163 20.336C193.339 20.4 193.494 20.4853 193.627 20.592C193.761 20.6987 193.865 20.8213 193.939 20.96L193.427 21.288C193.326 21.1493 193.198 21.0347 193.043 20.944C192.894 20.8533 192.723 20.808 192.531 20.808C192.398 20.808 192.283 20.8373 192.187 20.896C192.091 20.9547 192.043 21.0453 192.043 21.168C192.043 21.264 192.081 21.3493 192.155 21.424C192.23 21.4987 192.326 21.5653 192.443 21.624C192.561 21.6827 192.683 21.7387 192.811 21.792C193.025 21.8773 193.219 21.9707 193.395 22.072C193.571 22.168 193.71 22.2853 193.811 22.424C193.918 22.5627 193.971 22.7413 193.971 22.96C193.971 23.28 193.854 23.5467 193.619 23.76C193.39 23.9733 193.086 24.08 192.707 24.08C192.462 24.08 192.241 24.0373 192.043 23.952C191.846 23.8613 191.678 23.7467 191.539 23.608C191.406 23.4693 191.305 23.328 191.235 23.184L191.739 22.872ZM196.638 24.08C196.297 24.08 195.993 24 195.726 23.84C195.465 23.6747 195.259 23.448 195.11 23.16C194.966 22.872 194.894 22.5387 194.894 22.16C194.894 21.776 194.969 21.44 195.118 21.152C195.273 20.864 195.486 20.64 195.758 20.48C196.035 20.32 196.355 20.24 196.718 20.24C197.081 20.24 197.39 20.3173 197.646 20.472C197.907 20.6213 198.107 20.8373 198.246 21.12C198.385 21.4027 198.454 21.7387 198.454 22.128C198.454 22.1653 198.451 22.2053 198.446 22.248C198.446 22.2853 198.446 22.3093 198.446 22.32H195.302V21.776H197.942L197.686 22.144C197.702 22.1173 197.718 22.0773 197.734 22.024C197.75 21.9653 197.758 21.9173 197.758 21.88C197.758 21.6613 197.713 21.472 197.622 21.312C197.537 21.152 197.417 21.0267 197.262 20.936C197.107 20.8453 196.926 20.8 196.718 20.8C196.473 20.8 196.262 20.8533 196.086 20.96C195.915 21.0613 195.782 21.2107 195.686 21.408C195.595 21.6 195.547 21.8373 195.542 22.12C195.542 22.408 195.587 22.6533 195.678 22.856C195.769 23.0587 195.902 23.2133 196.078 23.32C196.254 23.4267 196.467 23.48 196.718 23.48C196.969 23.48 197.19 23.4267 197.382 23.32C197.574 23.208 197.737 23.04 197.87 22.816L198.39 23.144C198.198 23.4533 197.955 23.688 197.662 23.848C197.374 24.0027 197.033 24.08 196.638 24.08ZM200.371 22.56C200.371 22.8533 200.438 23.08 200.571 23.24C200.705 23.4 200.899 23.48 201.155 23.48C201.342 23.48 201.505 23.4427 201.643 23.368C201.787 23.288 201.897 23.1787 201.971 23.04C202.051 22.9013 202.091 22.7413 202.091 22.56V20.32H202.731V24H202.091V23.424C201.969 23.6427 201.817 23.808 201.635 23.92C201.454 24.0267 201.241 24.08 200.995 24.08C200.611 24.08 200.305 23.9493 200.075 23.688C199.846 23.4267 199.731 23.0773 199.731 22.64V20.32H200.371V22.56ZM204.334 17.76H204.974V24H204.334V17.76ZM209.977 17.76V24H209.337V17.76H209.977ZM213.057 22.16C213.057 22.5547 212.974 22.896 212.809 23.184C212.643 23.472 212.422 23.6933 212.145 23.848C211.873 24.0027 211.569 24.08 211.233 24.08C210.929 24.08 210.659 24.0027 210.425 23.848C210.195 23.6933 210.014 23.472 209.881 23.184C209.753 22.896 209.689 22.5547 209.689 22.16C209.689 21.76 209.753 21.4187 209.881 21.136C210.014 20.848 210.195 20.6267 210.425 20.472C210.659 20.3173 210.929 20.24 211.233 20.24C211.569 20.24 211.873 20.3173 212.145 20.472C212.422 20.6267 212.643 20.848 212.809 21.136C212.974 21.4187 213.057 21.76 213.057 22.16ZM212.409 22.16C212.409 21.8773 212.35 21.6373 212.233 21.44C212.121 21.2427 211.969 21.0933 211.777 20.992C211.59 20.8907 211.382 20.84 211.153 20.84C210.966 20.84 210.782 20.8907 210.601 20.992C210.419 21.0933 210.27 21.2427 210.153 21.44C210.035 21.6373 209.977 21.8773 209.977 22.16C209.977 22.4427 210.035 22.6827 210.153 22.88C210.27 23.0773 210.419 23.2267 210.601 23.328C210.782 23.4293 210.966 23.48 211.153 23.48C211.382 23.48 211.59 23.4293 211.777 23.328C211.969 23.2267 212.121 23.0773 212.233 22.88C212.35 22.6827 212.409 22.4427 212.409 22.16ZM214.427 22.32V21.776H216.883C216.862 21.584 216.808 21.416 216.723 21.272C216.643 21.1227 216.528 21.008 216.379 20.928C216.235 20.8427 216.056 20.8 215.843 20.8C215.63 20.8 215.435 20.8453 215.259 20.936C215.083 21.0267 214.942 21.1573 214.835 21.328C214.734 21.4933 214.683 21.6907 214.683 21.92L214.667 22.16C214.667 22.4427 214.715 22.6827 214.811 22.88C214.907 23.0773 215.043 23.2267 215.219 23.328C215.395 23.4293 215.603 23.48 215.843 23.48C216.024 23.48 216.184 23.4533 216.323 23.4C216.467 23.3413 216.595 23.264 216.707 23.168C216.819 23.0667 216.915 22.9493 216.995 22.816L217.515 23.144C217.392 23.3307 217.256 23.496 217.107 23.64C216.958 23.7787 216.776 23.888 216.563 23.968C216.35 24.0427 216.083 24.08 215.763 24.08C215.432 24.08 215.134 23.9973 214.867 23.832C214.606 23.6667 214.398 23.44 214.243 23.152C214.094 22.8587 214.019 22.528 214.019 22.16C214.019 22.0907 214.022 22.024 214.027 21.96C214.032 21.896 214.04 21.832 214.051 21.768C214.104 21.464 214.211 21.1973 214.371 20.968C214.531 20.7387 214.736 20.56 214.987 20.432C215.243 20.304 215.528 20.24 215.843 20.24C216.19 20.24 216.494 20.3173 216.755 20.472C217.016 20.6267 217.219 20.8453 217.363 21.128C217.507 21.4053 217.579 21.7387 217.579 22.128C217.579 22.16 217.579 22.192 217.579 22.224C217.579 22.256 217.576 22.288 217.571 22.32H214.427ZM217.123 18.48L215.683 19.68L215.323 19.44L216.523 18.16L217.123 18.48ZM223.896 21.68V24H223.256V21.76C223.256 21.4453 223.198 21.2133 223.08 21.064C222.968 20.9147 222.792 20.84 222.552 20.84C222.376 20.84 222.224 20.8773 222.096 20.952C221.968 21.0213 221.87 21.1253 221.8 21.264C221.731 21.4027 221.696 21.568 221.696 21.76V24H221.056V21.76C221.056 21.4453 220.998 21.2133 220.88 21.064C220.768 20.9147 220.592 20.84 220.352 20.84C220.176 20.84 220.024 20.8773 219.896 20.952C219.768 21.0213 219.67 21.1253 219.6 21.264C219.531 21.4027 219.496 21.568 219.496 21.76V24H218.856V20.32H219.496V20.856C219.608 20.648 219.747 20.4933 219.912 20.392C220.083 20.2907 220.283 20.24 220.512 20.24C220.768 20.24 220.987 20.3013 221.168 20.424C221.355 20.5413 221.491 20.7093 221.576 20.928C221.704 20.6987 221.864 20.528 222.056 20.416C222.248 20.2987 222.467 20.24 222.712 20.24C222.963 20.24 223.176 20.296 223.352 20.408C223.528 20.52 223.662 20.6853 223.752 20.904C223.848 21.1173 223.896 21.376 223.896 21.68ZM225.178 22.16C225.178 21.7867 225.261 21.456 225.426 21.168C225.597 20.88 225.826 20.6533 226.114 20.488C226.402 20.3227 226.725 20.24 227.082 20.24C227.445 20.24 227.768 20.3227 228.05 20.488C228.338 20.6533 228.565 20.88 228.73 21.168C228.901 21.456 228.986 21.7867 228.986 22.16C228.986 22.528 228.901 22.8587 228.73 23.152C228.565 23.44 228.338 23.6667 228.05 23.832C227.768 23.9973 227.445 24.08 227.082 24.08C226.725 24.08 226.402 23.9973 226.114 23.832C225.826 23.6667 225.597 23.44 225.426 23.152C225.261 22.8587 225.178 22.528 225.178 22.16ZM225.826 22.16C225.826 22.416 225.88 22.6427 225.986 22.84C226.098 23.0373 226.248 23.1947 226.434 23.312C226.626 23.424 226.842 23.48 227.082 23.48C227.322 23.48 227.536 23.424 227.722 23.312C227.914 23.1947 228.064 23.0373 228.17 22.84C228.282 22.6427 228.338 22.416 228.338 22.16C228.338 21.904 228.282 21.6773 228.17 21.48C228.064 21.2773 227.914 21.12 227.722 21.008C227.536 20.896 227.322 20.84 227.082 20.84C226.842 20.84 226.626 20.896 226.434 21.008C226.248 21.12 226.098 21.2773 225.986 21.48C225.88 21.6773 225.826 21.904 225.826 22.16ZM230.266 17.76H230.906V24H230.266V17.76ZM235.948 20.32V24H235.308V20.32H235.948ZM237.06 21.024C236.974 20.96 236.897 20.9147 236.828 20.888C236.758 20.856 236.67 20.84 236.564 20.84C236.404 20.84 236.278 20.88 236.188 20.96C236.097 21.04 236.033 21.1493 235.996 21.288C235.964 21.4267 235.948 21.584 235.948 21.76H235.66C235.66 21.4667 235.71 21.208 235.812 20.984C235.918 20.7547 236.054 20.5733 236.22 20.44C236.385 20.3067 236.553 20.24 236.724 20.24C236.857 20.24 236.98 20.2587 237.092 20.296C237.209 20.328 237.316 20.3947 237.412 20.496L237.06 21.024ZM239.757 24.08C239.415 24.08 239.111 24 238.845 23.84C238.583 23.6747 238.378 23.448 238.229 23.16C238.085 22.872 238.013 22.5387 238.013 22.16C238.013 21.776 238.087 21.44 238.237 21.152C238.391 20.864 238.605 20.64 238.877 20.48C239.154 20.32 239.474 20.24 239.837 20.24C240.199 20.24 240.509 20.3173 240.765 20.472C241.026 20.6213 241.226 20.8373 241.365 21.12C241.503 21.4027 241.573 21.7387 241.573 22.128C241.573 22.1653 241.57 22.2053 241.565 22.248C241.565 22.2853 241.565 22.3093 241.565 22.32H238.421V21.776H241.061L240.805 22.144C240.821 22.1173 240.837 22.0773 240.853 22.024C240.869 21.9653 240.877 21.9173 240.877 21.88C240.877 21.6613 240.831 21.472 240.741 21.312C240.655 21.152 240.535 21.0267 240.381 20.936C240.226 20.8453 240.045 20.8 239.837 20.8C239.591 20.8 239.381 20.8533 239.205 20.96C239.034 21.0613 238.901 21.2107 238.805 21.408C238.714 21.6 238.666 21.8373 238.661 22.12C238.661 22.408 238.706 22.6533 238.797 22.856C238.887 23.0587 239.021 23.2133 239.197 23.32C239.373 23.4267 239.586 23.48 239.837 23.48C240.087 23.48 240.309 23.4267 240.501 23.32C240.693 23.208 240.855 23.04 240.989 22.816L241.509 23.144C241.317 23.4533 241.074 23.688 240.781 23.848C240.493 24.0027 240.151 24.08 239.757 24.08ZM243.002 22.872C243.077 22.984 243.162 23.088 243.258 23.184C243.354 23.28 243.463 23.3573 243.586 23.416C243.714 23.4693 243.853 23.496 244.002 23.496C244.183 23.496 244.325 23.456 244.426 23.376C244.533 23.2907 244.586 23.176 244.586 23.032C244.586 22.904 244.543 22.7973 244.458 22.712C244.378 22.6213 244.274 22.5467 244.146 22.488C244.018 22.424 243.882 22.3653 243.738 22.312C243.578 22.248 243.415 22.1733 243.25 22.088C243.09 21.9973 242.954 21.8827 242.842 21.744C242.735 21.6 242.682 21.4213 242.682 21.208C242.682 20.9893 242.738 20.808 242.85 20.664C242.967 20.52 243.117 20.4133 243.298 20.344C243.485 20.2747 243.677 20.24 243.874 20.24C244.071 20.24 244.255 20.272 244.426 20.336C244.602 20.4 244.757 20.4853 244.89 20.592C245.023 20.6987 245.127 20.8213 245.202 20.96L244.69 21.288C244.589 21.1493 244.461 21.0347 244.306 20.944C244.157 20.8533 243.986 20.808 243.794 20.808C243.661 20.808 243.546 20.8373 243.45 20.896C243.354 20.9547 243.306 21.0453 243.306 21.168C243.306 21.264 243.343 21.3493 243.418 21.424C243.493 21.4987 243.589 21.5653 243.706 21.624C243.823 21.6827 243.946 21.7387 244.074 21.792C244.287 21.8773 244.482 21.9707 244.658 22.072C244.834 22.168 244.973 22.2853 245.074 22.424C245.181 22.5627 245.234 22.7413 245.234 22.96C245.234 23.28 245.117 23.5467 244.882 23.76C244.653 23.9733 244.349 24.08 243.97 24.08C243.725 24.08 243.503 24.0373 243.306 23.952C243.109 23.8613 242.941 23.7467 242.802 23.608C242.669 23.4693 242.567 23.328 242.498 23.184L243.002 22.872ZM245.917 20.32H247.757V20.92H245.917V20.32ZM246.517 19.04H247.157V24H246.517V19.04ZM250.222 24.08C249.881 24.08 249.577 24 249.31 23.84C249.049 23.6747 248.844 23.448 248.694 23.16C248.55 22.872 248.478 22.5387 248.478 22.16C248.478 21.776 248.553 21.44 248.702 21.152C248.857 20.864 249.07 20.64 249.342 20.48C249.62 20.32 249.94 20.24 250.302 20.24C250.665 20.24 250.974 20.3173 251.23 20.472C251.492 20.6213 251.692 20.8373 251.83 21.12C251.969 21.4027 252.038 21.7387 252.038 22.128C252.038 22.1653 252.036 22.2053 252.03 22.248C252.03 22.2853 252.03 22.3093 252.03 22.32H248.886V21.776H251.526L251.27 22.144C251.286 22.1173 251.302 22.0773 251.318 22.024C251.334 21.9653 251.342 21.9173 251.342 21.88C251.342 21.6613 251.297 21.472 251.206 21.312C251.121 21.152 251.001 21.0267 250.846 20.936C250.692 20.8453 250.51 20.8 250.302 20.8C250.057 20.8 249.846 20.8533 249.67 20.96C249.5 21.0613 249.366 21.2107 249.27 21.408C249.18 21.6 249.132 21.8373 249.126 22.12C249.126 22.408 249.172 22.6533 249.262 22.856C249.353 23.0587 249.486 23.2133 249.662 23.32C249.838 23.4267 250.052 23.48 250.302 23.48C250.553 23.48 250.774 23.4267 250.966 23.32C251.158 23.208 251.321 23.04 251.454 22.816L251.974 23.144C251.782 23.4533 251.54 23.688 251.246 23.848C250.958 24.0027 250.617 24.08 250.222 24.08ZM256.114 17.76H256.754V24H256.114V17.76ZM259.782 24.08C259.44 24.08 259.136 24 258.87 23.84C258.608 23.6747 258.403 23.448 258.254 23.16C258.11 22.872 258.038 22.5387 258.038 22.16C258.038 21.776 258.112 21.44 258.262 21.152C258.416 20.864 258.63 20.64 258.902 20.48C259.179 20.32 259.499 20.24 259.862 20.24C260.224 20.24 260.534 20.3173 260.79 20.472C261.051 20.6213 261.251 20.8373 261.39 21.12C261.528 21.4027 261.598 21.7387 261.598 22.128C261.598 22.1653 261.595 22.2053 261.59 22.248C261.59 22.2853 261.59 22.3093 261.59 22.32H258.446V21.776H261.086L260.83 22.144C260.846 22.1173 260.862 22.0773 260.878 22.024C260.894 21.9653 260.902 21.9173 260.902 21.88C260.902 21.6613 260.856 21.472 260.766 21.312C260.68 21.152 260.56 21.0267 260.406 20.936C260.251 20.8453 260.07 20.8 259.862 20.8C259.616 20.8 259.406 20.8533 259.23 20.96C259.059 21.0613 258.926 21.2107 258.83 21.408C258.739 21.6 258.691 21.8373 258.686 22.12C258.686 22.408 258.731 22.6533 258.822 22.856C258.912 23.0587 259.046 23.2133 259.222 23.32C259.398 23.4267 259.611 23.48 259.862 23.48C260.112 23.48 260.334 23.4267 260.526 23.32C260.718 23.208 260.88 23.04 261.014 22.816L261.534 23.144C261.342 23.4533 261.099 23.688 260.806 23.848C260.518 24.0027 260.176 24.08 259.782 24.08ZM131.2 37.76H130.56V32.32H131.2V37.76ZM134.28 34.16C134.28 34.5547 134.197 34.896 134.032 35.184C133.867 35.472 133.645 35.6933 133.368 35.848C133.096 36.0027 132.792 36.08 132.456 36.08C132.152 36.08 131.883 36.0027 131.648 35.848C131.419 35.6933 131.237 35.472 131.104 35.184C130.976 34.896 130.912 34.5547 130.912 34.16C130.912 33.76 130.976 33.4187 131.104 33.136C131.237 32.848 131.419 32.6267 131.648 32.472C131.883 32.3173 132.152 32.24 132.456 32.24C132.792 32.24 133.096 32.3173 133.368 32.472C133.645 32.6267 133.867 32.848 134.032 33.136C134.197 33.4187 134.28 33.76 134.28 34.16ZM133.632 34.16C133.632 33.8773 133.573 33.6373 133.456 33.44C133.344 33.2427 133.192 33.0933 133 32.992C132.813 32.8907 132.605 32.84 132.376 32.84C132.189 32.84 132.005 32.8907 131.824 32.992C131.643 33.0933 131.493 33.2427 131.376 33.44C131.259 33.6373 131.2 33.8773 131.2 34.16C131.2 34.4427 131.259 34.6827 131.376 34.88C131.493 35.0773 131.643 35.2267 131.824 35.328C132.005 35.4293 132.189 35.48 132.376 35.48C132.605 35.48 132.813 35.4293 133 35.328C133.192 35.2267 133.344 35.0773 133.456 34.88C133.573 34.6827 133.632 34.4427 133.632 34.16ZM136.203 32.32V36H135.563V32.32H136.203ZM137.315 33.024C137.229 32.96 137.152 32.9147 137.083 32.888C137.013 32.856 136.925 32.84 136.819 32.84C136.659 32.84 136.533 32.88 136.443 32.96C136.352 33.04 136.288 33.1493 136.251 33.288C136.219 33.4267 136.203 33.584 136.203 33.76H135.915C135.915 33.4667 135.965 33.208 136.067 32.984C136.173 32.7547 136.309 32.5733 136.475 32.44C136.64 32.3067 136.808 32.24 136.979 32.24C137.112 32.24 137.235 32.2587 137.347 32.296C137.464 32.328 137.571 32.3947 137.667 32.496L137.315 33.024ZM138.705 30.8C138.705 30.6773 138.747 30.5733 138.833 30.488C138.923 30.4027 139.027 30.36 139.145 30.36C139.267 30.36 139.371 30.4027 139.457 30.488C139.542 30.5733 139.585 30.6773 139.585 30.8C139.585 30.9173 139.542 31.0213 139.457 31.112C139.371 31.1973 139.267 31.24 139.145 31.24C139.027 31.24 138.923 31.1973 138.833 31.112C138.747 31.0213 138.705 30.9173 138.705 30.8ZM138.825 32.32H139.465V36H138.825V32.32ZM143.143 32.32H143.863L142.607 34.104L143.943 36H143.223L142.263 34.608L141.303 36H140.583L141.919 34.104L140.663 32.32H141.383L142.263 33.6L143.143 32.32ZM148.381 34.56C148.381 34.8533 148.447 35.08 148.581 35.24C148.714 35.4 148.909 35.48 149.165 35.48C149.351 35.48 149.514 35.4427 149.653 35.368C149.797 35.288 149.906 35.1787 149.981 35.04C150.061 34.9013 150.101 34.7413 150.101 34.56V32.32H150.741V36H150.101V35.424C149.978 35.6427 149.826 35.808 149.645 35.92C149.463 36.0267 149.25 36.08 149.005 36.08C148.621 36.08 148.314 35.9493 148.085 35.688C147.855 35.4267 147.741 35.0773 147.741 34.64V32.32H148.381V34.56ZM154.704 33.76C154.704 33.456 154.637 33.2267 154.504 33.072C154.37 32.9173 154.176 32.84 153.92 32.84C153.733 32.84 153.568 32.88 153.424 32.96C153.285 33.0347 153.176 33.1413 153.096 33.28C153.021 33.4187 152.984 33.5787 152.984 33.76V36H152.344V32.32H152.984V32.896C153.106 32.672 153.258 32.5067 153.44 32.4C153.626 32.2933 153.84 32.24 154.08 32.24C154.469 32.24 154.776 32.3707 155 32.632C155.229 32.888 155.344 33.2373 155.344 33.68V36H154.704V33.76ZM160.345 37.76H159.705V32.32H160.345V37.76ZM163.425 34.16C163.425 34.5547 163.343 34.896 163.177 35.184C163.012 35.472 162.791 35.6933 162.513 35.848C162.241 36.0027 161.937 36.08 161.601 36.08C161.297 36.08 161.028 36.0027 160.793 35.848C160.564 35.6933 160.383 35.472 160.249 35.184C160.121 34.896 160.057 34.5547 160.057 34.16C160.057 33.76 160.121 33.4187 160.249 33.136C160.383 32.848 160.564 32.6267 160.793 32.472C161.028 32.3173 161.297 32.24 161.601 32.24C161.937 32.24 162.241 32.3173 162.513 32.472C162.791 32.6267 163.012 32.848 163.177 33.136C163.343 33.4187 163.425 33.76 163.425 34.16ZM162.777 34.16C162.777 33.8773 162.719 33.6373 162.601 33.44C162.489 33.2427 162.337 33.0933 162.145 32.992C161.959 32.8907 161.751 32.84 161.521 32.84C161.335 32.84 161.151 32.8907 160.969 32.992C160.788 33.0933 160.639 33.2427 160.521 33.44C160.404 33.6373 160.345 33.8773 160.345 34.16C160.345 34.4427 160.404 34.6827 160.521 34.88C160.639 35.0773 160.788 35.2267 160.969 35.328C161.151 35.4293 161.335 35.48 161.521 35.48C161.751 35.48 161.959 35.4293 162.145 35.328C162.337 35.2267 162.489 35.0773 162.601 34.88C162.719 34.6827 162.777 34.4427 162.777 34.16ZM166.132 36.08C165.79 36.08 165.486 36 165.22 35.84C164.958 35.6747 164.753 35.448 164.604 35.16C164.46 34.872 164.388 34.5387 164.388 34.16C164.388 33.776 164.462 33.44 164.612 33.152C164.766 32.864 164.98 32.64 165.252 32.48C165.529 32.32 165.849 32.24 166.212 32.24C166.574 32.24 166.884 32.3173 167.14 32.472C167.401 32.6213 167.601 32.8373 167.74 33.12C167.878 33.4027 167.948 33.7387 167.948 34.128C167.948 34.1653 167.945 34.2053 167.94 34.248C167.94 34.2853 167.94 34.3093 167.94 34.32H164.796V33.776H167.436L167.18 34.144C167.196 34.1173 167.212 34.0773 167.228 34.024C167.244 33.9653 167.252 33.9173 167.252 33.88C167.252 33.6613 167.206 33.472 167.116 33.312C167.03 33.152 166.91 33.0267 166.756 32.936C166.601 32.8453 166.42 32.8 166.212 32.8C165.966 32.8 165.756 32.8533 165.58 32.96C165.409 33.0613 165.276 33.2107 165.18 33.408C165.089 33.6 165.041 33.8373 165.036 34.12C165.036 34.408 165.081 34.6533 165.172 34.856C165.262 35.0587 165.396 35.2133 165.572 35.32C165.748 35.4267 165.961 35.48 166.212 35.48C166.462 35.48 166.684 35.4267 166.876 35.32C167.068 35.208 167.23 35.04 167.364 34.816L167.884 35.144C167.692 35.4533 167.449 35.688 167.156 35.848C166.868 36.0027 166.526 36.08 166.132 36.08ZM169.865 34.56C169.865 34.8533 169.932 35.08 170.065 35.24C170.198 35.4 170.393 35.48 170.649 35.48C170.836 35.48 170.998 35.4427 171.137 35.368C171.281 35.288 171.39 35.1787 171.465 35.04C171.545 34.9013 171.585 34.7413 171.585 34.56V32.32H172.225V36H171.585V35.424C171.462 35.6427 171.31 35.808 171.129 35.92C170.948 36.0267 170.734 36.08 170.489 36.08C170.105 36.08 169.798 35.9493 169.569 35.688C169.34 35.4267 169.225 35.0773 169.225 34.64V32.32H169.865V34.56ZM176.715 34.32V33.776H179.171C179.149 33.584 179.096 33.416 179.011 33.272C178.931 33.1227 178.816 33.008 178.667 32.928C178.523 32.8427 178.344 32.8 178.131 32.8C177.917 32.8 177.723 32.8453 177.547 32.936C177.371 33.0267 177.229 33.1573 177.123 33.328C177.021 33.4933 176.971 33.6907 176.971 33.92L176.955 34.16C176.955 34.4427 177.003 34.6827 177.099 34.88C177.195 35.0773 177.331 35.2267 177.507 35.328C177.683 35.4293 177.891 35.48 178.131 35.48C178.312 35.48 178.472 35.4533 178.611 35.4C178.755 35.3413 178.883 35.264 178.995 35.168C179.107 35.0667 179.203 34.9493 179.283 34.816L179.803 35.144C179.68 35.3307 179.544 35.496 179.395 35.64C179.245 35.7787 179.064 35.888 178.851 35.968C178.637 36.0427 178.371 36.08 178.051 36.08C177.72 36.08 177.421 35.9973 177.155 35.832C176.893 35.6667 176.685 35.44 176.531 35.152C176.381 34.8587 176.307 34.528 176.307 34.16C176.307 34.0907 176.309 34.024 176.315 33.96C176.32 33.896 176.328 33.832 176.339 33.768C176.392 33.464 176.499 33.1973 176.659 32.968C176.819 32.7387 177.024 32.56 177.275 32.432C177.531 32.304 177.816 32.24 178.131 32.24C178.477 32.24 178.781 32.3173 179.043 32.472C179.304 32.6267 179.507 32.8453 179.651 33.128C179.795 33.4053 179.867 33.7387 179.867 34.128C179.867 34.16 179.867 34.192 179.867 34.224C179.867 34.256 179.864 34.288 179.859 34.32H176.715ZM179.411 30.48L177.971 31.68L177.611 31.44L178.811 30.16L179.411 30.48ZM181.144 29.76H181.784V36H181.144V29.76ZM184.811 36.08C184.47 36.08 184.166 36 183.899 35.84C183.638 35.6747 183.433 35.448 183.283 35.16C183.139 34.872 183.067 34.5387 183.067 34.16C183.067 33.776 183.142 33.44 183.291 33.152C183.446 32.864 183.659 32.64 183.931 32.48C184.209 32.32 184.529 32.24 184.891 32.24C185.254 32.24 185.563 32.3173 185.819 32.472C186.081 32.6213 186.281 32.8373 186.419 33.12C186.558 33.4027 186.627 33.7387 186.627 34.128C186.627 34.1653 186.625 34.2053 186.619 34.248C186.619 34.2853 186.619 34.3093 186.619 34.32H183.475V33.776H186.115L185.859 34.144C185.875 34.1173 185.891 34.0773 185.907 34.024C185.923 33.9653 185.931 33.9173 185.931 33.88C185.931 33.6613 185.886 33.472 185.795 33.312C185.71 33.152 185.59 33.0267 185.435 32.936C185.281 32.8453 185.099 32.8 184.891 32.8C184.646 32.8 184.435 32.8533 184.259 32.96C184.089 33.0613 183.955 33.2107 183.859 33.408C183.769 33.6 183.721 33.8373 183.715 34.12C183.715 34.408 183.761 34.6533 183.851 34.856C183.942 35.0587 184.075 35.2133 184.251 35.32C184.427 35.4267 184.641 35.48 184.891 35.48C185.142 35.48 185.363 35.4267 185.555 35.32C185.747 35.208 185.91 35.04 186.043 34.816L186.563 35.144C186.371 35.4533 186.129 35.688 185.835 35.848C185.547 36.0027 185.206 36.08 184.811 36.08ZM187.188 32.32H187.908L188.948 34.92L189.988 32.32H190.708L188.948 36.28L187.188 32.32ZM191.682 34.32V33.776H194.138C194.116 33.584 194.063 33.416 193.978 33.272C193.898 33.1227 193.783 33.008 193.634 32.928C193.49 32.8427 193.311 32.8 193.098 32.8C192.884 32.8 192.69 32.8453 192.514 32.936C192.338 33.0267 192.196 33.1573 192.09 33.328C191.988 33.4933 191.938 33.6907 191.938 33.92L191.922 34.16C191.922 34.4427 191.97 34.6827 192.066 34.88C192.162 35.0773 192.298 35.2267 192.474 35.328C192.65 35.4293 192.858 35.48 193.098 35.48C193.279 35.48 193.439 35.4533 193.578 35.4C193.722 35.3413 193.85 35.264 193.962 35.168C194.074 35.0667 194.17 34.9493 194.25 34.816L194.77 35.144C194.647 35.3307 194.511 35.496 194.362 35.64C194.212 35.7787 194.031 35.888 193.818 35.968C193.604 36.0427 193.338 36.08 193.018 36.08C192.687 36.08 192.388 35.9973 192.122 35.832C191.86 35.6667 191.652 35.44 191.498 35.152C191.348 34.8587 191.274 34.528 191.274 34.16C191.274 34.0907 191.276 34.024 191.282 33.96C191.287 33.896 191.295 33.832 191.306 33.768C191.359 33.464 191.466 33.1973 191.626 32.968C191.786 32.7387 191.991 32.56 192.242 32.432C192.498 32.304 192.783 32.24 193.098 32.24C193.444 32.24 193.748 32.3173 194.01 32.472C194.271 32.6267 194.474 32.8453 194.618 33.128C194.762 33.4053 194.834 33.7387 194.834 34.128C194.834 34.16 194.834 34.192 194.834 34.224C194.834 34.256 194.831 34.288 194.826 34.32H191.682ZM194.378 30.48L192.938 31.68L192.578 31.44L193.778 30.16L194.378 30.48ZM196.271 35.68C196.271 35.5573 196.314 35.4533 196.399 35.368C196.49 35.2827 196.594 35.24 196.711 35.24C196.834 35.24 196.938 35.2827 197.023 35.368C197.108 35.4533 197.151 35.5573 197.151 35.68C197.151 35.7973 197.108 35.9013 197.023 35.992C196.938 36.0773 196.834 36.12 196.711 36.12C196.594 36.12 196.49 36.0773 196.399 35.992C196.314 35.9013 196.271 35.7973 196.271 35.68Z" fill="#111111"/>
<path d="M51 46.2C51 46.5253 51.032 46.8267 51.096 47.104C51.16 47.376 51.2533 47.6133 51.376 47.816C51.4987 48.0133 51.6453 48.168 51.816 48.28C51.992 48.3867 52.1867 48.44 52.4 48.44C52.6187 48.44 52.8133 48.3867 52.984 48.28C53.1547 48.168 53.3013 48.0133 53.424 47.816C53.5467 47.6133 53.64 47.376 53.704 47.104C53.768 46.8267 53.8 46.5253 53.8 46.2C53.8 45.8747 53.768 45.576 53.704 45.304C53.64 45.0267 53.5467 44.7893 53.424 44.592C53.3013 44.3893 53.1547 44.2347 52.984 44.128C52.8133 44.016 52.6187 43.96 52.4 43.96C52.1867 43.96 51.992 44.016 51.816 44.128C51.6453 44.2347 51.4987 44.3893 51.376 44.592C51.2533 44.7893 51.16 45.0267 51.096 45.304C51.032 45.576 51 45.8747 51 46.2ZM50.32 46.2C50.32 45.64 50.408 45.144 50.584 44.712C50.76 44.28 51.0027 43.9413 51.312 43.696C51.6267 43.4453 51.9893 43.32 52.4 43.32C52.8107 43.32 53.1707 43.4453 53.48 43.696C53.7947 43.9413 54.04 44.28 54.216 44.712C54.392 45.144 54.48 45.64 54.48 46.2C54.48 46.76 54.392 47.256 54.216 47.688C54.04 48.12 53.7947 48.4613 53.48 48.712C53.1707 48.9573 52.8107 49.08 52.4 49.08C51.9893 49.08 51.6267 48.9573 51.312 48.712C51.0027 48.4613 50.76 48.12 50.584 47.688C50.408 47.256 50.32 46.76 50.32 46.2ZM55.8369 44.504V43.8L57.7569 43.32V49H57.0769V44.136L55.8369 44.504ZM62.5584 43.4H63.1984L59.9584 50.2H59.3184L62.5584 43.4ZM64.7156 46.2C64.7156 46.5253 64.7476 46.8267 64.8116 47.104C64.8756 47.376 64.969 47.6133 65.0916 47.816C65.2143 48.0133 65.361 48.168 65.5316 48.28C65.7076 48.3867 65.9023 48.44 66.1156 48.44C66.3343 48.44 66.529 48.3867 66.6996 48.28C66.8703 48.168 67.017 48.0133 67.1396 47.816C67.2623 47.6133 67.3556 47.376 67.4196 47.104C67.4836 46.8267 67.5156 46.5253 67.5156 46.2C67.5156 45.8747 67.4836 45.576 67.4196 45.304C67.3556 45.0267 67.2623 44.7893 67.1396 44.592C67.017 44.3893 66.8703 44.2347 66.6996 44.128C66.529 44.016 66.3343 43.96 66.1156 43.96C65.9023 43.96 65.7076 44.016 65.5316 44.128C65.361 44.2347 65.2143 44.3893 65.0916 44.592C64.969 44.7893 64.8756 45.0267 64.8116 45.304C64.7476 45.576 64.7156 45.8747 64.7156 46.2ZM64.0356 46.2C64.0356 45.64 64.1236 45.144 64.2996 44.712C64.4756 44.28 64.7183 43.9413 65.0276 43.696C65.3423 43.4453 65.705 43.32 66.1156 43.32C66.5263 43.32 66.8863 43.4453 67.1956 43.696C67.5103 43.9413 67.7556 44.28 67.9316 44.712C68.1076 45.144 68.1956 45.64 68.1956 46.2C68.1956 46.76 68.1076 47.256 67.9316 47.688C67.7556 48.12 67.5103 48.4613 67.1956 48.712C66.8863 48.9573 66.5263 49.08 66.1156 49.08C65.705 49.08 65.3423 48.9573 65.0276 48.712C64.7183 48.4613 64.4756 48.12 64.2996 47.688C64.1236 47.256 64.0356 46.76 64.0356 46.2ZM69.9605 47.16C69.9605 47.416 70.0138 47.6427 70.1205 47.84C70.2325 48.032 70.3818 48.184 70.5685 48.296C70.7605 48.408 70.9765 48.464 71.2165 48.464C71.4565 48.464 71.6698 48.408 71.8565 48.296C72.0485 48.184 72.1978 48.032 72.3045 47.84C72.4165 47.6427 72.4725 47.416 72.4725 47.16C72.4725 46.904 72.4165 46.6773 72.3045 46.48C72.1978 46.2773 72.0485 46.12 71.8565 46.008C71.6698 45.896 71.4565 45.84 71.2165 45.84C70.9765 45.84 70.7605 45.896 70.5685 46.008C70.3818 46.12 70.2325 46.2773 70.1205 46.48C70.0138 46.6773 69.9605 46.904 69.9605 47.16ZM71.5525 43.4H72.4085L70.6565 45.712L70.6085 45.672C70.7152 45.5387 70.8378 45.4507 70.9765 45.408C71.1205 45.3653 71.2832 45.344 71.4645 45.344C71.6938 45.344 71.9072 45.3893 72.1045 45.48C72.3072 45.5707 72.4832 45.6987 72.6325 45.864C72.7872 46.0293 72.9072 46.224 72.9925 46.448C73.0778 46.6667 73.1205 46.904 73.1205 47.16C73.1205 47.544 73.0352 47.88 72.8645 48.168C72.6992 48.456 72.4725 48.68 72.1845 48.84C71.9018 49 71.5792 49.08 71.2165 49.08C70.8592 49.08 70.5365 49 70.2485 48.84C69.9605 48.68 69.7312 48.456 69.5605 48.168C69.3952 47.88 69.3125 47.544 69.3125 47.16C69.3125 46.9307 69.3445 46.7173 69.4085 46.52C69.4725 46.3227 69.5578 46.1493 69.6645 46L71.5525 43.4ZM77.2819 43.4H77.9219L74.6819 50.2H74.0419L77.2819 43.4ZM78.5991 49L81.2471 46.176C81.3697 46.0427 81.4737 45.912 81.5591 45.784C81.6497 45.6507 81.7164 45.5173 81.7591 45.384C81.8071 45.2453 81.8311 45.1013 81.8311 44.952C81.8311 44.8293 81.8071 44.7093 81.7591 44.592C81.7111 44.4747 81.6391 44.368 81.5431 44.272C81.4524 44.176 81.3404 44.0987 81.2071 44.04C81.0737 43.9813 80.9217 43.952 80.7511 43.952C80.5111 43.952 80.3031 44.008 80.1271 44.12C79.9564 44.2267 79.8257 44.384 79.7351 44.592C79.6444 44.7947 79.5991 45.0373 79.5991 45.32H78.9191C78.9191 44.92 78.9911 44.5707 79.1351 44.272C79.2791 43.968 79.4871 43.7333 79.7591 43.568C80.0364 43.3973 80.3671 43.312 80.7511 43.312C81.0604 43.312 81.3271 43.3653 81.5511 43.472C81.7751 43.5733 81.9591 43.7067 82.1031 43.872C82.2471 44.032 82.3537 44.2053 82.4231 44.392C82.4924 44.5787 82.5271 44.7573 82.5271 44.928C82.5271 45.216 82.4577 45.5013 82.3191 45.784C82.1804 46.0667 82.0017 46.32 81.7831 46.544L79.9991 48.36H82.5511V49H78.5991ZM84.3937 46.2C84.3937 46.5253 84.4257 46.8267 84.4897 47.104C84.5537 47.376 84.6471 47.6133 84.7697 47.816C84.8924 48.0133 85.0391 48.168 85.2097 48.28C85.3857 48.3867 85.5804 48.44 85.7937 48.44C86.0124 48.44 86.2071 48.3867 86.3777 48.28C86.5484 48.168 86.6951 48.0133 86.8177 47.816C86.9404 47.6133 87.0337 47.376 87.0977 47.104C87.1617 46.8267 87.1937 46.5253 87.1937 46.2C87.1937 45.8747 87.1617 45.576 87.0977 45.304C87.0337 45.0267 86.9404 44.7893 86.8177 44.592C86.6951 44.3893 86.5484 44.2347 86.3777 44.128C86.2071 44.016 86.0124 43.96 85.7937 43.96C85.5804 43.96 85.3857 44.016 85.2097 44.128C85.0391 44.2347 84.8924 44.3893 84.7697 44.592C84.6471 44.7893 84.5537 45.0267 84.4897 45.304C84.4257 45.576 84.3937 45.8747 84.3937 46.2ZM83.7137 46.2C83.7137 45.64 83.8017 45.144 83.9777 44.712C84.1537 44.28 84.3964 43.9413 84.7057 43.696C85.0204 43.4453 85.3831 43.32 85.7937 43.32C86.2044 43.32 86.5644 43.4453 86.8737 43.696C87.1884 43.9413 87.4337 44.28 87.6097 44.712C87.7857 45.144 87.8737 45.64 87.8737 46.2C87.8737 46.76 87.7857 47.256 87.6097 47.688C87.4337 48.12 87.1884 48.4613 86.8737 48.712C86.5644 48.9573 86.2044 49.08 85.7937 49.08C85.3831 49.08 85.0204 48.9573 84.7057 48.712C84.3964 48.4613 84.1537 48.12 83.9777 47.688C83.8017 47.256 83.7137 46.76 83.7137 46.2ZM88.7506 49L91.3986 46.176C91.5213 46.0427 91.6253 45.912 91.7106 45.784C91.8013 45.6507 91.868 45.5173 91.9106 45.384C91.9586 45.2453 91.9826 45.1013 91.9826 44.952C91.9826 44.8293 91.9586 44.7093 91.9106 44.592C91.8626 44.4747 91.7906 44.368 91.6946 44.272C91.604 44.176 91.492 44.0987 91.3586 44.04C91.2253 43.9813 91.0733 43.952 90.9026 43.952C90.6626 43.952 90.4546 44.008 90.2786 44.12C90.108 44.2267 89.9773 44.384 89.8866 44.592C89.796 44.7947 89.7506 45.0373 89.7506 45.32H89.0706C89.0706 44.92 89.1426 44.5707 89.2866 44.272C89.4306 43.968 89.6386 43.7333 89.9106 43.568C90.188 43.3973 90.5186 43.312 90.9026 43.312C91.212 43.312 91.4786 43.3653 91.7026 43.472C91.9266 43.5733 92.1106 43.7067 92.2546 43.872C92.3986 44.032 92.5053 44.2053 92.5746 44.392C92.644 44.5787 92.6786 44.7573 92.6786 44.928C92.6786 45.216 92.6093 45.5013 92.4706 45.784C92.332 46.0667 92.1533 46.32 91.9346 46.544L90.1506 48.36H92.7026V49H88.7506ZM93.7053 47.88L96.8093 43.4H97.0893V49H96.4093V47.592V47.504V44.912L94.8253 47.28H96.6893H96.8253H97.9693V47.88H93.7053Z" fill="#111111"/>
<line x1="120.15" y1="5" x2="120.15" y2="55" stroke="#111111" stroke-width="0.3"/>
<path d="M265 45.4854L265.755 47.8103L265.789 47.9139H265.898H268.343L266.365 49.3508L266.277 49.4148L266.31 49.5185L267.066 51.8434L265.088 50.4065L265 50.3425L264.912 50.4065L262.934 51.8434L263.69 49.5185L263.723 49.4148L263.635 49.3508L261.657 47.9139H264.102H264.211L264.245 47.8103L265 45.4854Z" stroke="#111111" stroke-width="0.3"/>
<path d="M255 45.4854L255.755 47.8103L255.789 47.9139H255.898H258.343L256.365 49.3508L256.277 49.4148L256.31 49.5185L257.066 51.8434L255.088 50.4065L255 50.3425L254.912 50.4065L252.934 51.8434L253.69 49.5185L253.723 49.4148L253.635 49.3508L251.657 47.9139H254.102H254.211L254.245 47.8103L255 45.4854Z" fill="#FFF500" stroke="#111111" stroke-width="0.3"/>
<path d="M245 45.4854L245.755 47.8103L245.789 47.9139H245.898H248.343L246.365 49.3508L246.277 49.4148L246.31 49.5185L247.066 51.8434L245.088 50.4065L245 50.3425L244.912 50.4065L242.934 51.8434L243.69 49.5185L243.723 49.4148L243.635 49.3508L241.657 47.9139H244.102H244.211L244.245 47.8103L245 45.4854Z" fill="#FFF500" stroke="#111111" stroke-width="0.3"/>
<path d="M235 45.4854L235.755 47.8103L235.789 47.9139H235.898H238.343L236.365 49.3508L236.277 49.4148L236.31 49.5185L237.066 51.8434L235.088 50.4065L235 50.3425L234.912 50.4065L232.934 51.8434L233.69 49.5185L233.723 49.4148L233.635 49.3508L231.657 47.9139H234.102H234.211L234.245 47.8103L235 45.4854Z" fill="#FFF500" stroke="#111111" stroke-width="0.3"/>
<path d="M225 45.4854L225.755 47.8103L225.789 47.9139H225.898H228.343L226.365 49.3508L226.277 49.4148L226.31 49.5185L227.066 51.8434L225.088 50.4065L225 50.3425L224.912 50.4065L222.934 51.8434L223.69 49.5185L223.723 49.4148L223.635 49.3508L221.657 47.9139H224.102H224.211L224.245 47.8103L225 45.4854Z" fill="#FFF500" stroke="#111111" stroke-width="0.3"/>
</svg>
