<svg width="252" height="210" viewBox="0 0 252 210" fill="none" xmlns="http://www.w3.org/2000/svg">
<ellipse cx="126" cy="187.376" rx="125" ry="21.5" fill="#F2DED1"/>
<path d="M100.5 62.3757C101.231 64.7511 103.173 65.1907 105 66.8757C124.659 85.0097 149.271 103.143 170.5 86.8757C171.929 85.7808 172.829 85.243 174 83.8757C174.916 82.8063 175.477 82.1831 176 80.8757C176.943 78.5189 176.37 76.8871 176 74.3757C175.35 69.9621 172.619 68.1942 171.5 63.8757C170.952 61.7625 170.713 60.5484 170.5 58.3757C170.119 54.4842 172.548 51.9664 171 48.3757C170.119 46.3313 169.109 45.4146 167.5 43.8757C164.47 40.9779 161.402 41.3259 158 38.8757C154.973 36.6956 153.263 35.3414 151 32.3757C149.39 30.2657 148.715 28.8765 147.576 26.5322L147.5 26.3757C145.692 22.6543 145.65 20.1702 144 16.3757C142.329 12.5309 141.793 10.0025 139 6.87574C136.867 4.48728 135.536 2.8963 132.5 1.87574C130.271 1.12645 128.725 0.61469 126.5 1.37574C124.911 1.91942 124.674 4.01333 123 3.87574C122.385 3.82516 121.5 3.37574 121.5 3.37574C121.5 3.37574 119.031 3.0644 117.5 3.37574C112.892 4.313 112.253 8.56346 109.5 12.3757C106.48 16.5579 104.275 18.8769 103 23.8757C102.034 27.6646 101.887 30.0139 102.5 33.8757C103.159 38.0299 106.054 39.6933 106.5 43.8757C106.79 46.6009 106.841 48.2672 106 50.8757C104.886 54.3328 101.174 54.8067 100.5 58.3757C100.21 59.9107 100.041 60.8827 100.5 62.3757Z" fill="#77525B" stroke="#5F474D"/>
<path d="M117 59.8757C115.57 62.4017 112 65.3757 112 65.3757L111.5 67.3757L116 75.8757L121 78.8757L127 78.3757L131 78.8757L137.5 76.3757L142 66.8757L141.5 64.8757C141.5 64.8757 137.191 60.1459 136 56.3757C134.647 52.0932 136 44.8757 136 44.8757C136 44.8757 138.043 43.2284 139 41.8757C140.111 40.3057 140.77 39.2851 141 37.3757C141.093 36.6003 140.512 35.9856 141 35.3757C141.61 34.6134 142.597 35.746 143.5 35.3757C144.657 34.9016 145.137 34.0723 145.5 32.8757C145.783 31.9414 145.691 31.3331 145.5 30.3757C145.379 29.7702 145.289 29.4214 145 28.8757C144.483 27.8995 144.031 27.2722 143 26.8757C142.089 26.5253 140.5 27.8757 140.5 26.8757C140.5 25.8757 140.5 23.8757 140 21.8757C139.5 19.8757 139.013 12.622 135 12.8757C134.196 12.9265 133.792 13.2329 133 13.3757C130.886 13.7569 129.527 14.0872 127.5 13.3757C125.658 12.7289 125.447 11.2288 123.5 11.3757C121.572 11.5212 121.616 13.416 120 13.8757C118.685 14.2498 117.294 12.7635 116.5 13.8757C115.933 14.6702 116.731 15.4271 116.5 16.3757C115.944 18.6604 112.5 19.3757 112 20.3757C111.5 21.3757 112 26.3757 112 26.8757C112 27.3757 110.093 26.4528 109 26.8757C108.343 27.1299 107.885 27.286 107.5 27.8757C106.967 28.6935 107.379 29.4069 107.5 30.3757C107.791 32.7171 107.754 35.1533 110 35.8757C110.929 36.1747 112 35.3757 112.5 35.8757C113 36.3757 113.035 39.0802 114 40.8757C115.113 42.9467 118 45.3757 118 45.3757C118 45.3757 119.797 54.9365 117 59.8757Z" fill="#FBD8D2" stroke="#F3B9AD"/>
<path d="M115 22.6097C115 22.6097 117.137 20.6946 119 20.1097C120.677 19.5833 124 20.1097 124 20.1097" stroke="#9E7974"/>
<path d="M139 22.6097C139 22.6097 136.863 20.6946 135 20.1097C133.323 19.5833 130 20.1097 130 20.1097" stroke="#9E7974"/>
<path d="M124.5 38.8757C124.5 38.8757 126.005 39.4231 127 39.3757C127.804 39.3374 129 38.8757 129 38.8757" stroke="#D6B1A7"/>
<path d="M121 36.8757C121 36.8757 124.317 37.8757 126.5 37.8757C128.683 37.8757 132 36.8757 132 36.8757" stroke="#D6B1A7"/>
<path d="M124 30.8757C124 30.8757 125.25 32.8757 126.5 32.8757C127.75 32.8757 129 30.8757 129 30.8757" stroke="#D6B1A7"/>
<path d="M114.5 30.3757C114.561 29.6743 114.958 29.3246 115.5 28.8757C116.703 27.8798 119.5 28.8757 119.5 28.8757C119.5 28.8757 120.883 29.5556 121 30.3757C121.138 31.3422 120.334 31.8681 119.5 32.3757C118.332 33.0864 117.168 33.0864 116 32.3757C115.166 31.8681 114.416 31.3484 114.5 30.3757Z" fill="#FFBBBD" stroke="url(#paint0_diamond_43_42)"/>
<path d="M138.516 30.8184C138.455 30.117 138.058 29.7672 137.516 29.3184C136.312 28.3224 133.516 29.3184 133.516 29.3184C133.516 29.3184 132.133 29.9983 132.016 30.8184C131.877 31.7849 132.682 32.3107 133.516 32.8184C134.683 33.5291 135.848 33.5291 137.016 32.8184C137.85 32.3107 138.6 31.791 138.516 30.8184Z" fill="#FFBBBD" stroke="url(#paint1_diamond_43_42)"/>
<path d="M118 45.3757C118 45.3757 121.144 47.871 123 48.3757C126.203 49.247 128.531 49.8602 131.5 48.3757C133.11 47.5706 136 44.8757 136 44.8757" stroke="#FDC1B1"/>
<path d="M117 24.8757C117 24.8757 118.692 26.2988 120 26.3757C121.233 26.4483 123 25.3757 123 25.3757" stroke="#9E7974"/>
<path d="M137 24.8757C137 24.8757 135.308 26.2988 134 26.3757C132.767 26.4483 131 25.3757 131 25.3757" stroke="#9E7974"/>
<path d="M97 159.876C100.5 160.876 97.5 152.876 101.5 154.376C105.5 155.876 145.132 134.915 154.5 153.376C155.813 155.964 155.335 157.998 157 160.376C157.762 161.464 171.042 159.713 180 160.376C188.262 160.987 193.206 160.568 201 163.376C210.018 166.625 219.802 167.442 221.5 176.876L221.514 176.952C221.921 179.214 222.181 180.661 221.5 182.876C221.127 184.086 220.725 184.725 220.068 185.768L220 185.876C217.935 189.156 215.8 190.343 212.5 192.376C207.611 195.388 204.129 195.74 198.5 196.876C186.236 199.349 178.969 196.39 166.5 195.376C158.87 194.755 154.597 194.316 147 193.376C140.149 192.528 136.395 191.218 129.5 190.876C125.795 190.692 123.706 190.7 120 190.876C112.911 191.212 109.057 192.629 102 193.376C88.589 194.795 80.9437 195.94 67.5 194.876C61.6087 194.409 52.5 192.876 52.5 192.876C52.5 192.876 44.6271 191.554 41 188.376C38.7971 186.445 37.293 185.195 36.5 182.376C35.6545 179.37 36.3964 177.362 37.4733 174.448L37.5 174.376C40.0583 167.452 48.4999 164.876 52.5 162.876C56.5 160.876 93.5 158.876 97 159.876Z" fill="#627383" stroke="#656C74"/>
<path d="M56 171.376C56 171.376 70.5 169.876 80 170.376C89.5 170.876 99.5 175.376 99.5 175.376" stroke="#7590A5"/>
<path d="M146.877 169.795C144.719 170.62 144.197 172.144 142.432 173.598C140.35 175.313 137 177.776 137 177.776L155.5 175.126C155.5 175.126 155.276 172.905 154.779 171.697C154.424 170.834 154.046 170.381 153.297 169.795C151.351 168.274 149.208 168.905 146.877 169.795Z" fill="#ECB465" stroke="#787059"/>
<path d="M202.5 173.876C202.5 173.876 181.017 172.645 167 173.876C151.485 175.237 127.5 179.376 127.5 179.376" stroke="#7590A5"/>
<path d="M128 157.376C125.487 157.733 124.023 158.343 122 159.876C120.9 160.71 119.668 161.005 119.5 162.376C119.402 163.175 119.508 163.738 120 164.376C120.534 165.067 121.137 165.24 122 165.376C122.984 165.53 123.595 165.291 124.5 164.876C126.136 164.124 127.5 161.376 127.5 161.376C127.5 161.376 127.805 158.938 128 157.376ZM128 157.376C130.008 158 131.115 158.442 133 159.376C134.411 160.074 136.086 159.857 136.5 161.376C136.654 161.941 136.731 162.337 136.5 162.876C136.282 163.383 135.966 163.579 135.5 163.876C134.347 164.61 133.271 164.379 132 163.876C131.092 163.516 130.712 163.044 130 162.376C129.089 161.52 128.363 161.072 128 159.876C127.717 158.941 127.717 158.31 128 157.376ZM128 157.376C127.677 160.685 127.568 162.551 127.5 165.876C127.464 167.633 126.678 168.823 127.5 170.376C128.017 171.352 129.5 172.376 129.5 172.376M128 157.376C127.408 160.073 127.676 161.952 129 164.376C129.731 165.714 130.313 166.418 131.5 167.376C132.048 167.818 133 168.376 133 168.376" stroke="#CEDAE2"/>
<path d="M89 137.876C91.8991 133.511 95 125.876 95 125.876L77 120.876L72 133.876C70.0474 138.953 70.0098 139.019 68 141.876C64.4901 146.865 61.0396 148.438 56 151.876C53.5377 153.555 52.4801 155.925 49.5 155.876C48.5045 155.859 47.9892 155.489 47 155.376C45.6421 155.22 44.8413 155.112 43.5 155.376C42.0408 155.662 41.24 156.055 40 156.876C38.6184 157.79 37.4018 158.268 37 159.876C36.8106 160.633 36.5267 161.254 37 161.876C37.4879 162.516 38.1996 162.463 39 162.376C40.243 162.241 40.7986 160.03 42 160.376C42.5 160.376 43 160.876 43 161.376C43 162.249 43 162.376 42.5 163.376C42.0297 164.316 41.0304 165.666 40 165.876C38.8519 166.109 37.7917 167.739 37 166.876C36.705 166.554 36.5 165.876 36.5 165.876C36.238 164.915 37.834 163.92 37 163.376C36.5093 163.056 36.0651 163.222 35.5 163.376L35.4847 163.38C33.9801 163.79 33.8077 163.837 33.5 165.376C33.3085 166.333 33.9584 167.063 34.5 167.876C34.9844 168.602 34.9359 168.709 35.5 169.376C36.927 171.062 32.3335 172.33 31.5 174.376C31.1962 175.121 30.4923 175.751 31 176.376C31.4925 176.982 32.219 176.376 33 176.376C32.4923 176.727 32.3047 177.29 32.5 177.876C32.8087 178.802 35 177.876 35 177.876C35 177.876 33.8094 178.698 34 179.376C34.218 180.151 37 178.876 38 178.376C39 177.876 42.3692 176.625 46 173.876C50.6231 170.375 52.1245 167.181 56.5 163.376C65.1223 155.876 72.9094 155.446 81 147.376C84.4339 143.95 86.3163 141.916 89 137.876Z" fill="#FBD8D2"/>
<path d="M35 177.876C35 177.876 33.8094 178.698 34 179.376C34.218 180.151 37 178.876 38 178.376C39 177.876 42.3692 176.625 46 173.876C50.6231 170.375 52.1245 167.181 56.5 163.376C65.1223 155.876 72.9094 155.446 81 147.376C84.4339 143.95 86.3163 141.916 89 137.876C91.8991 133.511 95 125.876 95 125.876L77 120.876C75.0474 125.953 73.9526 128.799 72 133.876C70.0474 138.953 70.0098 139.019 68 141.876C64.4901 146.865 61.0396 148.438 56 151.876C53.5377 153.555 52.4801 155.925 49.5 155.876C48.5045 155.859 47.9892 155.489 47 155.376C45.6421 155.22 44.8413 155.112 43.5 155.376C42.0408 155.662 41.24 156.055 40 156.876C38.6184 157.79 37.4018 158.268 37 159.876C36.8106 160.633 36.5267 161.254 37 161.876C37.4879 162.516 38.1996 162.463 39 162.376C40.243 162.241 40.7986 160.03 42 160.376M35 177.876L42.5 172.876M35 177.876C35 177.876 32.8087 178.802 32.5 177.876C32.3047 177.29 32.4923 176.727 33 176.376M33 176.376C35.1479 174.618 38.5 171.876 38.5 171.876M33 176.376C32.219 176.376 31.4925 176.982 31 176.376C30.4923 175.751 31.1962 175.121 31.5 174.376C32.3335 172.33 36.927 171.062 35.5 169.376C34.9359 168.709 34.9844 168.602 34.5 167.876C33.9584 167.063 33.3085 166.333 33.5 165.376C33.8087 163.832 33.9812 163.79 35.5 163.376C36.0651 163.222 36.5093 163.056 37 163.376C37.834 163.92 36.238 164.915 36.5 165.876C36.5 165.876 36.705 166.554 37 166.876C37.7917 167.739 38.8519 166.109 40 165.876C41.0304 165.666 42.0297 164.316 42.5 163.376C43 162.376 43 162.249 43 161.376C43 160.876 42.5 160.376 42 160.376M42 160.376C41.296 160.376 42.6765 160.571 42 160.376ZM42 160.376C41.4067 160.205 42.5933 160.547 42 160.376Z" stroke="#F3B9AD"/>
<path d="M165 137.876C162.101 133.511 159 125.876 159 125.876L177 120.876L182 133.876C183.953 138.953 183.99 139.019 186 141.876C189.51 146.865 192.96 148.438 198 151.876C200.462 153.555 201.52 155.925 204.5 155.876C205.496 155.859 206.011 155.489 207 155.376C208.358 155.22 209.159 155.112 210.5 155.376C211.959 155.662 212.76 156.055 214 156.876C215.382 157.79 216.598 158.268 217 159.876C217.189 160.633 217.473 161.254 217 161.876C216.512 162.516 215.8 162.463 215 162.376C213.757 162.241 213.201 160.03 212 160.376C211.5 160.376 211 160.876 211 161.376C211 162.249 211 162.376 211.5 163.376C211.97 164.316 212.97 165.666 214 165.876C215.148 166.109 216.208 167.739 217 166.876C217.295 166.554 217.5 165.876 217.5 165.876C217.762 164.915 216.166 163.92 217 163.376C217.491 163.056 217.935 163.222 218.5 163.376L218.515 163.38C220.02 163.79 220.192 163.837 220.5 165.376C220.691 166.333 220.042 167.063 219.5 167.876C219.016 168.602 219.064 168.709 218.5 169.376C217.073 171.062 221.666 172.33 222.5 174.376C222.804 175.121 223.508 175.751 223 176.376C222.507 176.982 221.781 176.376 221 176.376C221.508 176.727 221.695 177.29 221.5 177.876C221.191 178.802 219 177.876 219 177.876C219 177.876 220.191 178.698 220 179.376C219.782 180.151 217 178.876 216 178.376C215 177.876 211.631 176.625 208 173.876C203.377 170.375 201.875 167.181 197.5 163.376C188.878 155.876 181.091 155.446 173 147.376C169.566 143.95 167.684 141.916 165 137.876Z" fill="#FBD8D2"/>
<path d="M219 177.876C219 177.876 220.191 178.698 220 179.376C219.782 180.151 217 178.876 216 178.376C215 177.876 211.631 176.625 208 173.876C203.377 170.375 201.875 167.181 197.5 163.376C188.878 155.876 181.091 155.446 173 147.376C169.566 143.95 167.684 141.916 165 137.876C162.101 133.511 159 125.876 159 125.876L177 120.876C178.953 125.953 180.047 128.799 182 133.876C183.953 138.953 183.99 139.019 186 141.876C189.51 146.865 192.96 148.438 198 151.876C200.462 153.555 201.52 155.925 204.5 155.876C205.496 155.859 206.011 155.489 207 155.376C208.358 155.22 209.159 155.112 210.5 155.376C211.959 155.662 212.76 156.055 214 156.876C215.382 157.79 216.598 158.268 217 159.876C217.189 160.633 217.473 161.254 217 161.876C216.512 162.516 215.8 162.463 215 162.376C213.757 162.241 213.201 160.03 212 160.376M219 177.876L211.5 172.876M219 177.876C219 177.876 221.191 178.802 221.5 177.876C221.695 177.29 221.508 176.727 221 176.376M221 176.376C218.852 174.618 215.5 171.876 215.5 171.876M221 176.376C221.781 176.376 222.507 176.982 223 176.376C223.508 175.751 222.804 175.121 222.5 174.376C221.666 172.33 217.073 171.062 218.5 169.376C219.064 168.709 219.016 168.602 219.5 167.876C220.042 167.063 220.691 166.333 220.5 165.376C220.191 163.832 220.019 163.79 218.5 163.376C217.935 163.222 217.491 163.056 217 163.376C216.166 163.92 217.762 164.915 217.5 165.876C217.5 165.876 217.295 166.554 217 166.876C216.208 167.739 215.148 166.109 214 165.876C212.97 165.666 211.97 164.316 211.5 163.376C211 162.376 211 162.249 211 161.376C211 160.876 211.5 160.376 212 160.376M212 160.376C212.704 160.376 211.323 160.571 212 160.376ZM212 160.376C212.593 160.205 211.407 160.547 212 160.376Z" stroke="#F3B9AD"/>
<path d="M99.4999 105.376C98.3283 113.967 97.8091 125.876 96.4999 127.376C95.1906 128.876 73 121.876 71.4999 119.876C69.9997 117.876 79.4997 92.3757 86.9999 81.3757C94.5 70.3757 109.5 64.3757 111.5 65.3757C113.5 66.3757 113 78.3757 126 78.3757C139 78.3757 139.5 71.3757 141.5 65.3757C142.491 62.4014 159.66 69.3661 163 74.3757C172 87.8757 181.5 117.876 181.5 119.876C181.5 121.876 159.5 129.376 158 127.376C156.938 125.96 156.126 115.018 155.743 108.75C156.319 119.845 156.908 135.493 157.651 139.876C158.5 144.876 159 148.876 158.5 153.876C158.254 156.332 143 158.876 127.5 158.876C112 158.876 96.0086 154.893 95.4999 153.876C94.4999 151.876 95.0727 148.876 96.6545 139.876C98.2364 130.876 99.4999 105.376 99.4999 105.376Z" fill="#86964B" stroke="#8C8956"/>
<path d="M99 97.3757C99 97.3757 98.3143 90.9691 96.5 87.3757C94.8094 84.0275 90.5 79.8757 90.5 79.8757" stroke="#93A357"/>
<path d="M155 91.8757C155 91.8757 155.433 86.1175 157 82.8757C158.393 79.9923 162 76.3757 162 76.3757" stroke="#93A357"/>
<path d="M136 116.876C135.5 116.376 135 103.376 136 102.876C137 102.376 148 102.376 149 102.876C150 103.376 149 116.376 148.5 116.876C148 117.376 143 120.376 142.5 120.376C142 120.376 136.5 117.376 136 116.876Z" stroke="#93A357"/>
<path d="M135.5 105.876C140.5 106.376 143.5 106.376 149 105.876" stroke="#93A357"/>
<path d="M95.5 149.876C103.5 152.876 115 153.876 128 154.376C141 154.876 158.5 149.876 158.5 149.876" stroke="url(#paint2_diamond_43_42)"/>
<path d="M109 67.8757L114 77.8757L123 82.8757H130.5L139 77.8757L144 67.8757" stroke="#93A357"/>
<line x1="124.354" y1="83.5222" x2="129.354" y2="88.5222" stroke="#93A357"/>
<line x1="129.354" y1="83.2293" x2="124.354" y2="88.2293" stroke="#93A357"/>
<path d="M72.5 113.876C78.5 117.376 92 120.876 97.5 121.376" stroke="url(#paint3_radial_43_42)"/>
<path d="M180 113.876C176.5 116.876 165 120.376 157 121.876" stroke="url(#paint4_radial_43_42)"/>
<path d="M127 190.876V178.876C127 178.876 121.365 178.962 118 177.876C113.824 176.528 112.833 172.568 108.5 171.876C106.765 171.599 105.653 171.28 104 171.876C101.921 172.624 101.732 174.504 100 175.876C97.8737 177.56 96.3862 178.086 94 179.376C88.5413 182.327 83.2188 180.908 79.5 185.876C78.5566 187.136 77.256 187.821 77.5 189.376C77.6938 190.611 78.4617 191.179 79.5 191.876C81.1297 192.969 84.5 192.376 84.5 192.376C84.5 192.376 95.0854 189.892 102 189.376C111.753 188.647 127 190.876 127 190.876Z" fill="#ECB465" stroke="#787059"/>
<path d="M82 191.876C82 191.876 81.4636 188.753 82 186.876C82.3599 185.616 83 184.876 83 184.876" stroke="#FCC887"/>
<path d="M120.5 179.376C120.5 179.376 119.677 182.507 119.5 184.876C119.355 186.823 119.5 188.876 119.5 188.876" stroke="#FCC887"/>
<path d="M124 179.376C124 179.376 123.194 182.701 123 184.876C122.809 187.015 123 189.376 123 189.376" stroke="#FCC887"/>
<path d="M145 172.876C145 172.876 147.785 172.493 149.5 172.876C150.951 173.2 153 174.376 153 174.376" stroke="#FCC887"/>
<path d="M101.5 175.376C101.5 175.376 104.077 177.34 106 177.376C108.446 177.421 111.5 174.376 111.5 174.376" stroke="#FCC887"/>
<defs>
<radialGradient id="paint0_diamond_43_42" cx="0" cy="0" r="1" gradientUnits="userSpaceOnUse" gradientTransform="translate(117.755 30.6709) rotate(-87.0697) scale(4.80146 56.7172)">
<stop offset="0.00971143" stop-color="#FFBBBD"/>
<stop offset="0.993137" stop-color="#E3B3B5"/>
</radialGradient>
<radialGradient id="paint1_diamond_43_42" cx="0" cy="0" r="1" gradientUnits="userSpaceOnUse" gradientTransform="translate(135.261 31.1136) rotate(-92.9303) scale(4.80146 56.7172)">
<stop offset="0.00971143" stop-color="#FFBBBD"/>
<stop offset="0.993137" stop-color="#E3B3B5"/>
</radialGradient>
<radialGradient id="paint2_diamond_43_42" cx="0" cy="0" r="1" gradientUnits="userSpaceOnUse" gradientTransform="translate(127 152.143) rotate(-90.629) scale(273.284 34.6792)">
<stop stop-color="#93A357"/>
<stop offset="1" stop-color="#8C8956"/>
</radialGradient>
<radialGradient id="paint3_radial_43_42" cx="0" cy="0" r="1" gradientUnits="userSpaceOnUse" gradientTransform="translate(85 117.626) rotate(0.895174) scale(16.002 4.80059)">
<stop offset="0.631" stop-color="#93A357"/>
<stop offset="1" stop-color="#8C8956"/>
</radialGradient>
<radialGradient id="paint4_radial_43_42" cx="0" cy="0" r="1" gradientUnits="userSpaceOnUse" gradientTransform="translate(168.5 117.876) rotate(1.03785) scale(14.7224 5.12041)">
<stop offset="0.631" stop-color="#93A357"/>
<stop offset="1" stop-color="#8C8956"/>
</radialGradient>
</defs>
</svg>
