<svg width="297" height="192" viewBox="0 0 297 192" fill="none" xmlns="http://www.w3.org/2000/svg">
<g clip-path="url(#clip0_45_65)">
<path d="M110.5 163.5C119.665 177.638 127 194 133.5 200C140 206 108.5 202 107 200C105.5 198 100.562 171.843 99 169.5C97.4379 167.157 97.5 165 95 163.5C92.5 162 88.0298 161.777 83.5 161C78.8452 160.202 73.5 160.5 71.5 159.5C69.5 158.5 68.8827 157.457 67 156.5C63.4119 154.675 60.9854 154.566 57 154C51.5871 153.231 44.5 155 43 154C41.5 153 41 152.5 41.5 151.5C42 150.5 38.9318 150.84 38.5 149.5C38.044 148.085 39 148 40.5 147C42 146 66 149 67 147.5C68 146 64.6256 145.713 65.5 144L65.5311 143.939C66.2655 142.5 66.5207 142 68 142C69.5 142 75.8088 145.306 79.5 146C81.8028 146.433 81.1701 146.248 83.5 146C87.5543 145.568 89.0106 144.158 93 145C95.394 145.505 96.5 145 99 146C101.5 147 106.052 156.638 110.5 163.5Z" fill="#FDBC92" stroke="#FFC694" stroke-width="0.3"/>
<path d="M142.5 185C140.259 190.704 136.5 199.5 136.5 199.5L296 199C296 199 293 147 292 143.5C291 140 291 138 290 137.5C289 137 287.219 137.036 285.5 136.5C282.831 135.668 281.674 134.316 279 133.5C275.06 132.297 271 131.5 268.5 132.5C266 133.5 255.5 114.5 255.5 114.5C255.5 114.5 255 101 256 102C257 103 256.984 102.852 257.5 103.5C258.809 105.146 258.961 106.467 259.5 108.5C260.403 111.902 260 117.5 260 117.5L261.5 118.5C261.5 118.5 264.769 113.468 265.5 110.5C266.294 107.277 265.882 105.297 265.5 102C264.573 94.0027 259.84 90.7034 257.5 83C256.853 80.8698 256.492 79.6713 256 77.5C254.398 70.4308 256.858 65.8543 254.5 59C252.908 54.3728 251.959 51.4608 248.5 48C243.987 43.4847 239.72 42.9377 233.5 41.5C228.16 40.2657 224.95 39.9124 219.5 40.5L219.344 40.5168C213.538 41.1427 209.757 41.5502 205 45C200.479 48.2784 198.807 51.414 196.5 56.5C193.874 62.2897 194.414 66.2088 193.5 72.5C192.175 81.6147 194.668 87.3516 191.5 96C190.148 99.6898 186 106 187 105C188 104 193 101 193.5 101.5C194 102 184 110.5 184.5 110.5C185 110.5 188.5 108.5 189 109C189.5 109.5 187.861 112.988 187 115.5C185.636 119.479 182.5 126 183 125.5C183.5 125 189 115.5 189 116.5C189 117.5 187.134 125.073 183 128C179.715 130.326 175.807 127.614 173 130.5C172.319 131.2 172.5 131 171.5 131.5C171.006 131.747 171 131.5 170.5 131.5C169.524 131.5 168.963 131.337 168 131.5C164.866 132.03 164.1 134.614 162 137C157.211 142.441 156.494 146.899 153.5 153.5C148.118 165.367 147.264 172.872 142.5 185Z" fill="black"/>
<rect width="98.4648" height="98.4647" transform="matrix(0.708375 0.705836 -0.708375 0.705836 70.75 1)" fill="#105A65"/>
<path d="M106.32 96.5807C105.83 97.1398 104.359 97.1398 103.868 96.5807C103.377 96.0217 103.377 45.1512 103.868 44.5923C104.359 44.0333 104.74 43.9356 105.339 44.0333C105.763 44.1023 105.961 44.3271 106.32 44.5923C108.354 46.0924 108.282 51.3005 108.282 51.3005C108.282 51.3005 108.772 63.0398 108.282 63.5988C107.792 64.1578 106.32 65.2759 105.83 65.8349C105.339 66.3939 106.811 96.0217 106.32 96.5807Z" fill="#D5D0CD" stroke="#A7A7A7" stroke-width="0.3"/>
<path d="M37.75 97.576C37.1667 98.1413 35.4167 98.1413 34.8333 97.576C34.2499 97.0107 34.8333 61.96 34.8333 61.3947C34.8334 60.8293 32.5 59.1333 32.5 58.568C32.5 58.0027 33.0833 45 33.0833 45C33.0833 45 33.6667 55.176 34.25 55.176C34.8333 55.176 35.125 45 35.125 45C35.125 45 35.4167 55.176 36 55.176C36.5833 55.176 36.875 45 36.875 45C36.875 45 37.1667 55.176 37.75 55.176C38.3333 55.176 38.9167 45 38.9167 45C38.9167 45 39.4999 58.0027 39.5 58.568C39.5001 59.1333 37.1667 60.8293 37.1667 61.3947C37.1667 61.96 38.3333 97.0107 37.75 97.576Z" fill="#D5D0CD" stroke="#A7A7A7" stroke-width="0.3"/>
<circle cx="70.5" cy="70" r="30" fill="#D5D0CD"/>
<circle cx="70.5" cy="70" r="24" fill="#F4F4F4"/>
<path d="M230 147.5C226.537 148.215 222 149.5 221 148.5C220 147.5 218.744 140.914 217.5 136C216.663 132.694 216.447 130.776 215.5 127.5C214.231 123.109 213.5 118.5 211.5 116.5C209.5 114.5 203 105.5 202 102C201 98.5 199.5 82 200.5 79.5C201.5 77 203.7 72.1374 207.5 69C211.836 65.4209 215.495 65.1427 221 64C225.033 63.1628 229.5 62.5 231.5 63C233.5 63.5 236.76 65.2844 239 68C241.284 70.7694 240.524 73.5027 242.5 76.5C244.098 78.9237 246.5 80 247.5 82C248.5 84 247 97.5 246.5 100C246 102.5 242.543 105.929 240.5 110C238.418 114.148 236.5 117 236 121C235.5 125 238 144.5 237 145.5C236 146.5 232.784 146.925 230 147.5Z" fill="#FDBC92"/>
<path d="M218.5 98C218.5 98 220.756 100.097 222.5 100C224.072 99.9127 226 98 226 98" stroke="#EB9169"/>
<path d="M220.608 111.012C218.875 110.629 217.214 109.23 215.887 107.785C215.232 107.073 214.675 106.368 214.249 105.806C214.119 105.636 214.004 105.481 213.9 105.342C213.933 105.342 213.968 105.342 214.003 105.343C214.652 105.348 215.575 105.389 216.655 105.438C216.781 105.443 216.909 105.449 217.039 105.455C219.51 105.565 222.668 105.692 225.041 105.498C225.222 105.484 225.405 105.469 225.591 105.454C226.908 105.347 228.316 105.233 229.536 105.094C230.232 105.015 230.876 104.926 231.413 104.825C231.542 104.8 231.667 104.775 231.788 104.748C231.453 105.314 230.919 106.083 230.252 106.896C229.519 107.788 228.638 108.717 227.701 109.476C226.757 110.24 225.791 110.804 224.888 111.013C223.253 111.39 222.256 111.376 220.608 111.012Z" fill="#FBFFFE" stroke="#DD2E13"/>
<path d="M206.5 86C206.5 86 209.319 83.4051 211.5 83.5C213.508 83.5873 216 86 216 86" stroke="#EB9169"/>
<path d="M206 80.5C206 80.5 209.929 79.6032 211.5 79.5C213.254 79.3848 216 79.5 216 79.5" stroke="#3D1300"/>
<path d="M237 86C237 86 234.181 83.4051 232 83.5C229.992 83.5873 227.5 86 227.5 86" stroke="#EB9169"/>
<path d="M237 80.5C237 80.5 233.071 79.6032 231.5 79.5C229.746 79.3848 227 79.5 227 79.5" stroke="#3D1300"/>
</g>
<defs>
<clipPath id="clip0_45_65">
<rect width="297" height="192" fill="white"/>
</clipPath>
</defs>
</svg>
