<svg width="99" height="115" viewBox="0 0 99 115" fill="none" xmlns="http://www.w3.org/2000/svg">
<g clip-path="url(#clip0_45_82)">
<path d="M73.1144 81.5C82.279 95.6375 89.6144 112 96.1144 118C102.614 124 71.1144 120 69.6144 118C68.1144 116 63.1765 89.8432 61.6144 87.5C60.0523 85.1569 60.1144 83.0001 57.6144 81.5C55.1144 80 50.6442 79.7768 46.1144 79C41.4596 78.2019 36.1144 78.5 34.1144 77.5C32.1144 76.5001 31.497 75.4574 29.6144 74.5C26.0263 72.6754 23.5998 72.5665 19.6144 72C14.2015 71.2307 7.1144 73 5.6144 72C4.1144 71.0001 3.6144 70.5 4.1144 69.5C4.6144 68.5001 1.54615 68.8403 1.1144 67.5C0.65842 66.0846 1.61439 66 3.11438 65C4.61437 64 28.6144 67 29.6144 65.5C30.6144 64 27.2399 63.7128 28.1144 62L28.1455 61.9391C28.8799 60.5 29.1351 60 30.6144 60C32.1144 60 38.4232 63.3055 42.1144 64C44.4171 64.4333 43.7844 64.2482 46.1144 64C50.1687 63.5682 51.625 62.1585 55.6144 63C58.0083 63.505 59.1144 63.0001 61.6144 64C64.1144 65 68.6661 74.638 73.1144 81.5Z" fill="#FDBC92" stroke="black" stroke-width="0.3"/>
<path d="M22.8333 38.3019C28.1226 42.1606 32.4515 50 32.4515 50C32.4515 50 36.8607 42.1739 42.0833 38.3019C46.3239 35.1579 48.867 34.9525 52.1501 32.1745C55.4332 29.3965 53.6424 20.5995 52.1501 18.516C50.6578 16.4324 44.3586 8.25267 38.1223 10.4135C34.9474 11.5135 32.4515 15.738 32.4515 15.738C32.4515 15.738 29.7754 11.447 26.4822 10.4135C20.2369 8.45344 15.7756 13.8459 12.7529 18.516C9.66743 23.283 8.54033 27.9584 12.7529 32.1745C16.2797 35.7043 18.6395 35.2423 22.8333 38.3019Z" fill="#FF5353" stroke="black" stroke-width="0.3"/>
</g>
<defs>
<clipPath id="clip0_45_82">
<rect width="99" height="115" fill="white"/>
</clipPath>
</defs>
</svg>
